<?xml version="1.0" standalone="no"?>
<!DOCTYPE svg PUBLIC "-//W3C//DTD SVG 1.1//EN" "http://www.w3.org/Graphics/SVG/1.1/DTD/svg11.dtd" >
<svg xmlns="http://www.w3.org/2000/svg" xmlns:xlink="http://www.w3.org/1999/xlink" version="1.1">
<metadata>
Created by FontForge 20190801 at Thu Jan  9 22:29:34 2020
 By Unknown
Gobierno de Mexico: 2018-2024. Todos los derechos reservados.
</metadata>
<defs>
<font id="GMX-Bold" horiz-adv-x="620" >
  <font-face 
    font-family="GMX"
    font-weight="600"
    font-stretch="normal"
    units-per-em="1000"
    panose-1="0 0 0 0 0 0 0 0 0 0"
    ascent="800"
    descent="-200"
    x-height="530"
    cap-height="700"
    bbox="-194 -607 1282 1241"
    underline-thickness="72"
    underline-position="-218"
    unicode-range="U+000D-FB04"
  />
<missing-glyph horiz-adv-x="962" 
d="M171 -235l-30 30v935l30 30h620l30 -30v-935l-30 -30h-620zM253 700l228 -375l227 375h-455zM209 651v-776l234 388zM519 263l234 -387v774zM253 -174h454l-226 375z" />
    <glyph glyph-name="f_i" unicode="fi" horiz-adv-x="706" 
d="M22 50l84 26c3 12 7 119 7 153v220l-75 4l-4 44l79 22v17c0 138 155 222 242 237c66 -7 155 -42 200 -77c-3 -41 -29 -75 -62 -92h-25c-54 44 -120 75 -196 86l11 -5c-38 -12 -52 -122 -52 -167l230 3c36 1 65 3 96 12l26 -16v-307c0 -44 2 -120 8 -127
c4 -10 50 -24 80 -33l-11 -50h-265l-10 50l67 26c4 20 8 81 8 134v78c0 54 0 141 -10 152c-5 6 -35 7 -69 8l-145 2v-221c0 -50 3 -135 12 -147c7 -11 40 -24 69 -32l-10 -50h-274z" />
    <glyph glyph-name="f_l" unicode="fl" horiz-adv-x="697" 
d="M384 50l67 26c4 20 8 81 8 134v292c0 42 -1 105 -7 127c-48 30 -113 53 -172 59l3 -3c-37 -12 -52 -106 -52 -146v-47l144 5l15 -15l-11 -61l-143 3v-195c0 -50 3 -135 12 -147s46 -24 77 -32l-11 -50h-281l-11 50l84 26c3 12 7 94 7 153v194l-75 4l-4 44l79 23v30
c0 138 155 234 242 249c47 -3 106 -21 152 -41l75 12v-534c0 -44 2 -120 8 -127c3 -10 49 -24 80 -33l-12 -50h-264z" />
    <glyph glyph-name="f_f" unicode="ff" horiz-adv-x="767" 
d="M22 50l84 26c3 12 7 119 7 153v194l-75 4l-4 44l79 23v30c0 152 145 237 196 249c42 -3 105 -30 132 -48c-6 -23 -30 -67 -45 -89l-25 -1c-34 15 -76 33 -113 41c-22 -11 -38 -37 -38 -77l11 -107l228 4v28c0 152 145 237 195 249c49 -5 114 -31 146 -51
c-7 -24 -31 -67 -46 -89l-24 -1c-39 16 -86 34 -127 44c-21 -11 -37 -37 -37 -77l11 -107l146 5l16 -15l-12 -61l-145 3v-195c0 -50 3 -135 11 -147c10 -13 61 -22 103 -32l-11 -50h-293l-11 50l71 26c2 12 7 119 7 153v192l-223 3v-195c0 -50 3 -135 12 -147
c9 -11 44 -22 77 -32l-11 -50h-281z" />
    <glyph glyph-name="f_f_i" unicode="ffi" horiz-adv-x="1052" 
d="M22 50l84 26c3 12 7 119 7 153v220l-75 3l-4 32l79 23v17c0 152 145 237 196 249c42 -3 105 -30 132 -48c-6 -23 -30 -67 -45 -89l-25 -1c-34 15 -76 33 -113 41c-22 -11 -38 -37 -38 -77l11 -94l228 5v26c0 138 155 222 241 237c67 -7 156 -42 200 -77
c-2 -41 -28 -75 -62 -92h-24c-54 44 -120 75 -196 86l11 -5c-39 -12 -52 -122 -52 -167l230 3c35 1 64 3 95 12l26 -16v-307c0 -44 3 -120 9 -127c3 -10 49 -24 79 -33l-11 -50h-264l-11 50l68 26c4 20 8 81 8 134v78c0 54 -1 141 -10 152c-6 6 -35 7 -70 8l-144 2v-221
c0 -50 3 -135 11 -147c8 -11 45 -23 77 -32l-11 -50h-267l-11 50l71 26c2 12 7 119 7 153v217l-223 3v-220c0 -50 3 -135 12 -147c9 -11 44 -22 77 -32l-11 -50h-281z" />
    <glyph glyph-name="f_f_l" unicode="ffl" horiz-adv-x="1043" 
d="M22 50l84 26c3 12 7 119 7 153v205l-75 4l-4 33l79 23v30c0 152 145 237 196 249c42 -3 105 -30 132 -48c-6 -23 -30 -67 -45 -89l-25 -1c-34 15 -76 33 -113 41c-22 -11 -38 -37 -38 -77l11 -107l228 4v40c0 138 155 222 241 237c48 -3 107 -21 153 -41l75 12v-534
c0 -44 2 -120 9 -127c3 -10 49 -24 79 -33l-11 -50h-265l-10 50l68 26c3 20 7 81 7 134v222l-223 4v-207c0 -50 3 -135 11 -147c8 -11 45 -24 77 -32l-11 -50h-267l-11 50l71 26c2 12 7 94 7 153v203l-223 3v-206c0 -50 3 -135 12 -147c9 -11 44 -22 77 -32l-11 -50h-281z
M577 535v-31l228 4c0 41 -1 100 -6 121c-49 30 -114 53 -173 59l3 -3c-37 -12 -52 -109 -52 -150z" />
    <glyph glyph-name=".notdef" horiz-adv-x="962" 
d="M171 -235l-30 30v935l30 30h620l30 -30v-935l-30 -30h-620zM253 700l228 -375l227 375h-455zM209 651v-776l234 388zM519 263l234 -387v774zM253 -174h454l-226 375z" />
    <glyph glyph-name="glyph1" horiz-adv-x="500" 
 />
    <glyph glyph-name="glyph1" horiz-adv-x="500" 
 />
    <glyph glyph-name="CR" unicode="&#xd;" horiz-adv-x="500" 
 />
    <glyph glyph-name="space" unicode=" " horiz-adv-x="237" 
 />
    <glyph glyph-name="uni00A0" unicode="&#xa0;" horiz-adv-x="250" 
 />
    <glyph glyph-name="figurespace" unicode="&#x2007;" 
 />
    <glyph glyph-name="thinspace" unicode="&#x2009;" horiz-adv-x="120" 
 />
    <glyph glyph-name="A" unicode="A" horiz-adv-x="810" 
d="M303 50l-11 -50h-275l-10 50l81 26c68 164 136 350 201 526l29 98c47 6 124 11 169 12c8 -32 21 -67 37 -112c67 -182 146 -393 197 -524l82 -26l-10 -50h-304l-11 50l100 26c-17 45 -36 98 -56 157l-270 -5c-18 -52 -34 -104 -50 -152zM276 306l221 -3
c-35 98 -74 206 -115 314c-36 -101 -72 -207 -106 -311z" />
    <glyph glyph-name="Aacute" unicode="&#xc1;" horiz-adv-x="810" 
d="M220 821c93 57 213 118 318 166c18 -25 38 -65 46 -96l-17 -29l-320 -89l-15 7zM303 50l-11 -50h-275l-10 50l81 26c68 164 136 350 201 526l29 98c47 6 124 11 169 12c8 -32 21 -67 37 -112c67 -182 146 -393 197 -524l82 -26l-10 -50h-304l-11 50l100 26
c-17 45 -36 98 -56 157l-270 -5c-18 -52 -34 -104 -50 -152zM276 306l221 -3c-35 98 -74 206 -115 314c-36 -101 -72 -207 -106 -311z" />
    <glyph glyph-name="Abreve" unicode="&#x102;" horiz-adv-x="810" 
d="M403 881c71 0 115 34 140 104l35 -6l11 -15c-12 -126 -92 -190 -191 -190c-103 0 -174 72 -184 203l47 7c25 -67 67 -103 142 -103zM303 50l-11 -50h-275l-10 50l81 26c68 164 136 350 201 526l29 98c47 6 124 11 169 12c8 -32 21 -67 37 -112c67 -182 146 -393 197 -524
l82 -26l-10 -50h-304l-11 50l100 26c-17 45 -36 98 -56 157l-270 -5c-18 -52 -34 -104 -50 -152zM276 306l221 -3c-35 98 -74 206 -115 314c-36 -101 -72 -207 -106 -311z" />
    <glyph glyph-name="Acaron" unicode="&#x1cd;" horiz-adv-x="810" 
d="M626 960c-55 -61 -121 -129 -183 -188h-83c-41 38 -146 145 -182 186l25 37l17 3l184 -124l181 125l17 -4zM303 50l-11 -50h-275l-10 50l81 26c68 164 136 350 201 526l29 98c47 6 124 11 169 12c8 -32 21 -67 37 -112c67 -182 146 -393 197 -524l82 -26l-10 -50h-304
l-11 50l100 26c-17 45 -36 98 -56 157l-270 -5c-18 -52 -34 -104 -50 -152zM276 306l221 -3c-35 98 -74 206 -115 314c-36 -101 -72 -207 -106 -311z" />
    <glyph glyph-name="Acircumflex" unicode="&#xc2;" horiz-adv-x="810" 
d="M178 800c55 61 121 129 183 188l83 1c41 -39 146 -146 182 -186l-25 -38l-17 -3l-184 124l-181 -124l-17 3zM303 50l-11 -50h-275l-10 50l81 26c68 164 136 350 201 526l29 98c47 6 124 11 169 12c8 -32 21 -67 37 -112c67 -182 146 -393 197 -524l82 -26l-10 -50h-304
l-11 50l100 26c-17 45 -36 98 -56 157l-270 -5c-18 -52 -34 -104 -50 -152zM276 306l221 -3c-35 98 -74 206 -115 314c-36 -101 -72 -207 -106 -311z" />
    <glyph glyph-name="Adieresis" unicode="&#xc4;" horiz-adv-x="810" 
d="M356 880c0 -37 -42 -83 -75 -83c-41 0 -86 34 -86 70c0 45 44 89 81 89c34 0 80 -36 80 -76zM608 880c0 -37 -42 -83 -74 -83c-42 0 -87 34 -87 70c0 45 45 89 81 89c34 0 80 -36 80 -76zM303 50l-11 -50h-275l-10 50l81 26c68 164 136 350 201 526l29 98
c47 6 124 11 169 12c8 -32 21 -67 37 -112c67 -182 146 -393 197 -524l82 -26l-10 -50h-304l-11 50l100 26c-17 45 -36 98 -56 157l-270 -5c-18 -52 -34 -104 -50 -152zM276 306l221 -3c-35 98 -74 206 -115 314c-36 -101 -72 -207 -106 -311z" />
    <glyph glyph-name="Adotbelow" unicode="&#x1ea0;" horiz-adv-x="810" 
d="M303 50l-11 -50h-275l-10 50l81 26c68 164 136 350 201 526l29 98c47 6 124 11 169 12c8 -32 21 -67 37 -112c67 -182 146 -393 197 -524l82 -26l-10 -50h-304l-11 50l100 26c-17 45 -36 98 -56 157l-270 -5c-18 -52 -34 -104 -50 -152zM276 306l221 -3
c-35 98 -74 206 -115 314c-36 -101 -72 -207 -106 -311zM395 -85c33 0 81 -41 81 -80s-48 -85 -84 -85s-84 39 -84 78s52 87 87 87z" />
    <glyph glyph-name="Agrave" unicode="&#xc0;" horiz-adv-x="810" 
d="M586 821l-11 -41l-15 -7l-321 89l-17 29c8 31 28 71 46 96c105 -48 225 -109 318 -166zM303 50l-11 -50h-275l-10 50l81 26c68 164 136 350 201 526l29 98c47 6 124 11 169 12c8 -32 21 -67 37 -112c67 -182 146 -393 197 -524l82 -26l-10 -50h-304l-11 50l100 26
c-17 45 -36 98 -56 157l-270 -5c-18 -52 -34 -104 -50 -152zM276 306l221 -3c-35 98 -74 206 -115 314c-36 -101 -72 -207 -106 -311z" />
    <glyph glyph-name="Amacron" unicode="&#x100;" horiz-adv-x="810" 
d="M616 923v-87l-414 -3l-15 15l10 78zM303 50l-11 -50h-275l-10 50l81 26c68 164 136 350 201 526l29 98c47 6 124 11 169 12c8 -32 21 -67 37 -112c67 -182 146 -393 197 -524l82 -26l-10 -50h-304l-11 50l100 26c-17 45 -36 98 -56 157l-270 -5
c-18 -52 -34 -104 -50 -152zM276 306l221 -3c-35 98 -74 206 -115 314c-36 -101 -72 -207 -106 -311z" />
    <glyph glyph-name="Aogonek" unicode="&#x104;" horiz-adv-x="810" 
d="M303 50l-11 -50h-275l-10 50l81 26c68 164 136 350 201 526l29 98c47 6 124 11 169 12c8 -32 21 -67 37 -112c67 -182 146 -393 197 -524l82 -26l-10 -50c-75 -53 -115 -95 -115 -135c0 -14 5 -24 18 -29c32 5 64 16 89 24l18 -45c-26 -27 -69 -52 -119 -58
c-65 1 -105 33 -105 86c0 59 43 113 113 157h-203l-11 50l100 26c-17 45 -36 98 -56 157l-270 -5c-18 -52 -34 -104 -50 -152zM276 306l221 -3c-35 98 -74 206 -115 314c-36 -101 -72 -207 -106 -311z" />
    <glyph glyph-name="Aring" unicode="&#xc5;" horiz-adv-x="810" 
d="M403 768c-59 0 -110 46 -110 108c0 55 51 108 110 108s107 -53 107 -108c0 -62 -48 -108 -107 -108zM403 835c22 0 40 17 40 41c0 21 -18 40 -40 40c-24 0 -42 -19 -42 -40c0 -24 18 -41 42 -41zM303 50l-11 -50h-275l-10 50l81 26c68 164 136 350 201 526l29 98
c47 6 124 11 169 12c8 -32 21 -67 37 -112c67 -182 146 -393 197 -524l82 -26l-10 -50h-304l-11 50l100 26c-17 45 -36 98 -56 157l-270 -5c-18 -52 -34 -104 -50 -152zM276 306l221 -3c-35 98 -74 206 -115 314c-36 -101 -72 -207 -106 -311z" />
    <glyph glyph-name="Aringacute" unicode="&#x1fa;" horiz-adv-x="810" 
d="M220 1067c93 56 213 117 318 165c18 -25 38 -65 46 -96l-17 -28l-320 -90l-15 7zM403 768c-59 0 -110 46 -110 108c0 55 51 108 110 108s107 -53 107 -108c0 -62 -48 -108 -107 -108zM403 835c22 0 40 17 40 41c0 21 -18 40 -40 40c-24 0 -42 -19 -42 -40
c0 -24 18 -41 42 -41zM303 50l-11 -50h-275l-10 50l81 26c68 164 136 350 201 526l29 98c47 6 124 11 169 12c8 -32 21 -67 37 -112c67 -182 146 -393 197 -524l82 -26l-10 -50h-304l-11 50l100 26c-17 45 -36 98 -56 157l-270 -5c-18 -52 -34 -104 -50 -152zM276 306
l221 -3c-35 98 -74 206 -115 314c-36 -101 -72 -207 -106 -311z" />
    <glyph glyph-name="Atilde" unicode="&#xc3;" horiz-adv-x="810" 
d="M165 820c29 46 102 138 126 138c49 0 154 -40 220 -62l92 76l36 -28v-26c-34 -55 -93 -133 -131 -133c-44 0 -146 56 -221 75l-73 -71l-17 2zM303 50l-11 -50h-275l-10 50l81 26c68 164 136 350 201 526l29 98c47 6 124 11 169 12c8 -32 21 -67 37 -112
c67 -182 146 -393 197 -524l82 -26l-10 -50h-304l-11 50l100 26c-17 45 -36 98 -56 157l-270 -5c-18 -52 -34 -104 -50 -152zM276 306l221 -3c-35 98 -74 206 -115 314c-36 -101 -72 -207 -106 -311z" />
    <glyph glyph-name="AE" unicode="&#xc6;" horiz-adv-x="1092" 
d="M1033 0h-581l-11 50l91 26c2 17 5 137 5 187v31l-205 -3c-50 -88 -96 -169 -125 -219l87 -22l-11 -50h-275l-10 50l88 29c120 182 227 362 330 531l47 90h251c120 0 217 2 296 8c7 -9 20 -27 24 -35c-7 -48 -20 -125 -28 -171c-19 -1 -59 1 -79 5l-21 121
c-33 3 -81 4 -123 4c-41 0 -78 -1 -110 -2c-2 -21 -5 -153 -5 -203v-59l222 9l17 -20c-3 -17 -8 -48 -12 -66l-227 7v-52c0 -58 -2 -148 9 -164c11 -12 74 -15 119 -15c44 0 91 4 123 8l28 123c20 1 66 -1 86 -4c2 -63 2 -128 0 -194zM376 366l161 -1v265h-9
c-37 -62 -94 -162 -152 -264z" />
    <glyph glyph-name="AEacute" unicode="&#x1fc;" horiz-adv-x="1092" 
d="M541 821c93 57 213 118 318 166c18 -25 38 -65 46 -96l-17 -29l-320 -89l-16 7zM1033 0h-581l-11 50l91 26c2 17 5 137 5 187v31l-205 -3c-50 -88 -96 -169 -125 -219l87 -22l-11 -50h-275l-10 50l88 29c120 182 227 362 330 531l47 90h251c120 0 217 2 296 8
c7 -9 20 -27 24 -35c-7 -48 -20 -125 -28 -171c-19 -1 -59 1 -79 5l-21 121c-33 3 -81 4 -123 4c-41 0 -78 -1 -110 -2c-2 -21 -5 -153 -5 -203v-59l222 9l17 -20c-3 -17 -8 -48 -12 -66l-227 7v-52c0 -58 -2 -148 9 -164c11 -12 74 -15 119 -15c44 0 91 4 123 8l28 123
c20 1 66 -1 86 -4c2 -63 2 -128 0 -194zM376 366l161 -1v265h-9c-37 -62 -94 -162 -152 -264z" />
    <glyph glyph-name="B" unicode="B" horiz-adv-x="748" 
d="M66 50l90 26c3 17 6 137 6 187v180c0 62 0 163 -8 174c-9 12 -55 24 -88 33l11 50h140c34 0 144 6 189 6c159 0 258 -60 258 -182c0 -78 -52 -131 -111 -162c81 -20 149 -75 149 -171c0 -131 -119 -199 -258 -199c-64 0 -151 8 -220 8h-147zM292 437v-49l161 -6
c38 21 76 69 76 132c0 43 -13 71 -29 91c-26 20 -65 29 -111 29c-27 0 -67 -5 -91 -10c-3 -19 -6 -137 -6 -187zM300 83c10 -13 69 -19 118 -19c28 0 66 4 93 13c31 22 54 63 54 114c0 70 -46 118 -137 118h-136v-52c0 -62 -1 -163 8 -174z" />
    <glyph glyph-name="C" unicode="C" horiz-adv-x="729" 
d="M419 75c59 0 101 10 125 27c7 29 18 69 30 125c17 1 72 -1 89 -4c3 -38 3 -105 3 -142l-13 -27c-56 -38 -146 -69 -248 -69c-214 0 -349 135 -349 357c0 225 162 373 367 373c92 0 168 -25 233 -58l14 -27c-8 -52 -21 -123 -30 -173c-18 -1 -63 0 -83 4
c-9 60 -20 114 -25 142c-28 16 -69 26 -115 26c-58 0 -109 -15 -144 -40c-46 -55 -78 -136 -78 -239c0 -167 82 -275 224 -275z" />
    <glyph glyph-name="Cacute" unicode="&#x106;" horiz-adv-x="729" 
d="M215 821c92 57 213 118 317 166c19 -25 38 -65 46 -96l-16 -29l-321 -89l-15 7zM419 75c59 0 101 10 125 27c7 29 18 69 30 125c17 1 72 -1 89 -4c3 -38 3 -105 3 -142l-13 -27c-56 -38 -146 -69 -248 -69c-214 0 -349 135 -349 357c0 225 162 373 367 373
c92 0 168 -25 233 -58l14 -27c-8 -52 -21 -123 -30 -173c-18 -1 -63 0 -83 4c-9 60 -20 114 -25 142c-28 16 -69 26 -115 26c-58 0 -109 -15 -144 -40c-46 -55 -78 -136 -78 -239c0 -167 82 -275 224 -275z" />
    <glyph glyph-name="Ccaron" unicode="&#x10c;" horiz-adv-x="729" 
d="M621 960c-55 -61 -121 -129 -184 -188h-83c-41 38 -146 145 -181 186l25 37l16 3l184 -124l182 125l17 -4zM419 75c59 0 101 10 125 27c7 29 18 69 30 125c17 1 72 -1 89 -4c3 -38 3 -105 3 -142l-13 -27c-56 -38 -146 -69 -248 -69c-214 0 -349 135 -349 357
c0 225 162 373 367 373c92 0 168 -25 233 -58l14 -27c-8 -52 -21 -123 -30 -173c-18 -1 -63 0 -83 4c-9 60 -20 114 -25 142c-28 16 -69 26 -115 26c-58 0 -109 -15 -144 -40c-46 -55 -78 -136 -78 -239c0 -167 82 -275 224 -275z" />
    <glyph glyph-name="Ccedilla" unicode="&#xc7;" horiz-adv-x="729" 
d="M419 75c59 0 101 10 125 27c7 29 18 69 30 125c17 1 72 -1 89 -4c3 -38 3 -105 3 -142l-13 -27c-53 -35 -135 -65 -230 -69l-16 -54c9 2 19 3 29 3c65 0 106 -32 106 -85c0 -67 -45 -109 -140 -110c-51 1 -88 10 -116 25l17 52c29 -7 54 -10 79 -10c17 0 32 1 45 6
c6 8 8 16 8 27c0 22 -15 34 -51 34c-15 0 -29 -2 -41 -5l-22 20l31 100c-183 21 -296 151 -296 354c0 225 162 373 367 373c92 0 168 -25 233 -58l14 -27c-8 -52 -21 -123 -30 -173c-18 -1 -63 0 -83 4c-9 60 -20 114 -25 142c-28 16 -69 26 -115 26
c-58 0 -109 -15 -144 -40c-46 -55 -78 -136 -78 -239c0 -167 82 -275 224 -275z" />
    <glyph glyph-name="Ccircumflex" unicode="&#x108;" horiz-adv-x="729" 
d="M172 800c55 61 121 129 183 188l84 1c41 -39 146 -146 181 -186l-25 -38l-16 -3l-184 124l-182 -124l-17 3zM419 75c59 0 101 10 125 27c7 29 18 69 30 125c17 1 72 -1 89 -4c3 -38 3 -105 3 -142l-13 -27c-56 -38 -146 -69 -248 -69c-214 0 -349 135 -349 357
c0 225 162 373 367 373c92 0 168 -25 233 -58l14 -27c-8 -52 -21 -123 -30 -173c-18 -1 -63 0 -83 4c-9 60 -20 114 -25 142c-28 16 -69 26 -115 26c-58 0 -109 -15 -144 -40c-46 -55 -78 -136 -78 -239c0 -167 82 -275 224 -275z" />
    <glyph glyph-name="Cdotaccent" unicode="&#x10a;" horiz-adv-x="729" 
d="M399 968c32 0 81 -41 81 -80s-49 -85 -84 -85c-36 0 -84 39 -84 78s51 87 87 87zM419 75c59 0 101 10 125 27c7 29 18 69 30 125c17 1 72 -1 89 -4c3 -38 3 -105 3 -142l-13 -27c-56 -38 -146 -69 -248 -69c-214 0 -349 135 -349 357c0 225 162 373 367 373
c92 0 168 -25 233 -58l14 -27c-8 -52 -21 -123 -30 -173c-18 -1 -63 0 -83 4c-9 60 -20 114 -25 142c-28 16 -69 26 -115 26c-58 0 -109 -15 -144 -40c-46 -55 -78 -136 -78 -239c0 -167 82 -275 224 -275z" />
    <glyph glyph-name="D" unicode="D" horiz-adv-x="835" 
d="M66 50l90 26c3 17 6 137 6 187v180c0 62 0 163 -8 174c-9 12 -55 24 -88 33l11 50h137c35 0 143 6 192 6c277 0 373 -166 373 -354c0 -240 -156 -360 -347 -360c-66 0 -150 8 -211 8h-144zM292 257c0 -60 0 -156 8 -173c15 -15 141 -32 212 -5c83 44 129 137 131 273
c0 114 -44 202 -90 240c-41 25 -92 38 -157 38c-35 0 -66 -2 -98 -7c-3 -20 -6 -136 -6 -186v-180z" />
    <glyph glyph-name="Dcaron" unicode="&#x10e;" horiz-adv-x="835" 
d="M636 960c-55 -61 -121 -129 -183 -188h-84c-41 38 -146 145 -181 186l25 37l16 3l184 -124l182 125l17 -4zM66 50l90 26c3 17 6 137 6 187v180c0 62 0 163 -8 174c-9 12 -55 24 -88 33l11 50h137c35 0 143 6 192 6c277 0 373 -166 373 -354c0 -240 -156 -360 -347 -360
c-66 0 -150 8 -211 8h-144zM292 257c0 -60 0 -156 8 -173c15 -15 141 -32 212 -5c83 44 129 137 131 273c0 114 -44 202 -90 240c-41 25 -92 38 -157 38c-35 0 -66 -2 -98 -7c-3 -20 -6 -136 -6 -186v-180z" />
    <glyph glyph-name="Ddotbelow" unicode="&#x1e0c;" horiz-adv-x="835" 
d="M66 50l90 26c3 17 6 137 6 187v180c0 62 0 163 -8 174c-9 12 -55 24 -88 33l11 50h137c35 0 143 6 192 6c277 0 373 -166 373 -354c0 -240 -156 -360 -347 -360c-66 0 -150 8 -211 8h-144zM292 257c0 -60 0 -156 8 -173c15 -15 141 -32 212 -5c83 44 129 137 131 273
c0 114 -44 202 -90 240c-41 25 -92 38 -157 38c-35 0 -66 -2 -98 -7c-3 -20 -6 -136 -6 -186v-180zM416 -85c33 0 81 -41 81 -80s-48 -85 -83 -85c-36 0 -85 39 -85 78s52 87 87 87z" />
    <glyph glyph-name="Dcroat" unicode="&#x110;" horiz-adv-x="835" 
d="M66 50l90 26c3 17 6 137 6 187v49h-98l-15 16s9 53 9 54h104v61c0 62 0 163 -8 174c-9 12 -55 24 -88 33l11 50h137c35 0 143 6 192 6c277 0 373 -166 373 -354c0 -240 -156 -360 -347 -360c-66 0 -150 8 -211 8h-144zM292 257c0 -60 0 -156 8 -173
c15 -15 141 -32 212 -5c83 44 129 137 131 273c0 114 -44 202 -90 240c-41 25 -92 38 -157 38c-35 0 -66 -2 -98 -7c-3 -20 -6 -136 -6 -186v-55h184l16 -15s-10 -54 -10 -55h-190v-55z" />
    <glyph glyph-name="E" unicode="E" horiz-adv-x="723" 
d="M66 50l90 26c3 17 6 137 6 187v180c0 62 0 165 -9 175c-10 12 -55 24 -87 32l11 50h261c120 0 217 2 297 8c7 -9 19 -27 24 -35c-7 -48 -21 -125 -28 -171c-19 -1 -59 1 -80 5l-21 121c-33 3 -80 4 -123 4c-40 0 -77 -1 -109 -2c-2 -21 -6 -142 -6 -192v-59l223 9l17 -20
c-3 -17 -9 -49 -12 -66l-228 7v-52c0 -62 -1 -158 9 -175c11 -12 75 -15 120 -15c44 0 90 4 123 8l28 123c20 1 66 -1 85 -4c3 -63 3 -128 0 -194h-580z" />
    <glyph glyph-name="Eacute" unicode="&#xc9;" horiz-adv-x="723" 
d="M200 821c93 57 213 118 318 166c18 -25 37 -65 46 -96l-17 -29l-321 -89l-15 7zM66 50l90 26c3 17 6 137 6 187v180c0 62 0 165 -9 175c-10 12 -55 24 -87 32l11 50h261c120 0 217 2 297 8c7 -9 19 -27 24 -35c-7 -48 -21 -125 -28 -171c-19 -1 -59 1 -80 5l-21 121
c-33 3 -80 4 -123 4c-40 0 -77 -1 -109 -2c-2 -21 -6 -142 -6 -192v-59l223 9l17 -20c-3 -17 -9 -49 -12 -66l-228 7v-52c0 -62 -1 -158 9 -175c11 -12 75 -15 120 -15c44 0 90 4 123 8l28 123c20 1 66 -1 85 -4c3 -63 3 -128 0 -194h-580z" />
    <glyph glyph-name="Ebreve" unicode="&#x114;" horiz-adv-x="723" 
d="M383 881c71 0 115 34 140 104l35 -6l10 -15c-11 -126 -91 -190 -190 -190c-104 0 -174 72 -184 203l47 7c25 -67 67 -103 142 -103zM66 50l90 26c3 17 6 137 6 187v180c0 62 0 165 -9 175c-10 12 -55 24 -87 32l11 50h261c120 0 217 2 297 8c7 -9 19 -27 24 -35
c-7 -48 -21 -125 -28 -171c-19 -1 -59 1 -80 5l-21 121c-33 3 -80 4 -123 4c-40 0 -77 -1 -109 -2c-2 -21 -6 -142 -6 -192v-59l223 9l17 -20c-3 -17 -9 -49 -12 -66l-228 7v-52c0 -62 -1 -158 9 -175c11 -12 75 -15 120 -15c44 0 90 4 123 8l28 123c20 1 66 -1 85 -4
c3 -63 3 -128 0 -194h-580z" />
    <glyph glyph-name="Ecaron" unicode="&#x11a;" horiz-adv-x="723" 
d="M606 960c-55 -61 -121 -129 -183 -188h-83c-41 38 -147 145 -182 186l25 37l17 3l184 -124l181 125l17 -4zM66 50l90 26c3 17 6 137 6 187v180c0 62 0 165 -9 175c-10 12 -55 24 -87 32l11 50h261c120 0 217 2 297 8c7 -9 19 -27 24 -35c-7 -48 -21 -125 -28 -171
c-19 -1 -59 1 -80 5l-21 121c-33 3 -80 4 -123 4c-40 0 -77 -1 -109 -2c-2 -21 -6 -142 -6 -192v-59l223 9l17 -20c-3 -17 -9 -49 -12 -66l-228 7v-52c0 -62 -1 -158 9 -175c11 -12 75 -15 120 -15c44 0 90 4 123 8l28 123c20 1 66 -1 85 -4c3 -63 3 -128 0 -194h-580z" />
    <glyph glyph-name="Ecircumflex" unicode="&#xca;" horiz-adv-x="723" 
d="M157 800c55 61 121 129 184 188l83 1c41 -39 146 -146 181 -186l-25 -38l-16 -3l-184 124l-182 -124l-17 3zM66 50l90 26c3 17 6 137 6 187v180c0 62 0 165 -9 175c-10 12 -55 24 -87 32l11 50h261c120 0 217 2 297 8c7 -9 19 -27 24 -35c-7 -48 -21 -125 -28 -171
c-19 -1 -59 1 -80 5l-21 121c-33 3 -80 4 -123 4c-40 0 -77 -1 -109 -2c-2 -21 -6 -142 -6 -192v-59l223 9l17 -20c-3 -17 -9 -49 -12 -66l-228 7v-52c0 -62 -1 -158 9 -175c11 -12 75 -15 120 -15c44 0 90 4 123 8l28 123c20 1 66 -1 85 -4c3 -63 3 -128 0 -194h-580z" />
    <glyph glyph-name="Edieresis" unicode="&#xcb;" horiz-adv-x="723" 
d="M336 880c0 -37 -43 -83 -75 -83c-41 0 -86 34 -86 70c0 45 44 89 80 89c34 0 81 -36 81 -76zM588 880c0 -37 -42 -83 -74 -83c-42 0 -87 34 -87 70c0 45 44 89 81 89c34 0 80 -36 80 -76zM66 50l90 26c3 17 6 137 6 187v180c0 62 0 165 -9 175c-10 12 -55 24 -87 32
l11 50h261c120 0 217 2 297 8c7 -9 19 -27 24 -35c-7 -48 -21 -125 -28 -171c-19 -1 -59 1 -80 5l-21 121c-33 3 -80 4 -123 4c-40 0 -77 -1 -109 -2c-2 -21 -6 -142 -6 -192v-59l223 9l17 -20c-3 -17 -9 -49 -12 -66l-228 7v-52c0 -62 -1 -158 9 -175
c11 -12 75 -15 120 -15c44 0 90 4 123 8l28 123c20 1 66 -1 85 -4c3 -63 3 -128 0 -194h-580z" />
    <glyph glyph-name="Edotaccent" unicode="&#x116;" horiz-adv-x="723" 
d="M384 953c33 0 81 -41 81 -79c0 -40 -48 -86 -84 -86s-84 39 -84 78c0 40 52 87 87 87zM66 50l90 26c3 17 6 137 6 187v180c0 62 0 165 -9 175c-10 12 -55 24 -87 32l11 50h261c120 0 217 2 297 8c7 -9 19 -27 24 -35c-7 -48 -21 -125 -28 -171c-19 -1 -59 1 -80 5
l-21 121c-33 3 -80 4 -123 4c-40 0 -77 -1 -109 -2c-2 -21 -6 -142 -6 -192v-59l223 9l17 -20c-3 -17 -9 -49 -12 -66l-228 7v-52c0 -62 -1 -158 9 -175c11 -12 75 -15 120 -15c44 0 90 4 123 8l28 123c20 1 66 -1 85 -4c3 -63 3 -128 0 -194h-580z" />
    <glyph glyph-name="Edotbelow" unicode="&#x1eb8;" horiz-adv-x="723" 
d="M66 50l90 26c3 17 6 137 6 187v180c0 62 0 165 -9 175c-10 12 -55 24 -87 32l11 50h261c120 0 217 2 297 8c7 -9 19 -27 24 -35c-7 -48 -21 -125 -28 -171c-19 -1 -59 1 -80 5l-21 121c-33 3 -80 4 -123 4c-40 0 -77 -1 -109 -2c-2 -21 -6 -142 -6 -192v-59l223 9l17 -20
c-3 -17 -9 -49 -12 -66l-228 7v-52c0 -62 -1 -158 9 -175c11 -12 75 -15 120 -15c44 0 90 4 123 8l28 123c20 1 66 -1 85 -4c3 -63 3 -128 0 -194h-580zM401 -85c33 0 81 -41 81 -80s-48 -85 -84 -85s-85 39 -85 78s53 87 88 87z" />
    <glyph glyph-name="Egrave" unicode="&#xc8;" horiz-adv-x="723" 
d="M563 821l-11 -41l-15 -7l-321 89l-16 29c8 31 28 71 46 96c104 -48 225 -109 317 -166zM66 50l90 26c3 17 6 137 6 187v180c0 62 0 165 -9 175c-10 12 -55 24 -87 32l11 50h261c120 0 217 2 297 8c7 -9 19 -27 24 -35c-7 -48 -21 -125 -28 -171c-19 -1 -59 1 -80 5
l-21 121c-33 3 -80 4 -123 4c-40 0 -77 -1 -109 -2c-2 -21 -6 -142 -6 -192v-59l223 9l17 -20c-3 -17 -9 -49 -12 -66l-228 7v-52c0 -62 -1 -158 9 -175c11 -12 75 -15 120 -15c44 0 90 4 123 8l28 123c20 1 66 -1 85 -4c3 -63 3 -128 0 -194h-580z" />
    <glyph glyph-name="Emacron" unicode="&#x112;" horiz-adv-x="723" 
d="M596 923v-87l-414 -3l-15 15l9 78zM66 50l90 26c3 17 6 137 6 187v180c0 62 0 165 -9 175c-10 12 -55 24 -87 32l11 50h261c120 0 217 2 297 8c7 -9 19 -27 24 -35c-7 -48 -21 -125 -28 -171c-19 -1 -59 1 -80 5l-21 121c-33 3 -80 4 -123 4c-40 0 -77 -1 -109 -2
c-2 -21 -6 -142 -6 -192v-59l223 9l17 -20c-3 -17 -9 -49 -12 -66l-228 7v-52c0 -62 -1 -158 9 -175c11 -12 75 -15 120 -15c44 0 90 4 123 8l28 123c20 1 66 -1 85 -4c3 -63 3 -128 0 -194h-580z" />
    <glyph glyph-name="Eogonek" unicode="&#x118;" horiz-adv-x="723" 
d="M66 50l90 26c3 17 6 137 6 187v180c0 62 0 165 -9 175c-10 12 -55 24 -87 32l11 50h261c120 0 217 2 297 8c7 -9 19 -27 24 -35c-7 -48 -21 -125 -28 -171c-19 -1 -59 1 -80 5l-21 121c-33 3 -80 4 -123 4c-40 0 -77 -1 -109 -2c-2 -21 -6 -142 -6 -192v-59l223 9l17 -20
c-3 -17 -9 -49 -12 -66l-228 7v-52c0 -62 -1 -158 9 -175c11 -12 75 -15 120 -15c44 0 90 4 123 8l28 123c20 1 66 -1 85 -4c3 -63 3 -128 0 -194c-75 -53 -115 -95 -115 -135c0 -14 6 -24 18 -29c32 5 65 16 89 24l18 -45c-26 -27 -69 -52 -118 -58c-65 1 -106 33 -106 86
c0 59 43 113 113 157h-479z" />
    <glyph glyph-name="Etilde" unicode="&#x1ebc;" horiz-adv-x="723" 
d="M145 820c29 46 102 138 126 138c49 0 153 -40 220 -62l91 76l37 -28v-26c-34 -55 -93 -133 -131 -133c-45 0 -147 56 -221 75l-74 -71l-17 2zM66 50l90 26c3 17 6 137 6 187v180c0 62 0 165 -9 175c-10 12 -55 24 -87 32l11 50h261c120 0 217 2 297 8c7 -9 19 -27 24 -35
c-7 -48 -21 -125 -28 -171c-19 -1 -59 1 -80 5l-21 121c-33 3 -80 4 -123 4c-40 0 -77 -1 -109 -2c-2 -21 -6 -142 -6 -192v-59l223 9l17 -20c-3 -17 -9 -49 -12 -66l-228 7v-52c0 -62 -1 -158 9 -175c11 -12 75 -15 120 -15c44 0 90 4 123 8l28 123c20 1 66 -1 85 -4
c3 -63 3 -128 0 -194h-580z" />
    <glyph glyph-name="Eth" unicode="&#xd0;" horiz-adv-x="835" 
d="M66 50l90 26c3 17 6 137 6 187v49h-98l-15 16s9 53 9 54h104v61c0 62 0 163 -8 174c-9 12 -55 24 -88 33l11 50h137c35 0 143 6 192 6c277 0 373 -166 373 -354c0 -240 -156 -360 -347 -360c-66 0 -150 8 -211 8h-144zM292 257c0 -60 0 -156 8 -173
c15 -15 141 -32 212 -5c83 44 129 137 131 273c0 114 -44 202 -90 240c-41 25 -92 38 -157 38c-35 0 -66 -2 -98 -7c-3 -20 -6 -136 -6 -186v-55h184l16 -15s-10 -54 -10 -55h-190v-55z" />
    <glyph glyph-name="F" unicode="F" horiz-adv-x="681" 
d="M66 50l90 26c3 17 6 137 6 187v180c0 62 0 165 -9 175c-10 12 -55 24 -87 32l11 50h261c118 0 213 2 292 8c7 -9 19 -27 24 -35c-7 -48 -21 -125 -28 -171c-19 -1 -59 1 -80 5l-21 120c-32 4 -77 5 -118 5c-40 0 -76 -1 -109 -2c-2 -21 -6 -142 -6 -192v-75l223 9l17 -21
c-3 -17 -8 -48 -12 -66l-228 7v-35c0 -60 -1 -164 9 -176c12 -12 75 -21 119 -31l-11 -50h-332z" />
    <glyph glyph-name="G" unicode="G" horiz-adv-x="796" 
d="M431 69c50 0 89 12 119 27c0 62 0 149 -6 161c-5 10 -59 22 -94 31l11 51h298l10 -51l-85 -24c-2 -24 -5 -136 -6 -186v-11c-59 -46 -158 -82 -263 -82c-220 0 -359 136 -359 358c0 230 169 372 383 372c93 0 174 -24 238 -58l15 -27c-8 -50 -24 -133 -31 -171
c-19 0 -64 0 -82 4c-11 62 -21 113 -26 139c-30 17 -72 29 -129 29c-51 0 -114 -16 -152 -43c-47 -56 -79 -136 -79 -237c0 -173 93 -282 238 -282z" />
    <glyph glyph-name="Gacute" unicode="&#x1f4;" horiz-adv-x="796" 
d="M227 822c93 57 213 117 318 166c18 -25 38 -66 46 -97l-17 -28l-320 -90l-16 7zM431 69c50 0 89 12 119 27c0 62 0 149 -6 161c-5 10 -59 22 -94 31l11 51h298l10 -51l-85 -24c-2 -24 -5 -136 -6 -186v-11c-59 -46 -158 -82 -263 -82c-220 0 -359 136 -359 358
c0 230 169 372 383 372c93 0 174 -24 238 -58l15 -27c-8 -50 -24 -133 -31 -171c-19 0 -64 0 -82 4c-11 62 -21 113 -26 139c-30 17 -72 29 -129 29c-51 0 -114 -16 -152 -43c-47 -56 -79 -136 -79 -237c0 -173 93 -282 238 -282z" />
    <glyph glyph-name="Gbreve" unicode="&#x11e;" horiz-adv-x="796" 
d="M420 881c71 0 115 34 140 105l35 -6l11 -16c-12 -125 -92 -189 -191 -189c-103 0 -174 72 -184 202l47 7c25 -66 67 -102 142 -103zM431 69c50 0 89 12 119 27c0 62 0 149 -6 161c-5 10 -59 22 -94 31l11 51h298l10 -51l-85 -24c-2 -24 -5 -136 -6 -186v-11
c-59 -46 -158 -82 -263 -82c-220 0 -359 136 -359 358c0 230 169 372 383 372c93 0 174 -24 238 -58l15 -27c-8 -50 -24 -133 -31 -171c-19 0 -64 0 -82 4c-11 62 -21 113 -26 139c-30 17 -72 29 -129 29c-51 0 -114 -16 -152 -43c-47 -56 -79 -136 -79 -237
c0 -173 93 -282 238 -282z" />
    <glyph glyph-name="Gcaron" unicode="&#x1e6;" horiz-adv-x="796" 
d="M643 961c-55 -62 -121 -129 -183 -188l-83 -1c-41 39 -147 146 -182 186l25 38l17 3l184 -124l181 124l17 -3zM431 69c50 0 89 12 119 27c0 62 0 149 -6 161c-5 10 -59 22 -94 31l11 51h298l10 -51l-85 -24c-2 -24 -5 -136 -6 -186v-11c-59 -46 -158 -82 -263 -82
c-220 0 -359 136 -359 358c0 230 169 372 383 372c93 0 174 -24 238 -58l15 -27c-8 -50 -24 -133 -31 -171c-19 0 -64 0 -82 4c-11 62 -21 113 -26 139c-30 17 -72 29 -129 29c-51 0 -114 -16 -152 -43c-47 -56 -79 -136 -79 -237c0 -173 93 -282 238 -282z" />
    <glyph glyph-name="Gcircumflex" unicode="&#x11c;" horiz-adv-x="796" 
d="M195 800c55 62 121 130 183 189h83c41 -38 146 -145 182 -186l-25 -37l-17 -3l-184 124l-182 -125l-16 4zM431 69c50 0 89 12 119 27c0 62 0 149 -6 161c-5 10 -59 22 -94 31l11 51h298l10 -51l-85 -24c-2 -24 -5 -136 -6 -186v-11c-59 -46 -158 -82 -263 -82
c-220 0 -359 136 -359 358c0 230 169 372 383 372c93 0 174 -24 238 -58l15 -27c-8 -50 -24 -133 -31 -171c-19 0 -64 0 -82 4c-11 62 -21 113 -26 139c-30 17 -72 29 -129 29c-51 0 -114 -16 -152 -43c-47 -56 -79 -136 -79 -237c0 -173 93 -282 238 -282z" />
    <glyph glyph-name="Gcommaaccent" unicode="&#x122;" horiz-adv-x="796" 
d="M431 69c50 0 89 12 119 27c0 62 0 149 -6 161c-5 10 -59 22 -94 31l11 51h298l10 -51l-85 -24c-2 -24 -5 -136 -6 -186v-11c-59 -46 -158 -82 -263 -82c-220 0 -359 136 -359 358c0 230 169 372 383 372c93 0 174 -24 238 -58l15 -27c-8 -50 -24 -133 -31 -171
c-19 0 -64 0 -82 4c-11 62 -21 113 -26 139c-30 17 -72 29 -129 29c-51 0 -114 -16 -152 -43c-47 -56 -79 -136 -79 -237c0 -173 93 -282 238 -282zM417 -81c36 0 83 -38 83 -79c0 -67 -66 -166 -112 -221l-43 29c19 36 36 76 47 112c-32 10 -59 38 -59 67c0 47 45 92 84 92
z" />
    <glyph glyph-name="Gdotaccent" unicode="&#x120;" horiz-adv-x="796" 
d="M421 968c33 0 81 -41 81 -80s-48 -85 -83 -85c-36 0 -85 39 -85 78s52 87 87 87zM431 69c50 0 89 12 119 27c0 62 0 149 -6 161c-5 10 -59 22 -94 31l11 51h298l10 -51l-85 -24c-2 -24 -5 -136 -6 -186v-11c-59 -46 -158 -82 -263 -82c-220 0 -359 136 -359 358
c0 230 169 372 383 372c93 0 174 -24 238 -58l15 -27c-8 -50 -24 -133 -31 -171c-19 0 -64 0 -82 4c-11 62 -21 113 -26 139c-30 17 -72 29 -129 29c-51 0 -114 -16 -152 -43c-47 -56 -79 -136 -79 -237c0 -173 93 -282 238 -282z" />
    <glyph glyph-name="H" unicode="H" horiz-adv-x="927" 
d="M66 50l90 26c3 17 6 137 6 187v180c0 62 0 163 -8 174c-9 12 -55 24 -88 33l11 50h300l11 -50l-90 -26c-3 -17 -6 -137 -6 -187v-56l343 -3v65c0 62 0 163 -8 174c-9 12 -55 24 -88 33l11 50h300l11 -50l-90 -26c-3 -17 -6 -137 -6 -187v-180c0 -62 0 -163 8 -174
c9 -12 55 -24 88 -33l-11 -50h-300l-11 50l90 26c3 17 6 137 6 187v45l-343 -5v-46c0 -62 0 -163 8 -174c9 -12 55 -24 88 -33l-11 -50h-300z" />
    <glyph glyph-name="Hbar" unicode="&#x126;" horiz-adv-x="927" 
d="M66 50l90 26c3 17 6 137 6 187v212h-84l-15 16s9 51 9 52h89c-1 38 -3 69 -7 74c-9 12 -55 24 -88 33l11 50h300l11 -50l-90 -26c-2 -9 -3 -43 -4 -81h340c-1 38 -3 69 -7 74c-9 12 -55 24 -88 33l11 50h300l11 -50l-90 -26c-2 -9 -3 -43 -4 -81h81l15 -15s-9 -52 -9 -53
h-88c-1 -14 -1 -28 -1 -38v-180c0 -62 0 -163 8 -174c9 -12 55 -24 88 -33l-11 -50h-300l-11 50l90 26c3 17 6 137 6 187v45l-343 -5v-46c0 -62 0 -163 8 -174c9 -12 55 -24 88 -33l-11 -50h-300zM292 381l343 -3v97h-342c-1 -14 -1 -28 -1 -38v-56z" />
    <glyph glyph-name="Hcircumflex" unicode="&#x124;" horiz-adv-x="927" 
d="M239 800c55 61 121 129 183 188l84 1c41 -39 146 -146 181 -186l-25 -38l-16 -3l-184 124l-182 -124l-17 3zM66 50l90 26c3 17 6 137 6 187v180c0 62 0 163 -8 174c-9 12 -55 24 -88 33l11 50h300l11 -50l-90 -26c-3 -17 -6 -137 -6 -187v-56l343 -3v65
c0 62 0 163 -8 174c-9 12 -55 24 -88 33l11 50h300l11 -50l-90 -26c-3 -17 -6 -137 -6 -187v-180c0 -62 0 -163 8 -174c9 -12 55 -24 88 -33l-11 -50h-300l-11 50l90 26c3 17 6 137 6 187v45l-343 -5v-46c0 -62 0 -163 8 -174c9 -12 55 -24 88 -33l-11 -50h-300z" />
    <glyph glyph-name="Hdotbelow" unicode="&#x1e24;" horiz-adv-x="927" 
d="M66 50l90 26c3 17 6 137 6 187v180c0 62 0 163 -8 174c-9 12 -55 24 -88 33l11 50h300l11 -50l-90 -26c-3 -17 -6 -137 -6 -187v-56l343 -3v65c0 62 0 163 -8 174c-9 12 -55 24 -88 33l11 50h300l11 -50l-90 -26c-3 -17 -6 -137 -6 -187v-180c0 -62 0 -163 8 -174
c9 -12 55 -24 88 -33l-11 -50h-300l-11 50l90 26c3 17 6 137 6 187v45l-343 -5v-46c0 -62 0 -163 8 -174c9 -12 55 -24 88 -33l-11 -50h-300zM466 -85c33 0 81 -41 81 -80s-48 -85 -83 -85c-36 0 -85 39 -85 78s52 87 87 87z" />
    <glyph glyph-name="I" unicode="I" horiz-adv-x="454" 
d="M66 50l90 26c3 17 6 137 6 187v180c0 62 0 163 -8 174c-9 12 -55 24 -88 33l11 50h300l11 -50l-90 -26c-3 -17 -6 -137 -6 -187v-180c0 -62 0 -163 8 -174c9 -12 55 -24 88 -33l-11 -50h-300z" />
    <glyph glyph-name="Iacute" unicode="&#xcd;" horiz-adv-x="454" 
d="M46 821c93 57 213 118 318 166c18 -25 38 -65 46 -96l-17 -29l-321 -89l-15 7zM66 50l90 26c3 17 6 137 6 187v180c0 62 0 163 -8 174c-9 12 -55 24 -88 33l11 50h300l11 -50l-90 -26c-3 -17 -6 -137 -6 -187v-180c0 -62 0 -163 8 -174c9 -12 55 -24 88 -33l-11 -50h-300
z" />
    <glyph glyph-name="Ibreve" unicode="&#x12c;" horiz-adv-x="454" 
d="M229 881c71 0 115 34 140 104l35 -6l10 -15c-11 -126 -91 -190 -190 -190c-104 0 -174 72 -184 203l47 7c25 -67 67 -103 142 -103zM66 50l90 26c3 17 6 137 6 187v180c0 62 0 163 -8 174c-9 12 -55 24 -88 33l11 50h300l11 -50l-90 -26c-3 -17 -6 -137 -6 -187v-180
c0 -62 0 -163 8 -174c9 -12 55 -24 88 -33l-11 -50h-300z" />
    <glyph glyph-name="Icaron" unicode="&#x1cf;" horiz-adv-x="454" 
d="M452 960c-55 -61 -121 -129 -183 -188h-83c-41 38 -147 145 -182 186l25 37l17 3l184 -124l181 125l17 -4zM66 50l90 26c3 17 6 137 6 187v180c0 62 0 163 -8 174c-9 12 -55 24 -88 33l11 50h300l11 -50l-90 -26c-3 -17 -6 -137 -6 -187v-180c0 -62 0 -163 8 -174
c9 -12 55 -24 88 -33l-11 -50h-300z" />
    <glyph glyph-name="Icircumflex" unicode="&#xce;" horiz-adv-x="454" 
d="M3 800c55 61 122 129 184 188l83 1c41 -39 146 -146 181 -186l-25 -38l-16 -3l-184 124l-182 -124l-16 3zM66 50l90 26c3 17 6 137 6 187v180c0 62 0 163 -8 174c-9 12 -55 24 -88 33l11 50h300l11 -50l-90 -26c-3 -17 -6 -137 -6 -187v-180c0 -62 0 -163 8 -174
c9 -12 55 -24 88 -33l-11 -50h-300z" />
    <glyph glyph-name="Idieresis" unicode="&#xcf;" horiz-adv-x="454" 
d="M182 880c0 -37 -43 -83 -75 -83c-41 0 -86 34 -86 70c0 45 44 89 80 89c34 0 81 -36 81 -76zM434 880c0 -37 -42 -83 -74 -83c-42 0 -87 34 -87 70c0 45 44 89 81 89c34 0 80 -36 80 -76zM66 50l90 26c3 17 6 137 6 187v180c0 62 0 163 -8 174c-9 12 -55 24 -88 33l11 50
h300l11 -50l-90 -26c-3 -17 -6 -137 -6 -187v-180c0 -62 0 -163 8 -174c9 -12 55 -24 88 -33l-11 -50h-300z" />
    <glyph glyph-name="Idotaccent" unicode="&#x130;" horiz-adv-x="454" 
d="M230 953c33 0 81 -41 81 -79c0 -40 -48 -86 -84 -86s-84 39 -84 78c0 40 52 87 87 87zM66 50l90 26c3 17 6 137 6 187v180c0 62 0 163 -8 174c-9 12 -55 24 -88 33l11 50h300l11 -50l-90 -26c-3 -17 -6 -137 -6 -187v-180c0 -62 0 -163 8 -174c9 -12 55 -24 88 -33
l-11 -50h-300z" />
    <glyph glyph-name="Idotbelow" unicode="&#x1eca;" horiz-adv-x="454" 
d="M66 50l90 26c3 17 6 137 6 187v180c0 62 0 163 -8 174c-9 12 -55 24 -88 33l11 50h300l11 -50l-90 -26c-3 -17 -6 -137 -6 -187v-180c0 -62 0 -163 8 -174c9 -12 55 -24 88 -33l-11 -50h-300zM231 -85c32 0 81 -41 81 -80s-49 -85 -84 -85c-36 0 -85 39 -85 78
s52 87 88 87z" />
    <glyph glyph-name="Igrave" unicode="&#xcc;" horiz-adv-x="454" 
d="M409 821l-11 -41l-15 -7l-320 89l-17 29c8 31 28 71 46 96c104 -48 225 -109 317 -166zM66 50l90 26c3 17 6 137 6 187v180c0 62 0 163 -8 174c-9 12 -55 24 -88 33l11 50h300l11 -50l-90 -26c-3 -17 -6 -137 -6 -187v-180c0 -62 0 -163 8 -174c9 -12 55 -24 88 -33
l-11 -50h-300z" />
    <glyph glyph-name="Imacron" unicode="&#x12a;" horiz-adv-x="454" 
d="M442 923v-87l-414 -3l-15 15l10 78zM66 50l90 26c3 17 6 137 6 187v180c0 62 0 163 -8 174c-9 12 -55 24 -88 33l11 50h300l11 -50l-90 -26c-3 -17 -6 -137 -6 -187v-180c0 -62 0 -163 8 -174c9 -12 55 -24 88 -33l-11 -50h-300z" />
    <glyph glyph-name="Iogonek" unicode="&#x12e;" horiz-adv-x="454" 
d="M66 50l90 26c3 17 6 137 6 187v180c0 62 0 163 -8 174c-9 12 -55 24 -88 33l11 50h300l11 -50l-90 -26c-3 -17 -6 -137 -6 -187v-180c0 -62 0 -163 8 -174c9 -12 55 -24 88 -33l-11 -50c-75 -53 -115 -95 -115 -135c0 -14 6 -24 18 -29c33 5 65 16 89 24l18 -45
c-26 -27 -69 -52 -118 -58c-65 1 -106 33 -106 86c0 59 43 113 113 157h-199z" />
    <glyph glyph-name="Itilde" unicode="&#x128;" horiz-adv-x="454" 
d="M-9 820c29 46 102 138 126 138c49 0 154 -40 220 -62l91 76l37 -28v-26c-34 -55 -93 -133 -131 -133c-45 0 -147 56 -221 75l-74 -71l-17 2zM66 50l90 26c3 17 6 137 6 187v180c0 62 0 163 -8 174c-9 12 -55 24 -88 33l11 50h300l11 -50l-90 -26c-3 -17 -6 -137 -6 -187
v-180c0 -62 0 -163 8 -174c9 -12 55 -24 88 -33l-11 -50h-300z" />
    <glyph glyph-name="J" unicode="J" horiz-adv-x="429" 
d="M149 38c10 35 13 88 13 207v198c0 62 0 163 -8 174c-8 12 -54 24 -88 33l11 50h301l11 -50l-91 -26c-2 -17 -5 -137 -5 -187v-227c0 -165 -50 -225 -189 -337h-27c-20 21 -45 62 -56 90z" />
    <glyph glyph-name="Jcircumflex" unicode="&#x134;" horiz-adv-x="429" 
d="M-4 800c55 61 121 129 183 188l83 1c41 -39 147 -146 182 -186l-25 -38l-17 -3l-184 124l-181 -124l-17 3zM149 38c10 35 13 88 13 207v198c0 62 0 163 -8 174c-8 12 -54 24 -88 33l11 50h301l11 -50l-91 -26c-2 -17 -5 -137 -5 -187v-227c0 -165 -50 -225 -189 -337h-27
c-20 21 -45 62 -56 90z" />
    <glyph glyph-name="K" unicode="K" horiz-adv-x="820" 
d="M66 50l90 26c3 17 6 136 6 187v179c0 63 0 164 -8 175c-9 12 -55 24 -88 32l11 51h300l11 -51l-90 -26c-3 -17 -6 -136 -6 -186v-62l155 -6c55 99 104 180 147 257l-89 24l11 50h274l10 -50c-14 -7 -66 -23 -80 -29c-55 -77 -116 -157 -180 -255
c69 -112 140 -221 186 -287l79 -29l-11 -50c-61 0 -113 -1 -184 -4c-47 87 -104 183 -177 299h-141v-38c0 -62 0 -164 8 -175c9 -11 55 -23 88 -32l-11 -50h-300z" />
    <glyph glyph-name="Kcommaaccent" unicode="&#x136;" horiz-adv-x="820" 
d="M66 50l90 26c3 17 6 136 6 187v179c0 63 0 164 -8 175c-9 12 -55 24 -88 32l11 51h300l11 -51l-90 -26c-3 -17 -6 -136 -6 -186v-62l155 -6c55 99 104 180 147 257l-89 24l11 50h274l10 -50c-14 -7 -66 -23 -80 -29c-55 -77 -116 -157 -180 -255
c69 -112 140 -221 186 -287l79 -29l-11 -50c-61 0 -113 -1 -184 -4c-47 87 -104 183 -177 299h-141v-38c0 -62 0 -164 8 -175c9 -11 55 -23 88 -32l-11 -50h-300zM459 -81c36 0 83 -38 83 -79c0 -67 -66 -166 -112 -221l-43 29c19 36 36 76 47 112c-32 10 -59 38 -59 67
c0 47 45 92 84 92z" />
    <glyph glyph-name="L" unicode="L" horiz-adv-x="695" 
d="M66 50l90 26c3 17 6 137 6 187v180c0 62 0 163 -8 174c-9 12 -55 24 -88 33l11 50h300l11 -50l-90 -26c-3 -17 -6 -137 -6 -187v-180c0 -68 0 -162 10 -176c11 -10 74 -12 119 -12c40 0 82 2 112 5l31 133c19 1 66 0 85 -4c2 -64 1 -133 -2 -203h-570z" />
    <glyph glyph-name="Lacute" unicode="&#x139;" horiz-adv-x="695" 
d="M57 821c92 57 213 118 318 166c18 -25 37 -65 46 -96l-17 -29l-321 -89l-15 7zM66 50l90 26c3 17 6 137 6 187v180c0 62 0 163 -8 174c-9 12 -55 24 -88 33l11 50h300l11 -50l-90 -26c-3 -17 -6 -137 -6 -187v-180c0 -68 0 -162 10 -176c11 -10 74 -12 119 -12
c40 0 82 2 112 5l31 133c19 1 66 0 85 -4c2 -64 1 -133 -2 -203h-570z" />
    <glyph glyph-name="Lcaron" unicode="&#x13d;" horiz-adv-x="695" 
d="M545 712c42 0 83 -36 83 -83c0 -58 -54 -149 -96 -201l-44 18c12 41 30 96 35 134l-63 39c4 50 41 93 85 93zM66 50l90 26c3 17 6 137 6 187v180c0 62 0 163 -8 174c-9 12 -55 24 -88 33l11 50h300l11 -50l-90 -26c-3 -17 -6 -137 -6 -187v-180c0 -68 0 -162 10 -176
c11 -10 74 -12 119 -12c40 0 82 2 112 5l31 133c19 1 66 0 85 -4c2 -64 1 -133 -2 -203h-570z" />
    <glyph glyph-name="Lcommaaccent" unicode="&#x13b;" horiz-adv-x="695" 
d="M66 50l90 26c3 17 6 137 6 187v180c0 62 0 163 -8 174c-9 12 -55 24 -88 33l11 50h300l11 -50l-90 -26c-3 -17 -6 -137 -6 -187v-180c0 -68 0 -162 10 -176c11 -10 74 -12 119 -12c40 0 82 2 112 5l31 133c19 1 66 0 85 -4c2 -64 1 -133 -2 -203h-570zM368 -81
c37 0 83 -38 83 -79c0 -67 -65 -166 -112 -221l-42 29c18 36 36 76 46 112c-32 10 -59 38 -59 67c0 47 45 92 84 92z" />
    <glyph glyph-name="Ldot" unicode="&#x13f;" horiz-adv-x="695" 
d="M66 50l90 26c3 17 6 137 6 187v180c0 62 0 163 -8 174c-9 12 -55 24 -88 33l11 50h300l11 -50l-90 -26c-3 -17 -6 -137 -6 -187v-180c0 -68 0 -162 10 -176c11 -10 74 -12 119 -12c40 0 82 2 112 5l31 133c19 1 66 0 85 -4c2 -64 1 -133 -2 -203h-570zM580 501
c36 0 84 -38 84 -79c0 -38 -44 -86 -78 -86c-43 0 -90 35 -90 73c0 47 46 92 84 92z" />
    <glyph glyph-name="Lslash" unicode="&#x141;" horiz-adv-x="695" 
d="M66 50l90 26c3 16 6 125 6 180l-82 -46l-20 6s-26 56 -27 57l129 72v98c0 62 0 163 -8 174c-9 12 -55 24 -88 33l11 50h300l11 -50l-90 -26c-3 -17 -6 -137 -6 -187v-19l142 80l21 -5s26 -57 26 -58l-189 -106v-72c0 -68 0 -162 10 -176c11 -10 74 -12 119 -12
c40 0 82 2 112 5l31 133c19 1 66 0 85 -4c2 -64 1 -133 -2 -203h-570z" />
    <glyph glyph-name="M" unicode="M" horiz-adv-x="1072" 
d="M337 50l-10 -50h-281l-10 50l93 26c6 59 16 189 23 302c9 141 13 216 5 235c-9 11 -58 28 -88 37l11 50h277c36 -104 115 -307 187 -467c69 168 154 369 186 467h264l11 -51l-96 -32l20 -347c5 -91 12 -168 23 -185c7 -13 53 -27 85 -35l-11 -50h-308l-11 50l103 26
c0 57 -18 329 -25 512l-213 -510c-34 -4 -69 -4 -103 0c-48 108 -146 348 -219 510l-12 -243c-5 -138 -12 -241 -5 -258c6 -18 60 -26 104 -37z" />
    <glyph glyph-name="N" unicode="N" horiz-adv-x="877" 
d="M733 6l-98 -10l-90 120c-92 123 -207 266 -299 380c2 -179 6 -393 16 -411c10 -14 69 -25 114 -35l-10 -50h-287l-10 50l89 26c4 34 7 125 7 270c-1 170 -2 254 -12 268c-16 12 -56 26 -87 36l10 50c63 0 136 2 194 3c69 -114 239 -326 381 -504c-1 206 -6 398 -17 416
c-8 13 -66 25 -105 35l11 50h285l11 -50l-90 -27c-8 -78 -13 -315 -13 -617z" />
    <glyph glyph-name="Nacute" unicode="&#x143;" horiz-adv-x="877" 
d="M270 821c92 57 213 118 317 166c18 -25 38 -65 46 -96l-16 -29l-321 -89l-15 7zM733 6l-98 -10l-90 120c-92 123 -207 266 -299 380c2 -179 6 -393 16 -411c10 -14 69 -25 114 -35l-10 -50h-287l-10 50l89 26c4 34 7 125 7 270c-1 170 -2 254 -12 268
c-16 12 -56 26 -87 36l10 50c63 0 136 2 194 3c69 -114 239 -326 381 -504c-1 206 -6 398 -17 416c-8 13 -66 25 -105 35l11 50h285l11 -50l-90 -27c-8 -78 -13 -315 -13 -617z" />
    <glyph glyph-name="Ncaron" unicode="&#x147;" horiz-adv-x="877" 
d="M661 960c-55 -61 -121 -129 -183 -188h-84c-40 38 -146 145 -181 186l25 37l17 3l183 -124l182 125l17 -4zM733 6l-98 -10l-90 120c-92 123 -207 266 -299 380c2 -179 6 -393 16 -411c10 -14 69 -25 114 -35l-10 -50h-287l-10 50l89 26c4 34 7 125 7 270
c-1 170 -2 254 -12 268c-16 12 -56 26 -87 36l10 50c63 0 136 2 194 3c69 -114 239 -326 381 -504c-1 206 -6 398 -17 416c-8 13 -66 25 -105 35l11 50h285l11 -50l-90 -27c-8 -78 -13 -315 -13 -617z" />
    <glyph glyph-name="Ncommaaccent" unicode="&#x145;" horiz-adv-x="877" 
d="M733 6l-98 -10l-90 120c-92 123 -207 266 -299 380c2 -179 6 -393 16 -411c10 -14 69 -25 114 -35l-10 -50h-287l-10 50l89 26c4 34 7 125 7 270c-1 170 -2 254 -12 268c-16 12 -56 26 -87 36l10 50c63 0 136 2 194 3c69 -114 239 -326 381 -504c-1 206 -6 398 -17 416
c-8 13 -66 25 -105 35l11 50h285l11 -50l-90 -27c-8 -78 -13 -315 -13 -617zM469 -81c36 0 83 -38 83 -79c-1 -67 -66 -166 -113 -221l-42 29c18 36 36 76 47 112c-32 10 -60 38 -60 67c0 47 46 92 85 92z" />
    <glyph glyph-name="Ndotaccent" unicode="&#x1e44;" horiz-adv-x="877" 
d="M441 953c32 0 81 -41 81 -79c0 -40 -49 -86 -84 -86c-36 0 -84 39 -84 78c0 40 51 87 87 87zM733 6l-98 -10l-90 120c-92 123 -207 266 -299 380c2 -179 6 -393 16 -411c10 -14 69 -25 114 -35l-10 -50h-287l-10 50l89 26c4 34 7 125 7 270c-1 170 -2 254 -12 268
c-16 12 -56 26 -87 36l10 50c63 0 136 2 194 3c69 -114 239 -326 381 -504c-1 206 -6 398 -17 416c-8 13 -66 25 -105 35l11 50h285l11 -50l-90 -27c-8 -78 -13 -315 -13 -617z" />
    <glyph glyph-name="Ntilde" unicode="&#xd1;" horiz-adv-x="877" 
d="M202 820c28 46 102 138 126 138c48 0 153 -40 219 -62l92 76l37 -28v-26c-35 -55 -93 -133 -132 -133c-44 0 -146 56 -220 75l-74 -71l-17 2zM733 6l-98 -10l-90 120c-92 123 -207 266 -299 380c2 -179 6 -393 16 -411c10 -14 69 -25 114 -35l-10 -50h-287l-10 50l89 26
c4 34 7 125 7 270c-1 170 -2 254 -12 268c-16 12 -56 26 -87 36l10 50c63 0 136 2 194 3c69 -114 239 -326 381 -504c-1 206 -6 398 -17 416c-8 13 -66 25 -105 35l11 50h285l11 -50l-90 -27c-8 -78 -13 -315 -13 -617z" />
    <glyph glyph-name="O" unicode="O" horiz-adv-x="794" 
d="M391 -15c-199 0 -335 135 -335 344c0 233 146 386 358 386c192 0 324 -136 324 -347c0 -223 -140 -383 -347 -383zM401 72c60 0 108 20 137 45c26 34 63 110 63 233c0 171 -62 278 -206 278c-54 0 -104 -20 -137 -44c-37 -51 -65 -132 -65 -242c0 -167 71 -270 208 -270z
" />
    <glyph glyph-name="Oacute" unicode="&#xd3;" horiz-adv-x="794" 
d="M217 821c93 57 214 117 318 165c18 -24 38 -65 46 -96l-17 -28l-320 -90l-15 7zM391 -15c-199 0 -335 135 -335 344c0 233 146 386 358 386c192 0 324 -136 324 -347c0 -223 -140 -383 -347 -383zM401 72c60 0 108 20 137 45c26 34 63 110 63 233c0 171 -62 278 -206 278
c-54 0 -104 -20 -137 -44c-37 -51 -65 -132 -65 -242c0 -167 71 -270 208 -270z" />
    <glyph glyph-name="Obreve" unicode="&#x14e;" horiz-adv-x="794" 
d="M400 880c71 0 115 34 140 104l35 -5l11 -16c-12 -126 -92 -190 -191 -190c-103 0 -174 72 -183 203l46 7c25 -67 67 -103 142 -103zM391 -15c-199 0 -335 135 -335 344c0 233 146 386 358 386c192 0 324 -136 324 -347c0 -223 -140 -383 -347 -383zM401 72
c60 0 108 20 137 45c26 34 63 110 63 233c0 171 -62 278 -206 278c-54 0 -104 -20 -137 -44c-37 -51 -65 -132 -65 -242c0 -167 71 -270 208 -270z" />
    <glyph glyph-name="Ocaron" unicode="&#x1d1;" horiz-adv-x="794" 
d="M623 960c-55 -62 -121 -129 -183 -189h-83c-41 39 -146 146 -182 186l25 37l17 3l184 -124l182 125l16 -4zM391 -15c-199 0 -335 135 -335 344c0 233 146 386 358 386c192 0 324 -136 324 -347c0 -223 -140 -383 -347 -383zM401 72c60 0 108 20 137 45
c26 34 63 110 63 233c0 171 -62 278 -206 278c-54 0 -104 -20 -137 -44c-37 -51 -65 -132 -65 -242c0 -167 71 -270 208 -270z" />
    <glyph glyph-name="Ocircumflex" unicode="&#xd4;" horiz-adv-x="794" 
d="M175 799c55 62 121 129 183 189h83c41 -39 147 -146 182 -186l-25 -37l-17 -3l-184 124l-181 -125l-17 4zM391 -15c-199 0 -335 135 -335 344c0 233 146 386 358 386c192 0 324 -136 324 -347c0 -223 -140 -383 -347 -383zM401 72c60 0 108 20 137 45
c26 34 63 110 63 233c0 171 -62 278 -206 278c-54 0 -104 -20 -137 -44c-37 -51 -65 -132 -65 -242c0 -167 71 -270 208 -270z" />
    <glyph glyph-name="Odieresis" unicode="&#xd6;" horiz-adv-x="794" 
d="M353 880c0 -38 -42 -84 -75 -84c-41 0 -86 34 -86 70c0 46 44 89 81 89c34 0 80 -36 80 -75zM605 880c0 -38 -42 -84 -74 -84c-42 0 -87 34 -87 70c0 46 45 89 81 89c34 0 80 -36 80 -75zM391 -15c-199 0 -335 135 -335 344c0 233 146 386 358 386
c192 0 324 -136 324 -347c0 -223 -140 -383 -347 -383zM401 72c60 0 108 20 137 45c26 34 63 110 63 233c0 171 -62 278 -206 278c-54 0 -104 -20 -137 -44c-37 -51 -65 -132 -65 -242c0 -167 71 -270 208 -270z" />
    <glyph glyph-name="Odotbelow" unicode="&#x1ecc;" horiz-adv-x="794" 
d="M391 -15c-199 0 -335 135 -335 344c0 233 146 386 358 386c192 0 324 -136 324 -347c0 -223 -140 -383 -347 -383zM401 72c60 0 108 20 137 45c26 34 63 110 63 233c0 171 -62 278 -206 278c-54 0 -104 -20 -137 -44c-37 -51 -65 -132 -65 -242c0 -167 71 -270 208 -270z
M394 -85c33 0 81 -41 81 -80s-48 -85 -83 -85c-36 0 -85 39 -85 78s52 87 87 87z" />
    <glyph glyph-name="Ograve" unicode="&#xd2;" horiz-adv-x="794" 
d="M581 821l-11 -42l-16 -7l-320 90l-17 28c8 31 28 72 46 96c105 -48 225 -108 318 -165zM391 -15c-199 0 -335 135 -335 344c0 233 146 386 358 386c192 0 324 -136 324 -347c0 -223 -140 -383 -347 -383zM401 72c60 0 108 20 137 45c26 34 63 110 63 233
c0 171 -62 278 -206 278c-54 0 -104 -20 -137 -44c-37 -51 -65 -132 -65 -242c0 -167 71 -270 208 -270z" />
    <glyph glyph-name="Ohungarumlaut" unicode="&#x150;" horiz-adv-x="794" 
d="M130 806c67 65 138 129 218 189c23 -21 50 -55 65 -84l-11 -32l-236 -115l-18 4zM397 806c67 65 138 129 218 189c23 -21 50 -55 65 -84l-11 -32l-236 -115l-18 4zM391 -15c-199 0 -335 135 -335 344c0 233 146 386 358 386c192 0 324 -136 324 -347
c0 -223 -140 -383 -347 -383zM401 72c60 0 108 20 137 45c26 34 63 110 63 233c0 171 -62 278 -206 278c-54 0 -104 -20 -137 -44c-37 -51 -65 -132 -65 -242c0 -167 71 -270 208 -270z" />
    <glyph glyph-name="Omacron" unicode="&#x14c;" horiz-adv-x="794" 
d="M613 922v-87l-414 -3l-15 15l10 78zM391 -15c-199 0 -335 135 -335 344c0 233 146 386 358 386c192 0 324 -136 324 -347c0 -223 -140 -383 -347 -383zM401 72c60 0 108 20 137 45c26 34 63 110 63 233c0 171 -62 278 -206 278c-54 0 -104 -20 -137 -44
c-37 -51 -65 -132 -65 -242c0 -167 71 -270 208 -270z" />
    <glyph glyph-name="Oogonek" unicode="&#x1ea;" horiz-adv-x="794" 
d="M391 -15c-199 0 -335 135 -335 344c0 233 146 386 358 386c192 0 324 -136 324 -347c0 -138 -54 -252 -144 -319c-114 -86 -148 -135 -148 -181c0 -15 5 -26 15 -32c34 5 68 18 94 27l18 -45c-27 -30 -71 -56 -122 -61c-64 1 -106 34 -106 89c0 48 26 94 84 141
c-12 -1 -25 -2 -38 -2zM401 72c60 0 108 20 137 45c26 34 63 110 63 233c0 171 -62 278 -206 278c-54 0 -104 -20 -137 -44c-37 -51 -65 -132 -65 -242c0 -167 71 -270 208 -270z" />
    <glyph glyph-name="Oslash" unicode="&#xd8;" horiz-adv-x="794" 
d="M40 29l79 85c-40 56 -63 129 -63 215c0 233 146 386 358 386c79 0 147 -23 201 -65l65 70l36 -2l37 -46l-78 -85c40 -57 63 -132 63 -219c0 -223 -140 -383 -347 -383c-83 0 -155 23 -211 66l-67 -72l-36 2c0 1 -36 47 -37 48zM193 342c0 -49 6 -92 18 -129l329 356
c-34 38 -81 59 -145 59c-54 0 -104 -20 -137 -44c-37 -51 -65 -132 -65 -242zM401 72c60 0 108 20 137 45c26 34 63 110 63 233c0 52 -6 98 -18 137l-328 -355c35 -39 84 -60 146 -60z" />
    <glyph glyph-name="Oslashacute" unicode="&#x1fe;" horiz-adv-x="794" 
d="M215 839c93 57 213 117 318 165c18 -25 37 -65 46 -96l-17 -28l-321 -90l-15 7zM40 29l79 85c-40 56 -63 129 -63 215c0 233 146 386 358 386c79 0 147 -23 201 -65l65 70l36 -2l37 -46l-78 -85c40 -57 63 -132 63 -219c0 -223 -140 -383 -347 -383
c-83 0 -155 23 -211 66l-67 -72l-36 2c0 1 -36 47 -37 48zM193 342c0 -49 6 -92 18 -129l329 356c-34 38 -81 59 -145 59c-54 0 -104 -20 -137 -44c-37 -51 -65 -132 -65 -242zM401 72c60 0 108 20 137 45c26 34 63 110 63 233c0 52 -6 98 -18 137l-328 -355
c35 -39 84 -60 146 -60z" />
    <glyph glyph-name="Otilde" unicode="&#xd5;" horiz-adv-x="794" 
d="M162 819c29 47 102 138 126 138c49 0 154 -40 220 -62l92 76l36 -28v-26c-34 -54 -93 -132 -131 -132c-44 0 -146 55 -221 74l-73 -70l-17 1zM391 -15c-199 0 -335 135 -335 344c0 233 146 386 358 386c192 0 324 -136 324 -347c0 -223 -140 -383 -347 -383zM401 72
c60 0 108 20 137 45c26 34 63 110 63 233c0 171 -62 278 -206 278c-54 0 -104 -20 -137 -44c-37 -51 -65 -132 -65 -242c0 -167 71 -270 208 -270z" />
    <glyph glyph-name="OE" unicode="&#x152;" horiz-adv-x="1083" 
d="M423 715c49 0 93 -5 131 -15h144c121 0 217 2 297 8c7 -9 19 -27 24 -35c-7 -48 -21 -125 -28 -171c-19 -1 -59 1 -80 5l-20 121c-33 3 -81 4 -123 4c-41 0 -78 -1 -110 -2c-2 -21 -6 -142 -6 -192v-59l223 9l17 -20c-3 -17 -9 -49 -12 -66l-228 7v-52
c0 -62 -1 -158 9 -175c11 -12 75 -15 120 -15c44 0 90 4 123 8l28 123c20 1 66 -1 85 -4c3 -63 3 -128 0 -194h-480c-40 -11 -84 -15 -130 -15c-208 0 -351 135 -351 344c0 233 150 386 367 386zM193 342c0 -167 76 -270 224 -270c38 0 72 4 100 11c2 32 5 134 5 180v180
c0 57 0 149 -7 171c-27 9 -60 14 -100 14c-62 0 -121 -18 -157 -44c-37 -51 -65 -132 -65 -242z" />
    <glyph glyph-name="P" unicode="P" horiz-adv-x="710" 
d="M66 50l90 26c3 17 6 137 6 187v180c0 62 0 165 -9 175c-10 12 -55 24 -87 32l11 50h146c34 0 143 6 189 6c171 0 273 -78 273 -223c0 -156 -107 -245 -284 -245c-43 0 -78 3 -109 7c0 -60 0 -153 9 -164c12 -12 75 -21 119 -31l-11 -50h-332zM549 477
c0 63 -22 105 -47 131c-26 16 -63 26 -108 26c-33 0 -72 -5 -97 -11c-2 -24 -5 -139 -5 -185v-112c31 -5 69 -9 97 -9c40 0 81 6 109 19c26 22 51 66 51 141z" />
    <glyph glyph-name="Thorn" unicode="&#xde;" horiz-adv-x="710" 
d="M66 50l90 26c3 17 6 137 6 187v180c0 62 0 163 -8 174c-9 12 -55 24 -88 33l11 50h333l11 -50l-123 -26c-1 -8 -3 -39 -4 -75c41 2 87 4 118 4c169 0 273 -70 273 -193c0 -136 -107 -208 -284 -208c-43 0 -78 2 -108 5c1 -38 3 -70 8 -76c12 -12 78 -21 119 -31l-11 -50
h-332zM292 236c33 -5 72 -8 100 -8c40 0 80 5 110 18c26 20 47 52 47 107c0 47 -19 79 -42 99c-26 16 -64 24 -111 24c-35 0 -76 -5 -103 -10l-1 1v-231z" />
    <glyph glyph-name="Q" unicode="Q" horiz-adv-x="788" 
d="M391 -15c-199 0 -335 135 -335 344c0 233 146 386 358 386c192 0 324 -136 324 -347c0 -176 -86 -312 -223 -362c69 -31 150 -60 207 -72c31 1 73 4 93 5l19 -64c-31 -23 -104 -57 -152 -57c-101 39 -191 97 -267 168c-7 -1 -15 -1 -24 -1zM401 72c60 0 108 20 137 45
c26 34 63 110 63 233c0 171 -62 278 -206 278c-54 0 -104 -20 -137 -44c-37 -51 -65 -132 -65 -242c0 -167 71 -270 208 -270z" />
    <glyph glyph-name="R" unicode="R" horiz-adv-x="786" 
d="M66 50l90 26c3 17 6 137 6 187v180c0 62 0 163 -8 174c-9 12 -55 24 -88 33l11 50h145c35 0 146 6 194 6c168 0 268 -65 268 -195c0 -91 -67 -149 -129 -180c42 -83 118 -222 141 -255l77 -26l-11 -50c-55 0 -105 -2 -177 -4c-22 51 -95 197 -146 294h-147v-33
c0 -62 0 -163 8 -174c9 -12 55 -24 88 -33l-11 -50h-300zM292 437v-67l180 -6c40 23 77 74 77 141c0 48 -15 79 -36 102c-25 18 -69 27 -119 27c-31 0 -69 -5 -96 -10c-3 -20 -6 -137 -6 -187z" />
    <glyph glyph-name="Racute" unicode="&#x154;" horiz-adv-x="786" 
d="M191 821c93 57 213 118 318 166c18 -25 37 -65 46 -96l-17 -29l-321 -89l-15 7zM66 50l90 26c3 17 6 137 6 187v180c0 62 0 163 -8 174c-9 12 -55 24 -88 33l11 50h145c35 0 146 6 194 6c168 0 268 -65 268 -195c0 -91 -67 -149 -129 -180c42 -83 118 -222 141 -255
l77 -26l-11 -50c-55 0 -105 -2 -177 -4c-22 51 -95 197 -146 294h-147v-33c0 -62 0 -163 8 -174c9 -12 55 -24 88 -33l-11 -50h-300zM292 437v-67l180 -6c40 23 77 74 77 141c0 48 -15 79 -36 102c-25 18 -69 27 -119 27c-31 0 -69 -5 -96 -10c-3 -20 -6 -137 -6 -187z" />
    <glyph glyph-name="Rcaron" unicode="&#x158;" horiz-adv-x="786" 
d="M597 960c-55 -61 -121 -129 -183 -188h-83c-41 38 -147 145 -182 186l25 37l17 3l184 -124l181 125l17 -4zM66 50l90 26c3 17 6 137 6 187v180c0 62 0 163 -8 174c-9 12 -55 24 -88 33l11 50h145c35 0 146 6 194 6c168 0 268 -65 268 -195c0 -91 -67 -149 -129 -180
c42 -83 118 -222 141 -255l77 -26l-11 -50c-55 0 -105 -2 -177 -4c-22 51 -95 197 -146 294h-147v-33c0 -62 0 -163 8 -174c9 -12 55 -24 88 -33l-11 -50h-300zM292 437v-67l180 -6c40 23 77 74 77 141c0 48 -15 79 -36 102c-25 18 -69 27 -119 27c-31 0 -69 -5 -96 -10
c-3 -20 -6 -137 -6 -187z" />
    <glyph glyph-name="Rcommaaccent" unicode="&#x156;" horiz-adv-x="786" 
d="M66 50l90 26c3 17 6 137 6 187v180c0 62 0 163 -8 174c-9 12 -55 24 -88 33l11 50h145c35 0 146 6 194 6c168 0 268 -65 268 -195c0 -91 -67 -149 -129 -180c42 -83 118 -222 141 -255l77 -26l-11 -50c-55 0 -105 -2 -177 -4c-22 51 -95 197 -146 294h-147v-33
c0 -62 0 -163 8 -174c9 -12 55 -24 88 -33l-11 -50h-300zM292 437v-67l180 -6c40 23 77 74 77 141c0 48 -15 79 -36 102c-25 18 -69 27 -119 27c-31 0 -69 -5 -96 -10c-3 -20 -6 -137 -6 -187zM430 -81c36 0 83 -38 83 -79c-1 -67 -66 -166 -113 -221l-42 29
c18 36 36 76 47 112c-32 10 -60 38 -60 67c0 47 46 92 85 92z" />
    <glyph glyph-name="Rdotbelow" unicode="&#x1e5a;" horiz-adv-x="786" 
d="M66 50l90 26c3 17 6 137 6 187v180c0 62 0 163 -8 174c-9 12 -55 24 -88 33l11 50h145c35 0 146 6 194 6c168 0 268 -65 268 -195c0 -91 -67 -149 -129 -180c42 -83 118 -222 141 -255l77 -26l-11 -50c-55 0 -105 -2 -177 -4c-22 51 -95 197 -146 294h-147v-33
c0 -62 0 -163 8 -174c9 -12 55 -24 88 -33l-11 -50h-300zM292 437v-67l180 -6c40 23 77 74 77 141c0 48 -15 79 -36 102c-25 18 -69 27 -119 27c-31 0 -69 -5 -96 -10c-3 -20 -6 -137 -6 -187zM432 -85c33 0 81 -41 81 -80s-48 -85 -83 -85c-36 0 -85 39 -85 78s52 87 87 87
z" />
    <glyph glyph-name="S" unicode="S" horiz-adv-x="655" 
d="M352 715c86 0 160 -21 212 -53l15 -28c-7 -45 -21 -119 -28 -152c-18 -1 -63 0 -82 3c-6 54 -12 93 -18 120c-24 17 -64 28 -111 28c-42 0 -81 -11 -104 -28c-12 -19 -22 -42 -22 -72c0 -167 376 -123 376 -352c0 -117 -102 -196 -265 -196c-102 0 -198 35 -246 61l-3 10
c-1 46 0 104 3 148c18 3 71 5 88 4c9 -49 16 -79 24 -110c27 -19 85 -33 136 -33c47 0 77 7 103 20c13 17 24 42 24 75c0 157 -372 109 -372 346c0 124 121 209 270 209z" />
    <glyph glyph-name="Sacute" unicode="&#x15a;" horiz-adv-x="655" 
d="M148 821c93 57 214 118 318 166c18 -25 38 -65 46 -96l-17 -29l-320 -89l-15 7zM352 715c86 0 160 -21 212 -53l15 -28c-7 -45 -21 -119 -28 -152c-18 -1 -63 0 -82 3c-6 54 -12 93 -18 120c-24 17 -64 28 -111 28c-42 0 -81 -11 -104 -28c-12 -19 -22 -42 -22 -72
c0 -167 376 -123 376 -352c0 -117 -102 -196 -265 -196c-102 0 -198 35 -246 61l-3 10c-1 46 0 104 3 148c18 3 71 5 88 4c9 -49 16 -79 24 -110c27 -19 85 -33 136 -33c47 0 77 7 103 20c13 17 24 42 24 75c0 157 -372 109 -372 346c0 124 121 209 270 209z" />
    <glyph glyph-name="Scaron" unicode="&#x160;" horiz-adv-x="655" 
d="M554 960c-55 -61 -121 -129 -183 -188h-83c-41 38 -146 145 -182 186l25 37l17 3l184 -124l182 125l16 -4zM352 715c86 0 160 -21 212 -53l15 -28c-7 -45 -21 -119 -28 -152c-18 -1 -63 0 -82 3c-6 54 -12 93 -18 120c-24 17 -64 28 -111 28c-42 0 -81 -11 -104 -28
c-12 -19 -22 -42 -22 -72c0 -167 376 -123 376 -352c0 -117 -102 -196 -265 -196c-102 0 -198 35 -246 61l-3 10c-1 46 0 104 3 148c18 3 71 5 88 4c9 -49 16 -79 24 -110c27 -19 85 -33 136 -33c47 0 77 7 103 20c13 17 24 42 24 75c0 157 -372 109 -372 346
c0 124 121 209 270 209z" />
    <glyph glyph-name="Scedilla" unicode="&#x15e;" horiz-adv-x="655" 
d="M352 715c86 0 160 -21 212 -53l15 -28c-7 -45 -21 -119 -28 -152c-18 -1 -63 0 -82 3c-6 54 -12 93 -18 120c-24 17 -64 28 -111 28c-42 0 -81 -11 -104 -28c-12 -19 -22 -42 -22 -72c0 -167 376 -123 376 -352c0 -112 -95 -190 -247 -196l-17 -54c10 2 20 3 30 3
c65 0 105 -32 105 -85c0 -67 -44 -109 -139 -110c-51 1 -88 10 -117 25l18 52c29 -7 53 -10 79 -10c17 0 32 1 45 6c6 8 8 16 8 27c0 22 -16 34 -51 34c-16 0 -30 -2 -41 -5l-22 20l31 100c-81 9 -154 37 -193 58l-3 10c-1 46 0 104 3 148c18 3 71 5 88 4
c9 -49 16 -79 24 -110c27 -19 85 -33 136 -33c47 0 77 7 103 20c13 17 24 42 24 75c0 157 -372 109 -372 346c0 124 121 209 270 209z" />
    <glyph glyph-name="Scircumflex" unicode="&#x15c;" horiz-adv-x="655" 
d="M104 800c55 61 121 129 183 188l83 1c41 -39 147 -146 182 -186l-25 -38l-17 -3l-184 124l-181 -124l-17 3zM352 715c86 0 160 -21 212 -53l15 -28c-7 -45 -21 -119 -28 -152c-18 -1 -63 0 -82 3c-6 54 -12 93 -18 120c-24 17 -64 28 -111 28c-42 0 -81 -11 -104 -28
c-12 -19 -22 -42 -22 -72c0 -167 376 -123 376 -352c0 -117 -102 -196 -265 -196c-102 0 -198 35 -246 61l-3 10c-1 46 0 104 3 148c18 3 71 5 88 4c9 -49 16 -79 24 -110c27 -19 85 -33 136 -33c47 0 77 7 103 20c13 17 24 42 24 75c0 157 -372 109 -372 346
c0 124 121 209 270 209z" />
    <glyph glyph-name="Scommaaccent" unicode="&#x218;" horiz-adv-x="655" 
d="M352 715c86 0 160 -21 212 -53l15 -28c-7 -45 -21 -119 -28 -152c-18 -1 -63 0 -82 3c-6 54 -12 93 -18 120c-24 17 -64 28 -111 28c-42 0 -81 -11 -104 -28c-12 -19 -22 -42 -22 -72c0 -167 376 -123 376 -352c0 -117 -102 -196 -265 -196c-102 0 -198 35 -246 61l-3 10
c-1 46 0 104 3 148c18 3 71 5 88 4c9 -49 16 -79 24 -110c27 -19 85 -33 136 -33c47 0 77 7 103 20c13 17 24 42 24 75c0 157 -372 109 -372 346c0 124 121 209 270 209zM312 -81c37 0 83 -38 83 -79c0 -67 -65 -166 -112 -221l-42 29c18 36 36 76 46 112
c-32 10 -59 38 -59 67c0 47 45 92 84 92z" />
    <glyph glyph-name="Sdotbelow" unicode="&#x1e62;" horiz-adv-x="655" 
d="M352 715c86 0 160 -21 212 -53l15 -28c-7 -45 -21 -119 -28 -152c-18 -1 -63 0 -82 3c-6 54 -12 93 -18 120c-24 17 -64 28 -111 28c-42 0 -81 -11 -104 -28c-12 -19 -22 -42 -22 -72c0 -167 376 -123 376 -352c0 -117 -102 -196 -265 -196c-102 0 -198 35 -246 61l-3 10
c-1 46 0 104 3 148c18 3 71 5 88 4c9 -49 16 -79 24 -110c27 -19 85 -33 136 -33c47 0 77 7 103 20c13 17 24 42 24 75c0 157 -372 109 -372 346c0 124 121 209 270 209zM315 -85c33 0 81 -41 81 -80s-48 -85 -83 -85c-36 0 -85 39 -85 78s52 87 87 87z" />
    <glyph glyph-name="Germandbls" unicode="&#x1e9e;" horiz-adv-x="797" 
d="M36 50l90 26c3 17 6 137 6 187v229c0 140 121 221 293 221c101 0 182 -23 256 -74l15 -27l-145 -204l61 -43c97 -63 149 -110 149 -200c0 -110 -82 -180 -211 -180c-61 0 -124 19 -161 41l-14 26c5 39 15 108 22 138h57c3 -19 22 -95 24 -110c13 -8 36 -13 62 -13
s43 5 60 16c13 16 22 39 22 73c0 61 -41 96 -107 136l-98 64l160 236c-44 28 -102 41 -156 41c-48 0 -93 -10 -126 -27c-21 -23 -33 -63 -33 -110v-239c0 -64 0 -169 8 -181c7 -9 33 -20 53 -26l-11 -50h-265z" />
    <glyph glyph-name="T" unicode="T" horiz-adv-x="723" 
d="M196 50l91 26c3 17 5 108 5 187v370h-18c-43 0 -89 -2 -121 -6l-28 -130c-21 -1 -68 0 -88 3c-2 64 -2 133 0 200h337c118 0 214 1 289 6c6 -8 20 -25 24 -33c-3 -53 -10 -116 -17 -174c-18 -2 -60 -1 -79 1l-25 127c-33 4 -77 5 -117 5h-26v-375c0 -62 0 -163 8 -174
c8 -12 55 -24 88 -33l-11 -50h-301z" />
    <glyph glyph-name="Tbar" unicode="&#x166;" horiz-adv-x="723" 
d="M196 50l91 26c3 17 5 108 5 187v45h-135l-15 15l9 54h141v256h-18c-43 0 -89 -2 -121 -6l-28 -130c-21 -1 -68 0 -88 3c-2 64 -2 133 0 200h337c118 0 214 1 289 6c6 -8 20 -25 24 -33c-3 -53 -10 -116 -17 -174c-18 -2 -60 -1 -79 1l-25 127c-33 4 -77 5 -117 5h-26
v-255h146l16 -15s-9 -54 -10 -54h-152v-51c0 -62 0 -163 8 -174c8 -12 55 -24 88 -33l-11 -50h-301z" />
    <glyph glyph-name="Tcaron" unicode="&#x164;" horiz-adv-x="723" 
d="M585 960c-55 -61 -121 -129 -184 -188h-83c-41 38 -146 145 -181 186l25 37l16 3l184 -124l182 125l17 -4zM196 50l91 26c3 17 5 108 5 187v370h-18c-43 0 -89 -2 -121 -6l-28 -130c-21 -1 -68 0 -88 3c-2 64 -2 133 0 200h337c118 0 214 1 289 6c6 -8 20 -25 24 -33
c-3 -53 -10 -116 -17 -174c-18 -2 -60 -1 -79 1l-25 127c-33 4 -77 5 -117 5h-26v-375c0 -62 0 -163 8 -174c8 -12 55 -24 88 -33l-11 -50h-301z" />
    <glyph glyph-name="Tcedilla" unicode="&#x162;" horiz-adv-x="723" 
d="M196 50l91 26c3 17 5 108 5 187v370h-18c-43 0 -89 -2 -121 -6l-28 -130c-21 -1 -68 0 -88 3c-2 64 -2 133 0 200h337c118 0 214 1 289 6c6 -8 20 -25 24 -33c-3 -53 -10 -116 -17 -174c-18 -2 -60 -1 -79 1l-25 127c-33 4 -77 5 -117 5h-26v-375c0 -62 0 -163 8 -174
c8 -12 55 -24 88 -33l-11 -50h-115l-21 -69c10 2 20 3 30 3c65 0 105 -32 105 -85c0 -67 -44 -109 -139 -110c-51 1 -88 10 -117 25l18 52c29 -7 53 -10 79 -10c17 0 32 1 45 6c6 8 8 16 8 27c0 22 -16 34 -51 34c-16 0 -30 -2 -41 -5l-22 20l34 112h-114z" />
    <glyph glyph-name="Tcommaaccent" unicode="&#x21a;" horiz-adv-x="723" 
d="M196 50l91 26c3 17 5 108 5 187v370h-18c-43 0 -89 -2 -121 -6l-28 -130c-21 -1 -68 0 -88 3c-2 64 -2 133 0 200h337c118 0 214 1 289 6c6 -8 20 -25 24 -33c-3 -53 -10 -116 -17 -174c-18 -2 -60 -1 -79 1l-25 127c-33 4 -77 5 -117 5h-26v-375c0 -62 0 -163 8 -174
c8 -12 55 -24 88 -33l-11 -50h-301zM363 -81c37 0 84 -38 84 -79c-1 -67 -66 -166 -113 -221l-42 29c18 36 36 76 47 112c-33 10 -60 38 -60 67c0 47 46 92 84 92z" />
    <glyph glyph-name="Tdotbelow" unicode="&#x1e6c;" horiz-adv-x="723" 
d="M196 50l91 26c3 17 5 108 5 187v370h-18c-43 0 -89 -2 -121 -6l-28 -130c-21 -1 -68 0 -88 3c-2 64 -2 133 0 200h337c118 0 214 1 289 6c6 -8 20 -25 24 -33c-3 -53 -10 -116 -17 -174c-18 -2 -60 -1 -79 1l-25 127c-33 4 -77 5 -117 5h-26v-375c0 -62 0 -163 8 -174
c8 -12 55 -24 88 -33l-11 -50h-301zM367 -85c32 0 80 -41 80 -80s-48 -85 -83 -85c-36 0 -85 39 -85 78s52 87 88 87z" />
    <glyph glyph-name="U" unicode="U" horiz-adv-x="833" 
d="M708 293c0 -207 -116 -309 -294 -309c-198 0 -292 114 -292 344v110c0 60 0 165 -10 178c-9 13 -54 25 -86 34l11 50h305l11 -50l-91 -26c-3 -17 -7 -137 -7 -186v-113c0 -163 49 -251 186 -251c69 0 124 27 150 62c22 67 23 157 23 269c0 93 0 197 -7 214
c-11 9 -62 22 -96 31l11 50h274l11 -50l-94 -27c-3 -68 -5 -162 -5 -330z" />
    <glyph glyph-name="Uacute" unicode="&#xda;" horiz-adv-x="833" 
d="M251 821c92 57 213 118 317 166c18 -25 38 -65 46 -96l-16 -29l-321 -89l-15 7zM708 293c0 -207 -116 -309 -294 -309c-198 0 -292 114 -292 344v110c0 60 0 165 -10 178c-9 13 -54 25 -86 34l11 50h305l11 -50l-91 -26c-3 -17 -7 -137 -7 -186v-113
c0 -163 49 -251 186 -251c69 0 124 27 150 62c22 67 23 157 23 269c0 93 0 197 -7 214c-11 9 -62 22 -96 31l11 50h274l11 -50l-94 -27c-3 -68 -5 -162 -5 -330z" />
    <glyph glyph-name="Ubreve" unicode="&#x16c;" horiz-adv-x="833" 
d="M433 881c71 0 115 34 140 104l35 -6l11 -15c-12 -126 -91 -190 -191 -190c-103 0 -174 72 -183 203l47 7c24 -67 66 -103 141 -103zM708 293c0 -207 -116 -309 -294 -309c-198 0 -292 114 -292 344v110c0 60 0 165 -10 178c-9 13 -54 25 -86 34l11 50h305l11 -50l-91 -26
c-3 -17 -7 -137 -7 -186v-113c0 -163 49 -251 186 -251c69 0 124 27 150 62c22 67 23 157 23 269c0 93 0 197 -7 214c-11 9 -62 22 -96 31l11 50h274l11 -50l-94 -27c-3 -68 -5 -162 -5 -330z" />
    <glyph glyph-name="Ucaron" unicode="&#x1d3;" horiz-adv-x="833" 
d="M657 960c-55 -61 -122 -129 -184 -188h-83c-41 38 -146 145 -181 186l25 37l16 3l184 -124l182 125l16 -4zM708 293c0 -207 -116 -309 -294 -309c-198 0 -292 114 -292 344v110c0 60 0 165 -10 178c-9 13 -54 25 -86 34l11 50h305l11 -50l-91 -26c-3 -17 -7 -137 -7 -186
v-113c0 -163 49 -251 186 -251c69 0 124 27 150 62c22 67 23 157 23 269c0 93 0 197 -7 214c-11 9 -62 22 -96 31l11 50h274l11 -50l-94 -27c-3 -68 -5 -162 -5 -330z" />
    <glyph glyph-name="Ucircumflex" unicode="&#xdb;" horiz-adv-x="833" 
d="M208 800c55 61 121 129 183 188l83 1c41 -39 147 -146 182 -186l-25 -38l-17 -3l-184 124l-181 -124l-17 3zM708 293c0 -207 -116 -309 -294 -309c-198 0 -292 114 -292 344v110c0 60 0 165 -10 178c-9 13 -54 25 -86 34l11 50h305l11 -50l-91 -26
c-3 -17 -7 -137 -7 -186v-113c0 -163 49 -251 186 -251c69 0 124 27 150 62c22 67 23 157 23 269c0 93 0 197 -7 214c-11 9 -62 22 -96 31l11 50h274l11 -50l-94 -27c-3 -68 -5 -162 -5 -330z" />
    <glyph glyph-name="Udieresis" unicode="&#xdc;" horiz-adv-x="833" 
d="M386 880c0 -37 -42 -83 -74 -83c-42 0 -86 34 -86 70c0 45 43 89 80 89c34 0 80 -36 80 -76zM639 880c0 -37 -43 -83 -75 -83c-42 0 -87 34 -87 70c0 45 45 89 81 89c34 0 81 -36 81 -76zM708 293c0 -207 -116 -309 -294 -309c-198 0 -292 114 -292 344v110
c0 60 0 165 -10 178c-9 13 -54 25 -86 34l11 50h305l11 -50l-91 -26c-3 -17 -7 -137 -7 -186v-113c0 -163 49 -251 186 -251c69 0 124 27 150 62c22 67 23 157 23 269c0 93 0 197 -7 214c-11 9 -62 22 -96 31l11 50h274l11 -50l-94 -27c-3 -68 -5 -162 -5 -330z" />
    <glyph glyph-name="Udieresisacute" unicode="&#x1d7;" horiz-adv-x="833" 
d="M251 1063c92 57 213 118 317 166c18 -25 38 -65 46 -96l-16 -29l-321 -89l-15 7zM386 880c0 -37 -42 -83 -74 -83c-42 0 -86 34 -86 70c0 45 43 89 80 89c34 0 80 -36 80 -76zM639 880c0 -37 -43 -83 -75 -83c-42 0 -87 34 -87 70c0 45 45 89 81 89c34 0 81 -36 81 -76z
M708 293c0 -207 -116 -309 -294 -309c-198 0 -292 114 -292 344v110c0 60 0 165 -10 178c-9 13 -54 25 -86 34l11 50h305l11 -50l-91 -26c-3 -17 -7 -137 -7 -186v-113c0 -163 49 -251 186 -251c69 0 124 27 150 62c22 67 23 157 23 269c0 93 0 197 -7 214
c-11 9 -62 22 -96 31l11 50h274l11 -50l-94 -27c-3 -68 -5 -162 -5 -330z" />
    <glyph glyph-name="Udieresiscaron" unicode="&#x1d9;" horiz-adv-x="833" 
d="M657 1202c-55 -61 -122 -129 -184 -188h-83c-41 38 -146 145 -181 186l25 37l16 3l184 -124l182 125l16 -4zM386 880c0 -37 -42 -83 -74 -83c-42 0 -86 34 -86 70c0 45 43 89 80 89c34 0 80 -36 80 -76zM639 880c0 -37 -43 -83 -75 -83c-42 0 -87 34 -87 70
c0 45 45 89 81 89c34 0 81 -36 81 -76zM708 293c0 -207 -116 -309 -294 -309c-198 0 -292 114 -292 344v110c0 60 0 165 -10 178c-9 13 -54 25 -86 34l11 50h305l11 -50l-91 -26c-3 -17 -7 -137 -7 -186v-113c0 -163 49 -251 186 -251c69 0 124 27 150 62
c22 67 23 157 23 269c0 93 0 197 -7 214c-11 9 -62 22 -96 31l11 50h274l11 -50l-94 -27c-3 -68 -5 -162 -5 -330z" />
    <glyph glyph-name="Udieresisgrave" unicode="&#x1db;" horiz-adv-x="833" 
d="M614 1063l-11 -41l-15 -7l-321 89l-17 29c8 31 28 71 46 96c105 -48 225 -109 318 -166zM386 880c0 -37 -42 -83 -74 -83c-42 0 -86 34 -86 70c0 45 43 89 80 89c34 0 80 -36 80 -76zM639 880c0 -37 -43 -83 -75 -83c-42 0 -87 34 -87 70c0 45 45 89 81 89
c34 0 81 -36 81 -76zM708 293c0 -207 -116 -309 -294 -309c-198 0 -292 114 -292 344v110c0 60 0 165 -10 178c-9 13 -54 25 -86 34l11 50h305l11 -50l-91 -26c-3 -17 -7 -137 -7 -186v-113c0 -163 49 -251 186 -251c69 0 124 27 150 62c22 67 23 157 23 269
c0 93 0 197 -7 214c-11 9 -62 22 -96 31l11 50h274l11 -50l-94 -27c-3 -68 -5 -162 -5 -330z" />
    <glyph glyph-name="Udieresismacron" unicode="&#x1d5;" horiz-adv-x="833" 
d="M646 1165v-87l-413 -3l-15 15l9 78zM386 880c0 -37 -42 -83 -74 -83c-42 0 -86 34 -86 70c0 45 43 89 80 89c34 0 80 -36 80 -76zM639 880c0 -37 -43 -83 -75 -83c-42 0 -87 34 -87 70c0 45 45 89 81 89c34 0 81 -36 81 -76zM708 293c0 -207 -116 -309 -294 -309
c-198 0 -292 114 -292 344v110c0 60 0 165 -10 178c-9 13 -54 25 -86 34l11 50h305l11 -50l-91 -26c-3 -17 -7 -137 -7 -186v-113c0 -163 49 -251 186 -251c69 0 124 27 150 62c22 67 23 157 23 269c0 93 0 197 -7 214c-11 9 -62 22 -96 31l11 50h274l11 -50l-94 -27
c-3 -68 -5 -162 -5 -330z" />
    <glyph glyph-name="Udotbelow" unicode="&#x1ee4;" horiz-adv-x="833" 
d="M708 293c0 -207 -116 -309 -294 -309c-198 0 -292 114 -292 344v110c0 60 0 165 -10 178c-9 13 -54 25 -86 34l11 50h305l11 -50l-91 -26c-3 -17 -7 -137 -7 -186v-113c0 -163 49 -251 186 -251c69 0 124 27 150 62c22 67 23 157 23 269c0 93 0 197 -7 214
c-11 9 -62 22 -96 31l11 50h274l11 -50l-94 -27c-3 -68 -5 -162 -5 -330zM428 -85c33 0 81 -41 81 -80s-48 -85 -83 -85c-36 0 -85 39 -85 78s52 87 87 87z" />
    <glyph glyph-name="Ugrave" unicode="&#xd9;" horiz-adv-x="833" 
d="M614 821l-11 -41l-15 -7l-321 89l-17 29c8 31 28 71 46 96c105 -48 225 -109 318 -166zM708 293c0 -207 -116 -309 -294 -309c-198 0 -292 114 -292 344v110c0 60 0 165 -10 178c-9 13 -54 25 -86 34l11 50h305l11 -50l-91 -26c-3 -17 -7 -137 -7 -186v-113
c0 -163 49 -251 186 -251c69 0 124 27 150 62c22 67 23 157 23 269c0 93 0 197 -7 214c-11 9 -62 22 -96 31l11 50h274l11 -50l-94 -27c-3 -68 -5 -162 -5 -330z" />
    <glyph glyph-name="Uhungarumlaut" unicode="&#x170;" horiz-adv-x="833" 
d="M168 806c67 65 139 130 218 190c23 -21 50 -55 65 -84l-11 -32l-236 -115l-18 3zM435 806c67 65 139 130 218 190c23 -21 50 -55 65 -84l-11 -32l-236 -115l-18 3zM708 293c0 -207 -116 -309 -294 -309c-198 0 -292 114 -292 344v110c0 60 0 165 -10 178
c-9 13 -54 25 -86 34l11 50h305l11 -50l-91 -26c-3 -17 -7 -137 -7 -186v-113c0 -163 49 -251 186 -251c69 0 124 27 150 62c22 67 23 157 23 269c0 93 0 197 -7 214c-11 9 -62 22 -96 31l11 50h274l11 -50l-94 -27c-3 -68 -5 -162 -5 -330z" />
    <glyph glyph-name="Umacron" unicode="&#x16a;" horiz-adv-x="833" 
d="M646 923v-87l-413 -3l-15 15l9 78zM708 293c0 -207 -116 -309 -294 -309c-198 0 -292 114 -292 344v110c0 60 0 165 -10 178c-9 13 -54 25 -86 34l11 50h305l11 -50l-91 -26c-3 -17 -7 -137 -7 -186v-113c0 -163 49 -251 186 -251c69 0 124 27 150 62
c22 67 23 157 23 269c0 93 0 197 -7 214c-11 9 -62 22 -96 31l11 50h274l11 -50l-94 -27c-3 -68 -5 -162 -5 -330z" />
    <glyph glyph-name="Uogonek" unicode="&#x172;" horiz-adv-x="833" 
d="M708 293c0 -124 -41 -210 -113 -260c-102 -78 -132 -125 -132 -168c0 -15 5 -26 15 -33c34 6 68 18 94 27l18 -45c-27 -29 -71 -56 -122 -61c-64 2 -106 35 -106 89c0 49 27 96 87 143c-12 -1 -23 -1 -35 -1c-198 0 -292 114 -292 344v110c0 60 0 165 -10 178
c-9 13 -54 25 -86 34l11 50h305l11 -50l-91 -26c-3 -17 -7 -137 -7 -186v-113c0 -163 49 -251 186 -251c69 0 124 27 150 62c22 67 23 157 23 269c0 93 0 197 -7 214c-11 9 -62 22 -96 31l11 50h274l11 -50l-94 -27c-3 -68 -5 -162 -5 -330z" />
    <glyph glyph-name="Uring" unicode="&#x16e;" horiz-adv-x="833" 
d="M433 768c-59 0 -109 46 -109 108c0 55 50 108 109 108s107 -53 107 -108c0 -62 -48 -108 -107 -108zM433 835c22 0 40 17 40 41c0 21 -18 40 -40 40c-23 0 -42 -19 -42 -40c0 -24 19 -41 42 -41zM708 293c0 -207 -116 -309 -294 -309c-198 0 -292 114 -292 344v110
c0 60 0 165 -10 178c-9 13 -54 25 -86 34l11 50h305l11 -50l-91 -26c-3 -17 -7 -137 -7 -186v-113c0 -163 49 -251 186 -251c69 0 124 27 150 62c22 67 23 157 23 269c0 93 0 197 -7 214c-11 9 -62 22 -96 31l11 50h274l11 -50l-94 -27c-3 -68 -5 -162 -5 -330z" />
    <glyph glyph-name="Utilde" unicode="&#x168;" horiz-adv-x="833" 
d="M196 820c28 46 102 138 126 138c48 0 153 -40 219 -62l92 76l37 -28v-26c-35 -55 -93 -133 -132 -133c-44 0 -146 56 -220 75l-74 -71l-17 2zM708 293c0 -207 -116 -309 -294 -309c-198 0 -292 114 -292 344v110c0 60 0 165 -10 178c-9 13 -54 25 -86 34l11 50h305
l11 -50l-91 -26c-3 -17 -7 -137 -7 -186v-113c0 -163 49 -251 186 -251c69 0 124 27 150 62c22 67 23 157 23 269c0 93 0 197 -7 214c-11 9 -62 22 -96 31l11 50h274l11 -50l-94 -27c-3 -68 -5 -162 -5 -330z" />
    <glyph glyph-name="V" unicode="V" horiz-adv-x="810" 
d="M490 0c-45 -5 -118 -5 -168 0c-7 25 -21 58 -36 100c-67 182 -146 393 -198 524l-81 26l10 50h305l11 -50l-100 -26c48 -134 119 -339 195 -540c62 175 125 366 181 540l-100 26l11 50h273l10 -50l-84 -27c-67 -166 -132 -352 -195 -525z" />
    <glyph glyph-name="W" unicode="W" horiz-adv-x="1154" 
d="M871 0c-43 -3 -89 -3 -133 0c-9 30 -21 67 -35 107c-43 120 -89 250 -129 365c-41 -121 -79 -236 -122 -366l-33 -106c-45 -3 -91 -3 -136 0c-11 34 -23 75 -37 121c-50 168 -112 377 -148 500l-91 29l11 50h306l11 -50l-96 -26c29 -112 80 -300 136 -494
c59 184 119 360 164 509c37 3 79 3 112 0c35 -113 102 -300 175 -508c44 160 86 327 126 493l-96 26l11 50h269l11 -50l-86 -29c-57 -165 -108 -344 -159 -515z" />
    <glyph glyph-name="Wacute" unicode="&#x1e82;" horiz-adv-x="1154" 
d="M420 821c92 57 213 118 318 166c18 -25 37 -65 46 -96l-17 -29l-321 -89l-15 7zM871 0c-43 -3 -89 -3 -133 0c-9 30 -21 67 -35 107c-43 120 -89 250 -129 365c-41 -121 -79 -236 -122 -366l-33 -106c-45 -3 -91 -3 -136 0c-11 34 -23 75 -37 121
c-50 168 -112 377 -148 500l-91 29l11 50h306l11 -50l-96 -26c29 -112 80 -300 136 -494c59 184 119 360 164 509c37 3 79 3 112 0c35 -113 102 -300 175 -508c44 160 86 327 126 493l-96 26l11 50h269l11 -50l-86 -29c-57 -165 -108 -344 -159 -515z" />
    <glyph glyph-name="Wcircumflex" unicode="&#x174;" horiz-adv-x="1154" 
d="M372 800c55 61 121 129 183 188l83 1c41 -39 146 -146 182 -186l-26 -38l-16 -3l-184 124l-182 -124l-16 3zM871 0c-43 -3 -89 -3 -133 0c-9 30 -21 67 -35 107c-43 120 -89 250 -129 365c-41 -121 -79 -236 -122 -366l-33 -106c-45 -3 -91 -3 -136 0
c-11 34 -23 75 -37 121c-50 168 -112 377 -148 500l-91 29l11 50h306l11 -50l-96 -26c29 -112 80 -300 136 -494c59 184 119 360 164 509c37 3 79 3 112 0c35 -113 102 -300 175 -508c44 160 86 327 126 493l-96 26l11 50h269l11 -50l-86 -29c-57 -165 -108 -344 -159 -515z
" />
    <glyph glyph-name="Wdieresis" unicode="&#x1e84;" horiz-adv-x="1154" 
d="M552 880c0 -37 -43 -83 -75 -83c-41 0 -86 34 -86 70c0 45 44 89 80 89c34 0 81 -36 81 -76zM804 880c0 -37 -42 -83 -74 -83c-42 0 -87 34 -87 70c0 45 44 89 81 89c34 0 80 -36 80 -76zM871 0c-43 -3 -89 -3 -133 0c-9 30 -21 67 -35 107c-43 120 -89 250 -129 365
c-41 -121 -79 -236 -122 -366l-33 -106c-45 -3 -91 -3 -136 0c-11 34 -23 75 -37 121c-50 168 -112 377 -148 500l-91 29l11 50h306l11 -50l-96 -26c29 -112 80 -300 136 -494c59 184 119 360 164 509c37 3 79 3 112 0c35 -113 102 -300 175 -508c44 160 86 327 126 493
l-96 26l11 50h269l11 -50l-86 -29c-57 -165 -108 -344 -159 -515z" />
    <glyph glyph-name="Wgrave" unicode="&#x1e80;" horiz-adv-x="1154" 
d="M774 821l-11 -41l-15 -7l-321 89l-16 29c8 31 27 71 46 96c104 -48 225 -109 317 -166zM871 0c-43 -3 -89 -3 -133 0c-9 30 -21 67 -35 107c-43 120 -89 250 -129 365c-41 -121 -79 -236 -122 -366l-33 -106c-45 -3 -91 -3 -136 0c-11 34 -23 75 -37 121
c-50 168 -112 377 -148 500l-91 29l11 50h306l11 -50l-96 -26c29 -112 80 -300 136 -494c59 184 119 360 164 509c37 3 79 3 112 0c35 -113 102 -300 175 -508c44 160 86 327 126 493l-96 26l11 50h269l11 -50l-86 -29c-57 -165 -108 -344 -159 -515z" />
    <glyph glyph-name="X" unicode="X" horiz-adv-x="768" 
d="M543 -4c-44 74 -116 184 -191 292c-48 -77 -91 -147 -128 -207c15 -6 75 -23 95 -31l-10 -50h-281l-11 50c14 7 66 21 80 28c55 68 127 165 208 277c-78 110 -151 211 -193 264c-17 9 -72 24 -91 31l10 50c65 0 146 2 199 4c42 -72 112 -180 185 -287
c47 75 88 144 124 202c-15 6 -76 23 -95 31l10 50h281l11 -50c-14 -7 -66 -22 -80 -28c-54 -68 -124 -163 -204 -273c79 -113 155 -217 198 -268c16 -8 72 -23 91 -31l-11 -50c-64 0 -145 -2 -197 -4z" />
    <glyph glyph-name="Y" unicode="Y" horiz-adv-x="774" 
d="M221 50l91 26c2 14 4 84 5 144c-61 105 -170 293 -235 405l-75 25l10 50h308l11 -50l-99 -26c41 -82 103 -192 174 -314c57 104 112 208 166 313l-94 27l10 50h264l10 -50l-83 -29c-64 -112 -141 -240 -236 -400c0 -60 1 -129 8 -138c8 -12 54 -24 88 -33l-11 -50h-301z
" />
    <glyph glyph-name="Yacute" unicode="&#xdd;" horiz-adv-x="774" 
d="M214 821c93 57 213 118 318 166c18 -25 38 -65 46 -96l-17 -29l-320 -89l-16 7zM221 50l91 26c2 14 4 84 5 144c-61 105 -170 293 -235 405l-75 25l10 50h308l11 -50l-99 -26c41 -82 103 -192 174 -314c57 104 112 208 166 313l-94 27l10 50h264l10 -50l-83 -29
c-64 -112 -141 -240 -236 -400c0 -60 1 -129 8 -138c8 -12 54 -24 88 -33l-11 -50h-301z" />
    <glyph glyph-name="Ycircumflex" unicode="&#x176;" horiz-adv-x="774" 
d="M170 800c55 61 121 129 183 188l83 1c41 -39 147 -146 182 -186l-25 -38l-17 -3l-184 124l-181 -124l-17 3zM221 50l91 26c2 14 4 84 5 144c-61 105 -170 293 -235 405l-75 25l10 50h308l11 -50l-99 -26c41 -82 103 -192 174 -314c57 104 112 208 166 313l-94 27l10 50
h264l10 -50l-83 -29c-64 -112 -141 -240 -236 -400c0 -60 1 -129 8 -138c8 -12 54 -24 88 -33l-11 -50h-301z" />
    <glyph glyph-name="Ydieresis" unicode="&#x178;" horiz-adv-x="774" 
d="M348 880c0 -37 -42 -83 -74 -83c-41 0 -86 34 -86 70c0 45 44 89 80 89c34 0 80 -36 80 -76zM601 880c0 -37 -42 -83 -75 -83c-41 0 -86 34 -86 70c0 45 44 89 81 89c34 0 80 -36 80 -76zM221 50l91 26c2 14 4 84 5 144c-61 105 -170 293 -235 405l-75 25l10 50h308
l11 -50l-99 -26c41 -82 103 -192 174 -314c57 104 112 208 166 313l-94 27l10 50h264l10 -50l-83 -29c-64 -112 -141 -240 -236 -400c0 -60 1 -129 8 -138c8 -12 54 -24 88 -33l-11 -50h-301z" />
    <glyph glyph-name="Ygrave" unicode="&#x1ef2;" horiz-adv-x="774" 
d="M574 821l-11 -41l-15 -7l-321 89l-16 29c8 31 28 71 46 96c104 -48 225 -109 317 -166zM221 50l91 26c2 14 4 84 5 144c-61 105 -170 293 -235 405l-75 25l10 50h308l11 -50l-99 -26c41 -82 103 -192 174 -314c57 104 112 208 166 313l-94 27l10 50h264l10 -50l-83 -29
c-64 -112 -141 -240 -236 -400c0 -60 1 -129 8 -138c8 -12 54 -24 88 -33l-11 -50h-301z" />
    <glyph glyph-name="Ymacron" unicode="&#x232;" horiz-adv-x="774" 
d="M607 923v-87l-414 -3l-15 15l9 78zM221 50l91 26c2 14 4 84 5 144c-61 105 -170 293 -235 405l-75 25l10 50h308l11 -50l-99 -26c41 -82 103 -192 174 -314c57 104 112 208 166 313l-94 27l10 50h264l10 -50l-83 -29c-64 -112 -141 -240 -236 -400c0 -60 1 -129 8 -138
c8 -12 54 -24 88 -33l-11 -50h-301z" />
    <glyph glyph-name="Ytilde" unicode="&#x1ef8;" horiz-adv-x="774" 
d="M155 820c29 46 102 138 126 138c49 0 154 -40 220 -62l91 76l37 -28v-26c-34 -55 -93 -133 -131 -133c-44 0 -146 56 -221 75l-73 -71l-17 2zM221 50l91 26c2 14 4 84 5 144c-61 105 -170 293 -235 405l-75 25l10 50h308l11 -50l-99 -26c41 -82 103 -192 174 -314
c57 104 112 208 166 313l-94 27l10 50h264l10 -50l-83 -29c-64 -112 -141 -240 -236 -400c0 -60 1 -129 8 -138c8 -12 54 -24 88 -33l-11 -50h-301z" />
    <glyph glyph-name="Z" unicode="Z" horiz-adv-x="681" 
d="M56 66c119 155 293 378 415 561h-160c-44 0 -93 -2 -125 -4l-21 -121c-20 -4 -60 -5 -79 -4c-9 56 -20 121 -28 175l24 35c66 -5 160 -8 270 -8h244c10 -25 23 -57 30 -85c-116 -154 -275 -363 -404 -543h166c42 0 79 1 116 4l31 125c22 1 65 -1 84 -4
c2 -65 1 -134 -1 -197h-536c-6 13 -20 49 -26 66z" />
    <glyph glyph-name="Zacute" unicode="&#x179;" horiz-adv-x="681" 
d="M152 821c93 57 213 118 318 166c18 -25 38 -65 46 -96l-17 -29l-320 -89l-16 7zM56 66c119 155 293 378 415 561h-160c-44 0 -93 -2 -125 -4l-21 -121c-20 -4 -60 -5 -79 -4c-9 56 -20 121 -28 175l24 35c66 -5 160 -8 270 -8h244c10 -25 23 -57 30 -85
c-116 -154 -275 -363 -404 -543h166c42 0 79 1 116 4l31 125c22 1 65 -1 84 -4c2 -65 1 -134 -1 -197h-536c-6 13 -20 49 -26 66z" />
    <glyph glyph-name="Zcaron" unicode="&#x17d;" horiz-adv-x="681" 
d="M558 960c-55 -61 -121 -129 -183 -188h-83c-41 38 -147 145 -182 186l25 37l17 3l184 -124l181 125l17 -4zM56 66c119 155 293 378 415 561h-160c-44 0 -93 -2 -125 -4l-21 -121c-20 -4 -60 -5 -79 -4c-9 56 -20 121 -28 175l24 35c66 -5 160 -8 270 -8h244
c10 -25 23 -57 30 -85c-116 -154 -275 -363 -404 -543h166c42 0 79 1 116 4l31 125c22 1 65 -1 84 -4c2 -65 1 -134 -1 -197h-536c-6 13 -20 49 -26 66z" />
    <glyph glyph-name="Zdotaccent" unicode="&#x17b;" horiz-adv-x="681" 
d="M336 953c33 0 81 -41 81 -79c0 -40 -48 -86 -83 -86c-36 0 -85 39 -85 78c0 40 52 87 87 87zM56 66c119 155 293 378 415 561h-160c-44 0 -93 -2 -125 -4l-21 -121c-20 -4 -60 -5 -79 -4c-9 56 -20 121 -28 175l24 35c66 -5 160 -8 270 -8h244c10 -25 23 -57 30 -85
c-116 -154 -275 -363 -404 -543h166c42 0 79 1 116 4l31 125c22 1 65 -1 84 -4c2 -65 1 -134 -1 -197h-536c-6 13 -20 49 -26 66z" />
    <glyph glyph-name="Zdotbelow" unicode="&#x1e92;" horiz-adv-x="681" 
d="M56 66c119 155 293 378 415 561h-160c-44 0 -93 -2 -125 -4l-21 -121c-20 -4 -60 -5 -79 -4c-9 56 -20 121 -28 175l24 35c66 -5 160 -8 270 -8h244c10 -25 23 -57 30 -85c-116 -154 -275 -363 -404 -543h166c42 0 79 1 116 4l31 125c22 1 65 -1 84 -4
c2 -65 1 -134 -1 -197h-536c-6 13 -20 49 -26 66zM351 -85c32 0 80 -41 80 -80s-48 -85 -83 -85c-36 0 -85 39 -85 78s52 87 88 87z" />
    <glyph glyph-name="a" unicode="a" horiz-adv-x="594" 
d="M71 220c47 33 190 62 287 64c1 62 0 128 -4 148c-19 11 -47 16 -81 16c-27 0 -61 -6 -83 -13l-8 -92l-74 -11c-19 36 -31 70 -40 104l21 43c54 26 171 54 238 59c105 -8 158 -61 158 -151c0 -37 -5 -126 -5 -182c0 -43 1 -105 11 -124c3 -8 32 -16 73 -31l-11 -50h-153
c-4 8 -35 57 -37 67c-43 -33 -122 -80 -181 -80c-78 16 -129 68 -129 154c0 28 7 59 18 79zM174 171c0 -54 20 -87 61 -100c31 0 99 35 122 58v100c-63 -1 -134 -14 -180 -29c-2 -6 -3 -23 -3 -29z" />
    <glyph glyph-name="aacute" unicode="&#xe1;" horiz-adv-x="594" 
d="M138 641c70 62 160 134 241 192c20 -20 47 -56 60 -84l-9 -29l-257 -123l-15 4zM71 220c47 33 190 62 287 64c1 62 0 128 -4 148c-19 11 -47 16 -81 16c-27 0 -61 -6 -83 -13l-8 -92l-74 -11c-19 36 -31 70 -40 104l21 43c54 26 171 54 238 59c105 -8 158 -61 158 -151
c0 -37 -5 -126 -5 -182c0 -43 1 -105 11 -124c3 -8 32 -16 73 -31l-11 -50h-153c-4 8 -35 57 -37 67c-43 -33 -122 -80 -181 -80c-78 16 -129 68 -129 154c0 28 7 59 18 79zM174 171c0 -54 20 -87 61 -100c31 0 99 35 122 58v100c-63 -1 -134 -14 -180 -29
c-2 -6 -3 -23 -3 -29z" />
    <glyph glyph-name="abreve" unicode="&#x103;" horiz-adv-x="594" 
d="M290 710c66 0 111 31 130 98l34 -5l11 -16c-6 -120 -87 -179 -180 -179c-97 0 -167 67 -170 193l46 6c17 -64 59 -97 129 -97zM71 220c47 33 190 62 287 64c1 62 0 128 -4 148c-19 11 -47 16 -81 16c-27 0 -61 -6 -83 -13l-8 -92l-74 -11c-19 36 -31 70 -40 104l21 43
c54 26 171 54 238 59c105 -8 158 -61 158 -151c0 -37 -5 -126 -5 -182c0 -43 1 -105 11 -124c3 -8 32 -16 73 -31l-11 -50h-153c-4 8 -35 57 -37 67c-43 -33 -122 -80 -181 -80c-78 16 -129 68 -129 154c0 28 7 59 18 79zM174 171c0 -54 20 -87 61 -100c31 0 99 35 122 58
v100c-63 -1 -134 -14 -180 -29c-2 -6 -3 -23 -3 -29z" />
    <glyph glyph-name="acaron" unicode="&#x1ce;" horiz-adv-x="594" 
d="M492 801c-48 -65 -105 -134 -162 -196l-84 -1c-37 43 -130 151 -161 195l29 35l17 2l159 -131l157 131l17 -2zM71 220c47 33 190 62 287 64c1 62 0 128 -4 148c-19 11 -47 16 -81 16c-27 0 -61 -6 -83 -13l-8 -92l-74 -11c-19 36 -31 70 -40 104l21 43
c54 26 171 54 238 59c105 -8 158 -61 158 -151c0 -37 -5 -126 -5 -182c0 -43 1 -105 11 -124c3 -8 32 -16 73 -31l-11 -50h-153c-4 8 -35 57 -37 67c-43 -33 -122 -80 -181 -80c-78 16 -129 68 -129 154c0 28 7 59 18 79zM174 171c0 -54 20 -87 61 -100c31 0 99 35 122 58
v100c-63 -1 -134 -14 -180 -29c-2 -6 -3 -23 -3 -29z" />
    <glyph glyph-name="acircumflex" unicode="&#xe2;" horiz-adv-x="594" 
d="M85 629c48 64 106 134 162 196h85c37 -43 129 -151 160 -194l-29 -35l-16 -2l-160 130l-157 -130l-17 2zM71 220c47 33 190 62 287 64c1 62 0 128 -4 148c-19 11 -47 16 -81 16c-27 0 -61 -6 -83 -13l-8 -92l-74 -11c-19 36 -31 70 -40 104l21 43c54 26 171 54 238 59
c105 -8 158 -61 158 -151c0 -37 -5 -126 -5 -182c0 -43 1 -105 11 -124c3 -8 32 -16 73 -31l-11 -50h-153c-4 8 -35 57 -37 67c-43 -33 -122 -80 -181 -80c-78 16 -129 68 -129 154c0 28 7 59 18 79zM174 171c0 -54 20 -87 61 -100c31 0 99 35 122 58v100
c-63 -1 -134 -14 -180 -29c-2 -6 -3 -23 -3 -29z" />
    <glyph glyph-name="adieresis" unicode="&#xe4;" horiz-adv-x="594" 
d="M247 720c0 -37 -43 -83 -75 -83c-41 0 -86 34 -86 69c0 46 44 89 80 89c34 0 81 -35 81 -75zM491 720c0 -37 -42 -83 -75 -83c-41 0 -86 34 -86 69c0 46 44 89 81 89c34 0 80 -35 80 -75zM71 220c47 33 190 62 287 64c1 62 0 128 -4 148c-19 11 -47 16 -81 16
c-27 0 -61 -6 -83 -13l-8 -92l-74 -11c-19 36 -31 70 -40 104l21 43c54 26 171 54 238 59c105 -8 158 -61 158 -151c0 -37 -5 -126 -5 -182c0 -43 1 -105 11 -124c3 -8 32 -16 73 -31l-11 -50h-153c-4 8 -35 57 -37 67c-43 -33 -122 -80 -181 -80c-78 16 -129 68 -129 154
c0 28 7 59 18 79zM174 171c0 -54 20 -87 61 -100c31 0 99 35 122 58v100c-63 -1 -134 -14 -180 -29c-2 -6 -3 -23 -3 -29z" />
    <glyph glyph-name="adotbelow" unicode="&#x1ea1;" horiz-adv-x="594" 
d="M71 220c47 33 190 62 287 64c1 62 0 128 -4 148c-19 11 -47 16 -81 16c-27 0 -61 -6 -83 -13l-8 -92l-74 -11c-19 36 -31 70 -40 104l21 43c54 26 171 54 238 59c105 -8 158 -61 158 -151c0 -37 -5 -126 -5 -182c0 -43 1 -105 11 -124c3 -8 32 -16 73 -31l-11 -50h-153
c-4 8 -35 57 -37 67c-43 -33 -122 -80 -181 -80c-78 16 -129 68 -129 154c0 28 7 59 18 79zM174 171c0 -54 20 -87 61 -100c31 0 99 35 122 58v100c-63 -1 -134 -14 -180 -29c-2 -6 -3 -23 -3 -29zM302 -85c33 0 81 -41 81 -80s-48 -85 -83 -85c-36 0 -85 39 -85 78
s52 87 87 87z" />
    <glyph glyph-name="agrave" unicode="&#xe0;" horiz-adv-x="594" 
d="M439 641l-20 -40l-15 -4l-257 123l-9 29c13 28 40 64 60 84c81 -58 171 -130 241 -192zM71 220c47 33 190 62 287 64c1 62 0 128 -4 148c-19 11 -47 16 -81 16c-27 0 -61 -6 -83 -13l-8 -92l-74 -11c-19 36 -31 70 -40 104l21 43c54 26 171 54 238 59
c105 -8 158 -61 158 -151c0 -37 -5 -126 -5 -182c0 -43 1 -105 11 -124c3 -8 32 -16 73 -31l-11 -50h-153c-4 8 -35 57 -37 67c-43 -33 -122 -80 -181 -80c-78 16 -129 68 -129 154c0 28 7 59 18 79zM174 171c0 -54 20 -87 61 -100c31 0 99 35 122 58v100
c-63 -1 -134 -14 -180 -29c-2 -6 -3 -23 -3 -29z" />
    <glyph glyph-name="amacron" unicode="&#x101;" horiz-adv-x="594" 
d="M486 758v-86l-380 -4l-15 15l9 78zM71 220c47 33 190 62 287 64c1 62 0 128 -4 148c-19 11 -47 16 -81 16c-27 0 -61 -6 -83 -13l-8 -92l-74 -11c-19 36 -31 70 -40 104l21 43c54 26 171 54 238 59c105 -8 158 -61 158 -151c0 -37 -5 -126 -5 -182c0 -43 1 -105 11 -124
c3 -8 32 -16 73 -31l-11 -50h-153c-4 8 -35 57 -37 67c-43 -33 -122 -80 -181 -80c-78 16 -129 68 -129 154c0 28 7 59 18 79zM174 171c0 -54 20 -87 61 -100c31 0 99 35 122 58v100c-63 -1 -134 -14 -180 -29c-2 -6 -3 -23 -3 -29z" />
    <glyph glyph-name="aogonek" unicode="&#x105;" horiz-adv-x="594" 
d="M71 220c47 33 190 62 287 64c1 62 0 128 -4 148c-19 11 -47 16 -81 16c-27 0 -61 -6 -83 -13l-8 -92l-74 -11c-19 36 -31 70 -40 104l21 43c54 26 171 54 238 59c105 -8 158 -61 158 -151c0 -37 -5 -126 -5 -182c0 -43 1 -105 11 -124c3 -8 32 -16 73 -31l-11 -50
c-75 -53 -115 -95 -115 -135c0 -14 6 -24 18 -29c32 5 65 16 89 24l18 -45c-26 -27 -69 -52 -118 -58c-65 1 -106 33 -106 86c0 59 43 113 113 157h-52c-4 8 -35 57 -37 67c-43 -33 -122 -80 -181 -80c-78 16 -129 68 -129 154c0 28 7 59 18 79zM174 171
c0 -54 20 -87 61 -100c31 0 99 35 122 58v100c-63 -1 -134 -14 -180 -29c-2 -6 -3 -23 -3 -29z" />
    <glyph glyph-name="aring" unicode="&#xe5;" horiz-adv-x="594" 
d="M289 608c-59 0 -109 46 -109 107c0 55 50 108 109 108c60 0 108 -53 108 -108c0 -61 -48 -107 -108 -107zM289 675c23 0 41 17 41 40c0 21 -18 40 -41 40s-41 -19 -41 -40c0 -23 18 -40 41 -40zM71 220c47 33 190 62 287 64c1 62 0 128 -4 148c-19 11 -47 16 -81 16
c-27 0 -61 -6 -83 -13l-8 -92l-74 -11c-19 36 -31 70 -40 104l21 43c54 26 171 54 238 59c105 -8 158 -61 158 -151c0 -37 -5 -126 -5 -182c0 -43 1 -105 11 -124c3 -8 32 -16 73 -31l-11 -50h-153c-4 8 -35 57 -37 67c-43 -33 -122 -80 -181 -80c-78 16 -129 68 -129 154
c0 28 7 59 18 79zM174 171c0 -54 20 -87 61 -100c31 0 99 35 122 58v100c-63 -1 -134 -14 -180 -29c-2 -6 -3 -23 -3 -29z" />
    <glyph glyph-name="aringacute" unicode="&#x1fb;" horiz-adv-x="594" 
d="M128 908c79 49 180 106 269 150c16 -24 38 -63 46 -92l-13 -28l-274 -80l-15 7zM289 608c-59 0 -109 46 -109 107c0 55 50 108 109 108c60 0 108 -53 108 -108c0 -61 -48 -107 -108 -107zM289 675c23 0 41 17 41 40c0 21 -18 40 -41 40s-41 -19 -41 -40
c0 -23 18 -40 41 -40zM71 220c47 33 190 62 287 64c1 62 0 128 -4 148c-19 11 -47 16 -81 16c-27 0 -61 -6 -83 -13l-8 -92l-74 -11c-19 36 -31 70 -40 104l21 43c54 26 171 54 238 59c105 -8 158 -61 158 -151c0 -37 -5 -126 -5 -182c0 -43 1 -105 11 -124
c3 -8 32 -16 73 -31l-11 -50h-153c-4 8 -35 57 -37 67c-43 -33 -122 -80 -181 -80c-78 16 -129 68 -129 154c0 28 7 59 18 79zM174 171c0 -54 20 -87 61 -100c31 0 99 35 122 58v100c-63 -1 -134 -14 -180 -29c-2 -6 -3 -23 -3 -29z" />
    <glyph glyph-name="atilde" unicode="&#xe3;" horiz-adv-x="594" 
d="M77 657c27 42 90 129 110 129c44 0 140 -31 200 -53l76 73l37 -28v-26c-32 -51 -83 -128 -117 -128c-39 0 -133 43 -200 67l-57 -64l-17 1zM71 220c47 33 190 62 287 64c1 62 0 128 -4 148c-19 11 -47 16 -81 16c-27 0 -61 -6 -83 -13l-8 -92l-74 -11
c-19 36 -31 70 -40 104l21 43c54 26 171 54 238 59c105 -8 158 -61 158 -151c0 -37 -5 -126 -5 -182c0 -43 1 -105 11 -124c3 -8 32 -16 73 -31l-11 -50h-153c-4 8 -35 57 -37 67c-43 -33 -122 -80 -181 -80c-78 16 -129 68 -129 154c0 28 7 59 18 79zM174 171
c0 -54 20 -87 61 -100c31 0 99 35 122 58v100c-63 -1 -134 -14 -180 -29c-2 -6 -3 -23 -3 -29z" />
    <glyph glyph-name="ae" unicode="&#xe6;" horiz-adv-x="870" 
d="M819 87c-51 -39 -134 -85 -223 -100c-84 4 -155 40 -197 106c-57 -46 -145 -106 -213 -106c-80 17 -133 68 -133 153c0 29 7 59 18 79c56 36 183 58 286 65c0 62 0 128 -5 148c-18 11 -46 16 -80 16c-27 0 -61 -6 -84 -13l-7 -92l-74 -11c-19 36 -32 70 -41 104l22 43
c53 26 168 54 235 59c62 -4 105 -30 125 -71c40 45 96 71 159 71c118 0 205 -70 205 -211c0 -18 -1 -33 -3 -52l-22 -22l-303 -15c5 -90 70 -141 150 -149c44 6 116 26 160 43zM595 457c-29 0 -56 -10 -76 -25c-20 -32 -35 -89 -36 -139l208 20c1 8 2 19 2 30
c0 74 -32 114 -98 114zM174 171c0 -54 22 -87 64 -100c34 0 101 38 136 73c-9 25 -15 54 -17 86c-71 -6 -123 -13 -180 -31c-2 -5 -3 -22 -3 -28z" />
    <glyph glyph-name="aeacute" unicode="&#x1fd;" horiz-adv-x="870" 
d="M303 641c70 62 161 134 242 192c20 -20 46 -56 60 -84l-10 -29l-257 -123l-15 4zM819 87c-51 -39 -134 -85 -223 -100c-84 4 -155 40 -197 106c-57 -46 -145 -106 -213 -106c-80 17 -133 68 -133 153c0 29 7 59 18 79c56 36 183 58 286 65c0 62 0 128 -5 148
c-18 11 -46 16 -80 16c-27 0 -61 -6 -84 -13l-7 -92l-74 -11c-19 36 -32 70 -41 104l22 43c53 26 168 54 235 59c62 -4 105 -30 125 -71c40 45 96 71 159 71c118 0 205 -70 205 -211c0 -18 -1 -33 -3 -52l-22 -22l-303 -15c5 -90 70 -141 150 -149c44 6 116 26 160 43z
M595 457c-29 0 -56 -10 -76 -25c-20 -32 -35 -89 -36 -139l208 20c1 8 2 19 2 30c0 74 -32 114 -98 114zM174 171c0 -54 22 -87 64 -100c34 0 101 38 136 73c-9 25 -15 54 -17 86c-71 -6 -123 -13 -180 -31c-2 -5 -3 -22 -3 -28z" />
    <glyph glyph-name="b" unicode="b" horiz-adv-x="639" 
d="M94 35v488c0 50 -1 130 -9 139c-8 10 -53 20 -79 27l10 50l201 34v-318c55 40 119 74 170 83c115 -6 198 -91 198 -269c0 -163 -98 -282 -265 -282c-80 0 -170 24 -226 48zM329 71c35 0 67 10 89 26c18 27 38 82 38 164c0 102 -38 174 -121 174c-35 0 -83 -19 -118 -41
v-291c33 -19 69 -32 112 -32z" />
    <glyph glyph-name="c" unicode="c" horiz-adv-x="542" 
d="M337 89c40 6 104 27 144 43l25 -45c-45 -39 -124 -86 -207 -100c-148 10 -248 102 -248 269c0 162 116 282 262 282c73 0 124 -22 167 -55l11 -34c-9 -42 -17 -83 -29 -120c-21 -3 -52 -2 -74 1l-17 104c-22 9 -41 12 -69 12s-60 -5 -84 -18c-25 -40 -38 -93 -38 -150
c0 -124 70 -181 157 -189z" />
    <glyph glyph-name="cacute" unicode="&#x107;" horiz-adv-x="542" 
d="M140 641c69 62 160 134 241 192c20 -20 47 -56 60 -84l-9 -29l-257 -123l-15 4zM337 89c40 6 104 27 144 43l25 -45c-45 -39 -124 -86 -207 -100c-148 10 -248 102 -248 269c0 162 116 282 262 282c73 0 124 -22 167 -55l11 -34c-9 -42 -17 -83 -29 -120
c-21 -3 -52 -2 -74 1l-17 104c-22 9 -41 12 -69 12s-60 -5 -84 -18c-25 -40 -38 -93 -38 -150c0 -124 70 -181 157 -189z" />
    <glyph glyph-name="ccaron" unicode="&#x10d;" horiz-adv-x="542" 
d="M494 801c-48 -65 -105 -134 -162 -196l-85 -1c-37 43 -129 151 -160 195l29 35l16 2l160 -131l157 131l17 -2zM337 89c40 6 104 27 144 43l25 -45c-45 -39 -124 -86 -207 -100c-148 10 -248 102 -248 269c0 162 116 282 262 282c73 0 124 -22 167 -55l11 -34
c-9 -42 -17 -83 -29 -120c-21 -3 -52 -2 -74 1l-17 104c-22 9 -41 12 -69 12s-60 -5 -84 -18c-25 -40 -38 -93 -38 -150c0 -124 70 -181 157 -189z" />
    <glyph glyph-name="ccedilla" unicode="&#xe7;" horiz-adv-x="542" 
d="M337 89c40 6 104 27 144 43l25 -45c-43 -37 -115 -80 -192 -97l-18 -59c10 2 20 3 30 3c64 0 105 -32 105 -85c0 -67 -44 -109 -140 -110c-51 1 -88 10 -116 25l17 52c30 -7 54 -10 80 -10c16 0 32 1 45 6c5 8 8 16 8 27c0 22 -16 34 -52 34c-15 0 -29 -2 -40 -5l-22 20
l32 107c-116 27 -192 116 -192 261c0 162 116 282 262 282c73 0 124 -22 167 -55l11 -34c-9 -42 -17 -83 -29 -120c-21 -3 -52 -2 -74 1l-17 104c-22 9 -41 12 -69 12s-60 -5 -84 -18c-25 -40 -38 -93 -38 -150c0 -124 70 -181 157 -189z" />
    <glyph glyph-name="ccircumflex" unicode="&#x109;" horiz-adv-x="542" 
d="M87 629c48 64 105 134 162 196h84c38 -43 130 -151 161 -194l-29 -35l-17 -2l-159 130l-157 -130l-17 2zM337 89c40 6 104 27 144 43l25 -45c-45 -39 -124 -86 -207 -100c-148 10 -248 102 -248 269c0 162 116 282 262 282c73 0 124 -22 167 -55l11 -34
c-9 -42 -17 -83 -29 -120c-21 -3 -52 -2 -74 1l-17 104c-22 9 -41 12 -69 12s-60 -5 -84 -18c-25 -40 -38 -93 -38 -150c0 -124 70 -181 157 -189z" />
    <glyph glyph-name="cdotaccent" unicode="&#x10b;" horiz-adv-x="542" 
d="M293 798c33 0 81 -41 81 -79c0 -39 -48 -86 -83 -86c-36 0 -85 40 -85 79s52 86 87 86zM337 89c40 6 104 27 144 43l25 -45c-45 -39 -124 -86 -207 -100c-148 10 -248 102 -248 269c0 162 116 282 262 282c73 0 124 -22 167 -55l11 -34c-9 -42 -17 -83 -29 -120
c-21 -3 -52 -2 -74 1l-17 104c-22 9 -41 12 -69 12s-60 -5 -84 -18c-25 -40 -38 -93 -38 -150c0 -124 70 -181 157 -189z" />
    <glyph glyph-name="d" unicode="d" horiz-adv-x="657" 
d="M542 773v-568c0 -43 2 -105 11 -124c4 -8 33 -16 73 -31l-10 -50h-154c-4 8 -35 57 -37 67c-42 -33 -120 -80 -178 -80c-105 17 -196 102 -196 261c0 172 115 290 268 290c40 0 69 -5 101 -13c0 51 -2 128 -10 137c-7 10 -52 20 -79 27l11 50zM180 256
c0 -95 39 -160 109 -185c31 1 103 35 131 56v308c-29 10 -61 16 -97 16c-42 0 -82 -8 -107 -28c-20 -41 -36 -95 -36 -167z" />
    <glyph glyph-name="dcaron" unicode="&#x10f;" horiz-adv-x="816" 
d="M542 773v-568c0 -43 2 -105 11 -124c4 -8 33 -16 73 -31l-10 -50h-154c-4 8 -35 57 -37 67c-42 -33 -120 -80 -178 -80c-105 17 -196 102 -196 261c0 172 115 290 268 290c40 0 69 -5 101 -13c0 51 -2 128 -10 137c-7 10 -52 20 -79 27l11 50zM702 772
c42 0 83 -36 83 -83c0 -58 -54 -149 -96 -201l-44 18c12 41 30 96 35 134l-63 39c4 50 41 93 85 93zM180 256c0 -95 39 -160 109 -185c31 1 103 35 131 56v308c-29 10 -61 16 -97 16c-42 0 -82 -8 -107 -28c-20 -41 -36 -95 -36 -167z" />
    <glyph glyph-name="ddotbelow" unicode="&#x1e0d;" horiz-adv-x="657" 
d="M542 773v-568c0 -43 2 -105 11 -124c4 -8 33 -16 73 -31l-10 -50h-154c-4 8 -35 57 -37 67c-42 -33 -120 -80 -178 -80c-105 17 -196 102 -196 261c0 172 115 290 268 290c40 0 69 -5 101 -13c0 51 -2 128 -10 137c-7 10 -52 20 -79 27l11 50zM180 256
c0 -95 39 -160 109 -185c31 1 103 35 131 56v308c-29 10 -61 16 -97 16c-42 0 -82 -8 -107 -28c-20 -41 -36 -95 -36 -167zM343 -85c33 0 81 -41 81 -80s-48 -85 -84 -85s-84 39 -84 78s52 87 87 87z" />
    <glyph glyph-name="dcroat" unicode="&#x111;" horiz-adv-x="657" 
d="M287 603l-15 15s8 43 8 44h140v3c0 23 -8 50 -16 68l10 19c34 7 87 11 128 12v-102h70l16 -15c0 -1 -8 -44 -9 -44h-77v-398c0 -43 2 -105 11 -124c4 -8 33 -16 73 -31l-10 -50h-154c-4 8 -35 57 -37 67c-42 -33 -120 -80 -178 -80c-105 17 -196 102 -196 261
c0 172 115 290 268 290c43 0 75 -7 101 -13v78h-133zM180 256c0 -95 39 -160 109 -185c31 1 103 35 131 56v308c-29 10 -61 16 -97 16c-42 0 -82 -8 -107 -28c-20 -41 -36 -95 -36 -167z" />
    <glyph glyph-name="e" unicode="e" horiz-adv-x="567" 
d="M516 87c-51 -39 -134 -85 -223 -100c-139 6 -242 99 -242 267s110 284 251 284c120 0 208 -71 208 -213c0 -17 -1 -33 -3 -52l-23 -23l-303 -11c5 -91 70 -142 150 -150c44 6 116 26 160 43zM292 457c-29 0 -56 -10 -76 -25c-20 -32 -35 -88 -36 -139l208 17
c1 9 2 21 2 32c0 75 -32 115 -98 115z" />
    <glyph glyph-name="eacute" unicode="&#xe9;" horiz-adv-x="567" 
d="M138 641c70 62 160 134 242 192c20 -20 46 -56 59 -84l-9 -29l-257 -123l-15 4zM516 87c-51 -39 -134 -85 -223 -100c-139 6 -242 99 -242 267s110 284 251 284c120 0 208 -71 208 -213c0 -17 -1 -33 -3 -52l-23 -23l-303 -11c5 -91 70 -142 150 -150c44 6 116 26 160 43
zM292 457c-29 0 -56 -10 -76 -25c-20 -32 -35 -88 -36 -139l208 17c1 9 2 21 2 32c0 75 -32 115 -98 115z" />
    <glyph glyph-name="ebreve" unicode="&#x115;" horiz-adv-x="567" 
d="M290 710c67 0 112 31 130 98l35 -5l10 -16c-6 -120 -87 -179 -180 -179c-97 0 -167 67 -169 193l46 6c16 -64 58 -97 128 -97zM516 87c-51 -39 -134 -85 -223 -100c-139 6 -242 99 -242 267s110 284 251 284c120 0 208 -71 208 -213c0 -17 -1 -33 -3 -52l-23 -23
l-303 -11c5 -91 70 -142 150 -150c44 6 116 26 160 43zM292 457c-29 0 -56 -10 -76 -25c-20 -32 -35 -88 -36 -139l208 17c1 9 2 21 2 32c0 75 -32 115 -98 115z" />
    <glyph glyph-name="ecaron" unicode="&#x11b;" horiz-adv-x="567" 
d="M492 801c-48 -65 -105 -134 -162 -196l-84 -1c-37 43 -130 151 -161 195l29 35l17 2l159 -131l158 131l16 -2zM516 87c-51 -39 -134 -85 -223 -100c-139 6 -242 99 -242 267s110 284 251 284c120 0 208 -71 208 -213c0 -17 -1 -33 -3 -52l-23 -23l-303 -11
c5 -91 70 -142 150 -150c44 6 116 26 160 43zM292 457c-29 0 -56 -10 -76 -25c-20 -32 -35 -88 -36 -139l208 17c1 9 2 21 2 32c0 75 -32 115 -98 115z" />
    <glyph glyph-name="ecircumflex" unicode="&#xea;" horiz-adv-x="567" 
d="M86 629c48 64 105 134 161 196h85c37 -43 130 -151 160 -194l-28 -35l-17 -2l-160 130l-157 -130l-16 2zM516 87c-51 -39 -134 -85 -223 -100c-139 6 -242 99 -242 267s110 284 251 284c120 0 208 -71 208 -213c0 -17 -1 -33 -3 -52l-23 -23l-303 -11
c5 -91 70 -142 150 -150c44 6 116 26 160 43zM292 457c-29 0 -56 -10 -76 -25c-20 -32 -35 -88 -36 -139l208 17c1 9 2 21 2 32c0 75 -32 115 -98 115z" />
    <glyph glyph-name="edieresis" unicode="&#xeb;" horiz-adv-x="567" 
d="M247 720c0 -37 -43 -83 -75 -83c-41 0 -86 34 -86 69c0 46 44 89 81 89c34 0 80 -35 80 -75zM491 720c0 -37 -42 -83 -74 -83c-42 0 -87 34 -87 69c0 46 44 89 81 89c34 0 80 -35 80 -75zM516 87c-51 -39 -134 -85 -223 -100c-139 6 -242 99 -242 267s110 284 251 284
c120 0 208 -71 208 -213c0 -17 -1 -33 -3 -52l-23 -23l-303 -11c5 -91 70 -142 150 -150c44 6 116 26 160 43zM292 457c-29 0 -56 -10 -76 -25c-20 -32 -35 -88 -36 -139l208 17c1 9 2 21 2 32c0 75 -32 115 -98 115z" />
    <glyph glyph-name="edotaccent" unicode="&#x117;" horiz-adv-x="567" 
d="M292 798c33 0 81 -41 81 -79c0 -39 -48 -86 -84 -86s-84 40 -84 79s52 86 87 86zM516 87c-51 -39 -134 -85 -223 -100c-139 6 -242 99 -242 267s110 284 251 284c120 0 208 -71 208 -213c0 -17 -1 -33 -3 -52l-23 -23l-303 -11c5 -91 70 -142 150 -150
c44 6 116 26 160 43zM292 457c-29 0 -56 -10 -76 -25c-20 -32 -35 -88 -36 -139l208 17c1 9 2 21 2 32c0 75 -32 115 -98 115z" />
    <glyph glyph-name="edotbelow" unicode="&#x1eb9;" horiz-adv-x="567" 
d="M516 87c-51 -39 -134 -85 -223 -100c-139 6 -242 99 -242 267s110 284 251 284c120 0 208 -71 208 -213c0 -17 -1 -33 -3 -52l-23 -23l-303 -11c5 -91 70 -142 150 -150c44 6 116 26 160 43zM292 457c-29 0 -56 -10 -76 -25c-20 -32 -35 -88 -36 -139l208 17
c1 9 2 21 2 32c0 75 -32 115 -98 115zM292 -85c32 0 80 -41 80 -80s-48 -85 -83 -85c-36 0 -85 39 -85 78s52 87 88 87z" />
    <glyph glyph-name="egrave" unicode="&#xe8;" horiz-adv-x="567" 
d="M439 641l-20 -40l-15 -4l-257 123l-9 29c13 28 40 64 60 84c81 -58 171 -130 241 -192zM516 87c-51 -39 -134 -85 -223 -100c-139 6 -242 99 -242 267s110 284 251 284c120 0 208 -71 208 -213c0 -17 -1 -33 -3 -52l-23 -23l-303 -11c5 -91 70 -142 150 -150
c44 6 116 26 160 43zM292 457c-29 0 -56 -10 -76 -25c-20 -32 -35 -88 -36 -139l208 17c1 9 2 21 2 32c0 75 -32 115 -98 115z" />
    <glyph glyph-name="emacron" unicode="&#x113;" horiz-adv-x="567" 
d="M487 758v-86l-381 -4l-15 15l9 78zM516 87c-51 -39 -134 -85 -223 -100c-139 6 -242 99 -242 267s110 284 251 284c120 0 208 -71 208 -213c0 -17 -1 -33 -3 -52l-23 -23l-303 -11c5 -91 70 -142 150 -150c44 6 116 26 160 43zM292 457c-29 0 -56 -10 -76 -25
c-20 -32 -35 -88 -36 -139l208 17c1 9 2 21 2 32c0 75 -32 115 -98 115z" />
    <glyph glyph-name="eogonek" unicode="&#x119;" horiz-adv-x="567" 
d="M516 87c-121 -103 -162 -162 -162 -214c0 -17 6 -30 17 -37c34 5 68 15 94 24l18 -45c-26 -28 -72 -53 -123 -58c-65 1 -106 34 -106 89c0 50 29 102 91 153c-17 -5 -34 -9 -52 -12c-139 6 -242 99 -242 267s110 284 251 284c120 0 208 -71 208 -213c0 -17 -1 -33 -3 -52
l-23 -23l-303 -11c5 -91 70 -142 150 -150c44 6 116 26 160 43zM292 457c-29 0 -56 -10 -76 -25c-20 -32 -35 -88 -36 -139l208 17c1 9 2 21 2 32c0 75 -32 115 -98 115z" />
    <glyph glyph-name="etilde" unicode="&#x1ebd;" horiz-adv-x="567" 
d="M78 657c26 42 89 129 110 129c43 0 139 -31 199 -53l77 73l36 -28v-26c-32 -51 -83 -128 -116 -128c-40 0 -133 43 -201 67l-57 -64l-17 1zM516 87c-51 -39 -134 -85 -223 -100c-139 6 -242 99 -242 267s110 284 251 284c120 0 208 -71 208 -213c0 -17 -1 -33 -3 -52
l-23 -23l-303 -11c5 -91 70 -142 150 -150c44 6 116 26 160 43zM292 457c-29 0 -56 -10 -76 -25c-20 -32 -35 -88 -36 -139l208 17c1 9 2 21 2 32c0 75 -32 115 -98 115z" />
    <glyph glyph-name="eth" unicode="&#xf0;" horiz-adv-x="616" 
d="M51 253c0 170 98 285 236 285c46 0 83 -13 109 -37c-21 52 -53 96 -94 129l-161 -73l-19 9s-12 40 -12 42l134 60c-34 17 -72 29 -113 36l-14 13l10 54c83 -2 156 -23 218 -57l124 56l22 -8l9 -41l-99 -45c104 -84 164 -216 164 -379c0 -187 -87 -310 -268 -310
c-144 0 -246 96 -246 266zM437 279c0 114 -39 179 -125 179c-36 0 -70 -12 -90 -30c-25 -35 -42 -93 -42 -165c0 -118 40 -192 127 -192c37 0 69 10 90 27c25 34 40 102 40 181z" />
    <glyph glyph-name="f" unicode="f" horiz-adv-x="425" 
d="M26 50l84 26c2 12 7 119 7 153v194l-76 4l-3 44l79 23v30c0 152 145 237 195 249c49 -5 114 -31 146 -51c-7 -24 -31 -67 -46 -89l-24 -1c-39 16 -86 34 -127 44c-21 -11 -38 -37 -38 -77l12 -107l146 5l15 -15l-11 -61l-146 3v-195c0 -50 4 -135 12 -147
c10 -13 61 -22 103 -32l-11 -50h-306z" />
    <glyph glyph-name="g" unicode="g" horiz-adv-x="547" 
d="M475 335c0 -130 -97 -190 -210 -190c-29 0 -55 3 -80 9v-84c40 0 96 1 152 1s121 -8 152 -24c22 -29 33 -61 33 -97c0 -107 -86 -198 -252 -198c-229 0 -256 111 -253 209c20 9 54 17 97 22c-31 22 -44 51 -44 86c0 28 38 75 66 102c-58 29 -91 83 -91 160
c0 126 96 207 223 207c33 0 59 -5 80 -12c46 16 115 37 162 39c13 -14 22 -36 22 -64c0 -14 -2 -20 -3 -29l-20 -12l-99 17l-4 -7c37 -22 69 -70 69 -135zM189 437c-13 -22 -23 -57 -23 -96c0 -84 34 -121 99 -121c32 0 53 7 69 19c11 19 24 57 24 98c0 86 -31 124 -97 124
c-29 0 -58 -11 -72 -24zM164 -148c21 -20 66 -27 121 -27c45 0 87 9 108 23c10 16 17 40 17 62c0 32 -12 54 -51 54h-211v-19c0 -42 4 -76 16 -93z" />
    <glyph glyph-name="gacute" unicode="&#x1f5;" horiz-adv-x="547" 
d="M132 641c70 62 160 134 242 192c20 -20 46 -56 59 -84l-9 -29l-257 -123l-15 4zM475 335c0 -130 -97 -190 -210 -190c-29 0 -55 3 -80 9v-84c40 0 96 1 152 1s121 -8 152 -24c22 -29 33 -61 33 -97c0 -107 -86 -198 -252 -198c-229 0 -256 111 -253 209c20 9 54 17 97 22
c-31 22 -44 51 -44 86c0 28 38 75 66 102c-58 29 -91 83 -91 160c0 126 96 207 223 207c33 0 59 -5 80 -12c46 16 115 37 162 39c13 -14 22 -36 22 -64c0 -14 -2 -20 -3 -29l-20 -12l-99 17l-4 -7c37 -22 69 -70 69 -135zM189 437c-13 -22 -23 -57 -23 -96
c0 -84 34 -121 99 -121c32 0 53 7 69 19c11 19 24 57 24 98c0 86 -31 124 -97 124c-29 0 -58 -11 -72 -24zM164 -148c21 -20 66 -27 121 -27c45 0 87 9 108 23c10 16 17 40 17 62c0 32 -12 54 -51 54h-211v-19c0 -42 4 -76 16 -93z" />
    <glyph glyph-name="gbreve" unicode="&#x11f;" horiz-adv-x="547" 
d="M278 710c67 0 112 31 131 98l34 -5l10 -16c-6 -120 -86 -179 -180 -179c-97 0 -167 67 -169 193l46 6c17 -64 58 -97 128 -97zM475 335c0 -130 -97 -190 -210 -190c-29 0 -55 3 -80 9v-84c40 0 96 1 152 1s121 -8 152 -24c22 -29 33 -61 33 -97
c0 -107 -86 -198 -252 -198c-229 0 -256 111 -253 209c20 9 54 17 97 22c-31 22 -44 51 -44 86c0 28 38 75 66 102c-58 29 -91 83 -91 160c0 126 96 207 223 207c33 0 59 -5 80 -12c46 16 115 37 162 39c13 -14 22 -36 22 -64c0 -14 -2 -20 -3 -29l-20 -12l-99 17l-4 -7
c37 -22 69 -70 69 -135zM189 437c-13 -22 -23 -57 -23 -96c0 -84 34 -121 99 -121c32 0 53 7 69 19c11 19 24 57 24 98c0 86 -31 124 -97 124c-29 0 -58 -11 -72 -24zM164 -148c21 -20 66 -27 121 -27c45 0 87 9 108 23c10 16 17 40 17 62c0 32 -12 54 -51 54h-211v-19
c0 -42 4 -76 16 -93z" />
    <glyph glyph-name="gcaron" unicode="&#x1e7;" horiz-adv-x="547" 
d="M480 801c-48 -65 -105 -134 -161 -196l-85 -1c-37 43 -130 151 -160 195l28 35l17 2l160 -131l157 131l16 -2zM475 335c0 -130 -97 -190 -210 -190c-29 0 -55 3 -80 9v-84c40 0 96 1 152 1s121 -8 152 -24c22 -29 33 -61 33 -97c0 -107 -86 -198 -252 -198
c-229 0 -256 111 -253 209c20 9 54 17 97 22c-31 22 -44 51 -44 86c0 28 38 75 66 102c-58 29 -91 83 -91 160c0 126 96 207 223 207c33 0 59 -5 80 -12c46 16 115 37 162 39c13 -14 22 -36 22 -64c0 -14 -2 -20 -3 -29l-20 -12l-99 17l-4 -7c37 -22 69 -70 69 -135z
M189 437c-13 -22 -23 -57 -23 -96c0 -84 34 -121 99 -121c32 0 53 7 69 19c11 19 24 57 24 98c0 86 -31 124 -97 124c-29 0 -58 -11 -72 -24zM164 -148c21 -20 66 -27 121 -27c45 0 87 9 108 23c10 16 17 40 17 62c0 32 -12 54 -51 54h-211v-19c0 -42 4 -76 16 -93z" />
    <glyph glyph-name="gcircumflex" unicode="&#x11d;" horiz-adv-x="547" 
d="M74 646c48 65 105 134 162 196l84 1c37 -43 130 -151 161 -195l-29 -35l-17 -2l-159 131l-158 -131l-16 2zM475 335c0 -130 -97 -190 -210 -190c-29 0 -55 3 -80 9v-84c40 0 96 1 152 1s121 -8 152 -24c22 -29 33 -61 33 -97c0 -107 -86 -198 -252 -198
c-229 0 -256 111 -253 209c20 9 54 17 97 22c-31 22 -44 51 -44 86c0 28 38 75 66 102c-58 29 -91 83 -91 160c0 126 96 207 223 207c33 0 59 -5 80 -12c46 16 115 37 162 39c13 -14 22 -36 22 -64c0 -14 -2 -20 -3 -29l-20 -12l-99 17l-4 -7c37 -22 69 -70 69 -135z
M189 437c-13 -22 -23 -57 -23 -96c0 -84 34 -121 99 -121c32 0 53 7 69 19c11 19 24 57 24 98c0 86 -31 124 -97 124c-29 0 -58 -11 -72 -24zM164 -148c21 -20 66 -27 121 -27c45 0 87 9 108 23c10 16 17 40 17 62c0 32 -12 54 -51 54h-211v-19c0 -42 4 -76 16 -93z" />
    <glyph glyph-name="gcommaaccent" unicode="&#x123;" horiz-adv-x="547" 
d="M475 335c0 -130 -97 -190 -210 -190c-29 0 -55 3 -80 9v-84c40 0 96 1 152 1s121 -8 152 -24c22 -29 33 -61 33 -97c0 -107 -86 -198 -252 -198c-229 0 -256 111 -253 209c20 9 54 17 97 22c-31 22 -44 51 -44 86c0 28 38 75 66 102c-58 29 -91 83 -91 160
c0 126 96 207 223 207c33 0 59 -5 80 -12c46 16 115 37 162 39c13 -14 22 -36 22 -64c0 -14 -2 -20 -3 -29l-20 -12l-99 17l-4 -7c37 -22 69 -70 69 -135zM189 437c-13 -22 -23 -57 -23 -96c0 -84 34 -121 99 -121c32 0 53 7 69 19c11 19 24 57 24 98c0 86 -31 124 -97 124
c-29 0 -58 -11 -72 -24zM164 -148c21 -20 66 -27 121 -27c45 0 87 9 108 23c10 16 17 40 17 62c0 32 -12 54 -51 54h-211v-19c0 -42 4 -76 16 -93zM285 -307c36 0 83 -38 83 -80c-1 -66 -66 -165 -113 -220l-42 29c18 35 36 75 47 111c-32 11 -60 39 -60 67
c0 48 46 93 85 93z" />
    <glyph glyph-name="gdotaccent" unicode="&#x121;" horiz-adv-x="547" 
d="M280 798c33 0 81 -41 81 -79c0 -39 -48 -86 -83 -86c-36 0 -85 40 -85 79s52 86 87 86zM475 335c0 -130 -97 -190 -210 -190c-29 0 -55 3 -80 9v-84c40 0 96 1 152 1s121 -8 152 -24c22 -29 33 -61 33 -97c0 -107 -86 -198 -252 -198c-229 0 -256 111 -253 209
c20 9 54 17 97 22c-31 22 -44 51 -44 86c0 28 38 75 66 102c-58 29 -91 83 -91 160c0 126 96 207 223 207c33 0 59 -5 80 -12c46 16 115 37 162 39c13 -14 22 -36 22 -64c0 -14 -2 -20 -3 -29l-20 -12l-99 17l-4 -7c37 -22 69 -70 69 -135zM189 437c-13 -22 -23 -57 -23 -96
c0 -84 34 -121 99 -121c32 0 53 7 69 19c11 19 24 57 24 98c0 86 -31 124 -97 124c-29 0 -58 -11 -72 -24zM164 -148c21 -20 66 -27 121 -27c45 0 87 9 108 23c10 16 17 40 17 62c0 32 -12 54 -51 54h-211v-19c0 -42 4 -76 16 -93z" />
    <glyph glyph-name="h" unicode="h" horiz-adv-x="686" 
d="M18 50l80 25c4 21 8 82 8 135v313c0 50 -2 130 -10 139c-7 10 -52 20 -79 27l11 50l200 34v-325c58 40 154 84 211 90c75 -11 118 -51 131 -113c1 -34 -4 -119 -4 -218c0 -44 0 -109 8 -122c7 -12 52 -27 81 -35l-10 -50h-184l-22 22c1 38 4 126 4 188c0 65 2 174 -5 194
c-10 10 -35 18 -71 18c-44 0 -97 -13 -139 -35v-177c0 -44 3 -120 9 -128c3 -9 49 -23 79 -32l-11 -50h-277z" />
    <glyph glyph-name="hbar" unicode="&#x127;" horiz-adv-x="686" 
d="M31 591l-15 16s7 42 8 43h82v15c0 23 -8 50 -16 68l10 19c34 7 87 11 128 12v-114h128l15 -15s-8 -43 -8 -44h-135v-143c58 40 154 84 211 90c75 -11 118 -51 131 -113c1 -34 -4 -119 -4 -218c0 -44 0 -109 8 -122c7 -12 52 -27 81 -35l-10 -50h-184l-22 22
c1 38 4 126 4 188c0 65 2 174 -5 194c-10 10 -35 18 -71 18c-44 0 -97 -13 -139 -35v-177c0 -44 3 -120 9 -128c3 -9 49 -23 79 -32l-11 -50h-277l-10 50l80 25c4 21 8 82 8 135v381h-75z" />
    <glyph glyph-name="hcircumflex" unicode="&#x125;" horiz-adv-x="686" 
d="M-72 824c55 62 121 129 183 188l83 1c41 -39 147 -146 182 -186l-25 -37l-17 -4l-184 125l-181 -125l-17 4zM18 50l80 25c4 21 8 82 8 135v313c0 50 -2 130 -10 139c-7 10 -52 20 -79 27l11 50l200 34v-325c58 40 154 84 211 90c75 -11 118 -51 131 -113
c1 -34 -4 -119 -4 -218c0 -44 0 -109 8 -122c7 -12 52 -27 81 -35l-10 -50h-184l-22 22c1 38 4 126 4 188c0 65 2 174 -5 194c-10 10 -35 18 -71 18c-44 0 -97 -13 -139 -35v-177c0 -44 3 -120 9 -128c3 -9 49 -23 79 -32l-11 -50h-277z" />
    <glyph glyph-name="hdotbelow" unicode="&#x1e25;" horiz-adv-x="686" 
d="M18 50l80 25c4 21 8 82 8 135v313c0 50 -2 130 -10 139c-7 10 -52 20 -79 27l11 50l200 34v-325c58 40 154 84 211 90c75 -11 118 -51 131 -113c1 -34 -4 -119 -4 -218c0 -44 0 -109 8 -122c7 -12 52 -27 81 -35l-10 -50h-184l-22 22c1 38 4 126 4 188c0 65 2 174 -5 194
c-10 10 -35 18 -71 18c-44 0 -97 -13 -139 -35v-177c0 -44 3 -120 9 -128c3 -9 49 -23 79 -32l-11 -50h-277zM364 -85c33 0 81 -41 81 -80s-48 -85 -83 -85c-36 0 -85 39 -85 78s52 87 87 87z" />
    <glyph glyph-name="i" unicode="i" horiz-adv-x="371" 
d="M165 798c32 0 80 -41 80 -79c0 -39 -48 -86 -83 -86c-36 0 -85 40 -85 79s52 86 88 86zM36 50l81 26c3 20 7 81 7 134v78c0 50 -1 130 -9 139c-8 10 -53 20 -79 27l10 50l201 34v-328c0 -44 3 -120 9 -127c3 -10 49 -24 79 -33l-11 -50h-277z" />
    <glyph glyph-name="iacute" unicode="&#xed;" horiz-adv-x="371" 
d="M36 624c51 69 113 149 174 217c24 -15 57 -42 77 -67l-2 -31l-204 -154l-18 1zM36 50l81 26c3 20 7 81 7 134v78c0 50 -1 130 -9 139c-8 10 -53 20 -79 27l10 50l201 34v-328c0 -44 3 -120 9 -127c3 -10 49 -24 79 -33l-11 -50h-277z" />
    <glyph glyph-name="ibreve" unicode="&#x12d;" horiz-adv-x="371" 
d="M164 716c55 0 89 34 104 100l34 -5l10 -15c-3 -121 -71 -182 -154 -182c-85 0 -144 68 -148 193l47 6c18 -62 48 -97 107 -97zM36 50l81 26c3 20 7 81 7 134v78c0 50 -1 130 -9 139c-8 10 -53 20 -79 27l10 50l201 34v-328c0 -44 3 -120 9 -127c3 -10 49 -24 79 -33
l-11 -50h-277z" />
    <glyph glyph-name="icaron" unicode="&#x1d0;" horiz-adv-x="371" 
d="M341 806c-37 -68 -81 -143 -127 -211h-85c-31 47 -102 162 -126 209l33 31h17l121 -131l119 130h16zM36 50l81 26c3 20 7 81 7 134v78c0 50 -1 130 -9 139c-8 10 -53 20 -79 27l10 50l201 34v-328c0 -44 3 -120 9 -127c3 -10 49 -24 79 -33l-11 -50h-277z" />
    <glyph glyph-name="icircumflex" unicode="&#xee;" horiz-adv-x="371" 
d="M-7 624c37 68 81 143 127 211h85c31 -47 102 -162 126 -209l-33 -31h-17l-121 131l-119 -130h-16zM36 50l81 26c3 20 7 81 7 134v78c0 50 -1 130 -9 139c-8 10 -53 20 -79 27l10 50l201 34v-328c0 -44 3 -120 9 -127c3 -10 49 -24 79 -33l-11 -50h-277z" />
    <glyph glyph-name="idieresis" unicode="&#xef;" horiz-adv-x="371" 
d="M56 641c-38 0 -80 31 -80 64c0 43 41 84 76 84c32 0 76 -33 76 -70c0 -35 -41 -78 -72 -78zM276 641c-39 0 -81 31 -81 64c0 43 41 84 76 84c33 0 76 -33 76 -70c0 -35 -40 -78 -71 -78zM36 50l81 26c3 20 7 81 7 134v78c0 50 -1 130 -9 139c-8 10 -53 20 -79 27l10 50
l201 34v-328c0 -44 3 -120 9 -127c3 -10 49 -24 79 -33l-11 -50h-277z" />
    <glyph glyph-name="idotbelow" unicode="&#x1ecb;" horiz-adv-x="371" 
d="M172 798c33 0 81 -41 81 -79c0 -39 -48 -86 -83 -86c-36 0 -85 40 -85 79s52 86 87 86zM36 50l81 26c3 20 7 81 7 134v78c0 50 -1 130 -9 139c-8 10 -53 20 -79 27l10 50l201 34v-328c0 -44 3 -120 9 -127c3 -10 49 -24 79 -33l-11 -50h-277zM172 -85c33 0 81 -41 81 -80
s-48 -85 -83 -85c-36 0 -85 39 -85 78s52 87 87 87z" />
    <glyph glyph-name="igrave" unicode="&#xec;" horiz-adv-x="371" 
d="M287 624l-27 -34l-17 -1l-205 154l-2 31c20 25 53 52 77 67c61 -68 124 -148 174 -217zM36 50l81 26c3 20 7 81 7 134v78c0 50 -1 130 -9 139c-8 10 -53 20 -79 27l10 50l201 34v-328c0 -44 3 -120 9 -127c3 -10 49 -24 79 -33l-11 -50h-277z" />
    <glyph glyph-name="imacron" unicode="&#x12b;" horiz-adv-x="371" 
d="M317 759v-87l-297 -3l-15 15l9 78zM36 50l81 26c3 20 7 81 7 134v78c0 50 -1 130 -9 139c-8 10 -53 20 -79 27l10 50l201 34v-328c0 -44 3 -120 9 -127c3 -10 49 -24 79 -33l-11 -50h-277z" />
    <glyph glyph-name="iogonek" unicode="&#x12f;" horiz-adv-x="371" 
d="M165 798c32 0 80 -41 80 -79c0 -39 -48 -86 -83 -86c-36 0 -85 40 -85 79s52 86 88 86zM36 50l81 26c3 20 7 81 7 134v78c0 50 -1 130 -9 139c-8 10 -53 20 -79 27l10 50l201 34v-328c0 -44 3 -120 9 -127c3 -10 49 -24 79 -33l-11 -50c-75 -53 -115 -95 -115 -135
c0 -14 5 -24 18 -29c32 5 64 16 89 24l18 -45c-26 -27 -69 -52 -119 -58c-65 1 -105 33 -105 86c0 59 43 113 113 157h-176z" />
    <glyph glyph-name="itilde" unicode="&#x129;" horiz-adv-x="371" 
d="M-21 656c21 48 79 130 96 130c33 0 98 -27 169 -52l61 70l38 -24l2 -27c-29 -58 -74 -129 -104 -129s-93 35 -166 65l-45 -61h-17zM36 50l81 26c3 20 7 81 7 134v78c0 50 -1 130 -9 139c-8 10 -53 20 -79 27l10 50l201 34v-328c0 -44 3 -120 9 -127c3 -10 49 -24 79 -33
l-11 -50h-277z" />
    <glyph glyph-name="dotlessi" unicode="&#x131;" horiz-adv-x="371" 
d="M36 50l81 26c3 20 7 81 7 134v78c0 50 -1 130 -9 139c-8 10 -53 20 -79 27l10 50l201 34v-328c0 -44 3 -120 9 -127c3 -10 49 -24 79 -33l-11 -50h-277z" />
    <glyph glyph-name="j" unicode="j" horiz-adv-x="331" 
d="M151 798c33 0 81 -41 81 -79c0 -39 -48 -86 -83 -86c-36 0 -85 40 -85 79s52 86 87 86zM95 -89c13 41 16 90 16 213v164c0 50 -2 130 -10 139c-7 10 -52 20 -79 27l11 50l200 34v-449c0 -165 -52 -238 -172 -337h-30c-17 17 -44 61 -55 91z" />
    <glyph glyph-name="dotlessj" unicode="&#x237;" horiz-adv-x="331" 
d="M95 -89c13 41 16 90 16 213v164c0 50 -2 130 -10 139c-7 10 -52 20 -79 27l11 50l200 34v-449c0 -165 -52 -238 -172 -337h-30c-17 17 -44 61 -55 91z" />
    <glyph glyph-name="jcircumflex" unicode="&#x135;" horiz-adv-x="331" 
d="M-24 624c37 68 81 143 127 211h85c31 -47 102 -162 126 -209l-33 -31h-17l-121 131l-119 -130h-16zM95 -89c13 41 16 90 16 213v164c0 50 -2 130 -10 139c-7 10 -52 20 -79 27l11 50l200 34v-449c0 -165 -52 -238 -172 -337h-30c-17 17 -44 61 -55 91z" />
    <glyph glyph-name="k" unicode="k" horiz-adv-x="651" 
d="M17 50l81 26c3 20 8 81 8 134v313c0 50 -2 130 -10 139c-7 10 -52 20 -79 27l11 50l200 34v-472l110 5l112 137l-93 32l11 50h228l10 -50l-177 -162c44 -82 100 -174 136 -233l76 -30l-11 -50c-60 0 -132 -2 -179 -4c-36 80 -91 176 -132 250l-91 3v-41
c0 -45 3 -118 9 -125c3 -10 49 -24 79 -33l-11 -50h-277z" />
    <glyph glyph-name="kcommaaccent" unicode="&#x137;" horiz-adv-x="651" 
d="M17 50l81 26c3 20 8 81 8 134v313c0 50 -2 130 -10 139c-7 10 -52 20 -79 27l11 50l200 34v-472l110 5l112 137l-93 32l11 50h228l10 -50l-177 -162c44 -82 100 -174 136 -233l76 -30l-11 -50c-60 0 -132 -2 -179 -4c-36 80 -91 176 -132 250l-91 3v-41
c0 -45 3 -118 9 -125c3 -10 49 -24 79 -33l-11 -50h-277zM357 -81c36 0 83 -38 83 -79c-1 -67 -66 -166 -113 -221l-42 29c18 36 36 76 47 112c-32 10 -60 38 -60 67c0 47 46 92 85 92z" />
    <glyph glyph-name="l" unicode="l" horiz-adv-x="344" 
d="M18 50l80 25c4 21 8 82 8 135v313c0 50 -2 130 -10 139c-7 10 -52 20 -79 27l11 50l200 34v-563c0 -44 3 -120 9 -128c3 -9 49 -23 79 -32l-11 -50h-277z" />
    <glyph glyph-name="lacute" unicode="&#x13a;" horiz-adv-x="344" 
d="M-16 869c78 49 180 106 269 150c16 -23 38 -62 46 -92l-13 -28l-274 -80l-15 8zM18 50l80 25c4 21 8 82 8 135v313c0 50 -2 130 -10 139c-7 10 -52 20 -79 27l11 50l200 34v-563c0 -44 3 -120 9 -128c3 -9 49 -23 79 -32l-11 -50h-277z" />
    <glyph glyph-name="lcaron" unicode="&#x13e;" horiz-adv-x="523" 
d="M18 50l80 25c4 21 8 82 8 135v313c0 50 -2 130 -10 139c-7 10 -52 20 -79 27l11 50l200 34v-563c0 -44 3 -120 9 -128c3 -9 49 -23 79 -32l-11 -50h-277zM409 772c43 0 83 -36 83 -83c0 -58 -54 -149 -96 -201l-43 18c12 41 29 96 34 134l-63 39c5 50 41 93 85 93z" />
    <glyph glyph-name="lcommaaccent" unicode="&#x13c;" horiz-adv-x="344" 
d="M18 50l80 25c4 21 8 82 8 135v313c0 50 -2 130 -10 139c-7 10 -52 20 -79 27l11 50l200 34v-563c0 -44 3 -120 9 -128c3 -9 49 -23 79 -32l-11 -50h-277zM170 -79c37 0 83 -39 83 -80c0 -66 -65 -166 -112 -221l-42 29c18 36 36 76 46 112c-32 11 -59 39 -59 67
c0 48 45 93 84 93z" />
    <glyph glyph-name="ldot" unicode="&#x140;" horiz-adv-x="499" 
d="M18 50l80 25c4 21 8 82 8 135v313c0 50 -2 130 -10 139c-7 10 -52 20 -79 27l11 50l200 34v-563c0 -44 3 -120 9 -128c3 -9 49 -23 79 -32l-11 -50h-277zM418 472c35 0 83 -38 83 -79c0 -38 -43 -87 -77 -87c-43 0 -90 36 -90 73c0 48 45 93 84 93z" />
    <glyph glyph-name="lslash" unicode="&#x142;" horiz-adv-x="344" 
d="M18 50l80 25c4 21 8 82 8 135v86l-53 -34l-20 5l-31 55l104 67v134c0 50 -2 130 -10 139c-7 10 -52 20 -79 27l11 50l200 34v-304l63 41l20 -4l31 -56l-114 -74v-166c0 -44 3 -120 9 -128c3 -9 49 -23 79 -32l-11 -50h-277z" />
    <glyph glyph-name="m" unicode="m" horiz-adv-x="1023" 
d="M36 50l80 26c4 20 8 81 8 134v78c0 50 -1 130 -9 139c-8 10 -53 20 -79 27l10 50l201 34v-90c56 39 147 85 201 90c64 -9 109 -41 128 -89c56 39 146 84 200 89c75 -11 119 -51 132 -113c1 -34 -5 -119 -5 -218c0 -44 0 -109 8 -122c7 -12 52 -27 81 -35l-10 -50h-184
l-22 22c1 38 4 126 4 188c0 65 2 175 -4 194c-11 10 -36 18 -72 18c-39 0 -85 -14 -125 -34c-2 -43 -4 -108 -4 -181c0 -44 0 -109 8 -122c7 -12 52 -27 81 -35l-10 -50h-184l-22 22c1 38 4 126 4 188c0 65 2 175 -4 194c-11 10 -36 18 -72 18c-41 0 -89 -14 -129 -35v-179
c0 -45 2 -118 8 -125c4 -10 50 -24 80 -33l-12 -50h-277z" />
    <glyph glyph-name="n" unicode="n" horiz-adv-x="705" 
d="M36 50l81 26c3 20 7 81 7 134v78c0 50 -1 130 -9 139c-8 10 -53 20 -79 27l10 50l201 34v-90c58 40 154 84 210 90c76 -11 119 -51 132 -113c1 -34 -4 -119 -4 -218c0 -44 0 -109 7 -122c8 -12 52 -27 82 -35l-11 -50h-183l-22 22c0 38 4 126 4 188c0 65 1 175 -5 194
c-11 10 -36 18 -71 18c-44 0 -97 -13 -139 -35v-177c0 -44 3 -120 9 -127c3 -10 49 -24 79 -33l-11 -50h-277z" />
    <glyph glyph-name="nacute" unicode="&#x144;" horiz-adv-x="705" 
d="M197 641c70 62 160 134 242 192c19 -20 46 -56 59 -84l-9 -29l-257 -123l-15 4zM36 50l81 26c3 20 7 81 7 134v78c0 50 -1 130 -9 139c-8 10 -53 20 -79 27l10 50l201 34v-90c58 40 154 84 210 90c76 -11 119 -51 132 -113c1 -34 -4 -119 -4 -218c0 -44 0 -109 7 -122
c8 -12 52 -27 82 -35l-11 -50h-183l-22 22c0 38 4 126 4 188c0 65 1 175 -5 194c-11 10 -36 18 -71 18c-44 0 -97 -13 -139 -35v-177c0 -44 3 -120 9 -127c3 -10 49 -24 79 -33l-11 -50h-277z" />
    <glyph glyph-name="ncaron" unicode="&#x148;" horiz-adv-x="705" 
d="M551 801c-48 -65 -105 -134 -162 -196l-84 -1c-37 43 -130 151 -161 195l29 35l17 2l159 -131l158 131l16 -2zM36 50l81 26c3 20 7 81 7 134v78c0 50 -1 130 -9 139c-8 10 -53 20 -79 27l10 50l201 34v-90c58 40 154 84 210 90c76 -11 119 -51 132 -113
c1 -34 -4 -119 -4 -218c0 -44 0 -109 7 -122c8 -12 52 -27 82 -35l-11 -50h-183l-22 22c0 38 4 126 4 188c0 65 1 175 -5 194c-11 10 -36 18 -71 18c-44 0 -97 -13 -139 -35v-177c0 -44 3 -120 9 -127c3 -10 49 -24 79 -33l-11 -50h-277z" />
    <glyph glyph-name="ncommaaccent" unicode="&#x146;" horiz-adv-x="705" 
d="M36 50l81 26c3 20 7 81 7 134v78c0 50 -1 130 -9 139c-8 10 -53 20 -79 27l10 50l201 34v-90c58 40 154 84 210 90c76 -11 119 -51 132 -113c1 -34 -4 -119 -4 -218c0 -44 0 -109 7 -122c8 -12 52 -27 82 -35l-11 -50h-183l-22 22c0 38 4 126 4 188c0 65 1 175 -5 194
c-11 10 -36 18 -71 18c-44 0 -97 -13 -139 -35v-177c0 -44 3 -120 9 -127c3 -10 49 -24 79 -33l-11 -50h-277zM362 -81c36 0 83 -38 83 -79c-1 -67 -66 -166 -113 -221l-42 29c18 36 36 76 47 112c-32 10 -60 38 -60 67c0 47 46 92 85 92z" />
    <glyph glyph-name="ndotaccent" unicode="&#x1e45;" horiz-adv-x="705" 
d="M351 798c33 0 81 -41 81 -79c0 -39 -48 -86 -84 -86s-84 40 -84 79s52 86 87 86zM36 50l81 26c3 20 7 81 7 134v78c0 50 -1 130 -9 139c-8 10 -53 20 -79 27l10 50l201 34v-90c58 40 154 84 210 90c76 -11 119 -51 132 -113c1 -34 -4 -119 -4 -218c0 -44 0 -109 7 -122
c8 -12 52 -27 82 -35l-11 -50h-183l-22 22c0 38 4 126 4 188c0 65 1 175 -5 194c-11 10 -36 18 -71 18c-44 0 -97 -13 -139 -35v-177c0 -44 3 -120 9 -127c3 -10 49 -24 79 -33l-11 -50h-277z" />
    <glyph glyph-name="ntilde" unicode="&#xf1;" horiz-adv-x="705" 
d="M136 657c27 42 90 129 110 129c44 0 140 -31 200 -53l77 73l36 -28v-26c-32 -51 -83 -128 -116 -128c-40 0 -134 43 -201 67l-57 -64l-17 1zM36 50l81 26c3 20 7 81 7 134v78c0 50 -1 130 -9 139c-8 10 -53 20 -79 27l10 50l201 34v-90c58 40 154 84 210 90
c76 -11 119 -51 132 -113c1 -34 -4 -119 -4 -218c0 -44 0 -109 7 -122c8 -12 52 -27 82 -35l-11 -50h-183l-22 22c0 38 4 126 4 188c0 65 1 175 -5 194c-11 10 -36 18 -71 18c-44 0 -97 -13 -139 -35v-177c0 -44 3 -120 9 -127c3 -10 49 -24 79 -33l-11 -50h-277z" />
    <glyph glyph-name="o" unicode="o" horiz-adv-x="604" 
d="M553 272c0 -162 -92 -285 -249 -285c-154 0 -253 94 -253 266c0 170 104 285 259 285c153 0 243 -102 243 -266zM424 272c0 120 -35 179 -122 179c-34 0 -66 -11 -85 -28c-21 -33 -37 -92 -37 -170c0 -111 36 -182 127 -182c38 0 68 11 85 25c18 34 32 99 32 176z" />
    <glyph glyph-name="oacute" unicode="&#xf3;" horiz-adv-x="604" 
d="M155 641c70 62 160 134 242 192c20 -20 46 -56 59 -84l-9 -29l-257 -123l-15 4zM553 272c0 -162 -92 -285 -249 -285c-154 0 -253 94 -253 266c0 170 104 285 259 285c153 0 243 -102 243 -266zM424 272c0 120 -35 179 -122 179c-34 0 -66 -11 -85 -28
c-21 -33 -37 -92 -37 -170c0 -111 36 -182 127 -182c38 0 68 11 85 25c18 34 32 99 32 176z" />
    <glyph glyph-name="obreve" unicode="&#x14f;" horiz-adv-x="604" 
d="M307 710c67 0 112 31 130 98l35 -5l10 -16c-6 -120 -86 -179 -180 -179c-97 0 -167 67 -169 193l46 6c16 -64 58 -97 128 -97zM553 272c0 -162 -92 -285 -249 -285c-154 0 -253 94 -253 266c0 170 104 285 259 285c153 0 243 -102 243 -266zM424 272
c0 120 -35 179 -122 179c-34 0 -66 -11 -85 -28c-21 -33 -37 -92 -37 -170c0 -111 36 -182 127 -182c38 0 68 11 85 25c18 34 32 99 32 176z" />
    <glyph glyph-name="ocaron" unicode="&#x1d2;" horiz-adv-x="604" 
d="M509 801c-48 -65 -105 -134 -162 -196l-84 -1c-37 43 -130 151 -161 195l29 35l17 2l159 -131l158 131l16 -2zM553 272c0 -162 -92 -285 -249 -285c-154 0 -253 94 -253 266c0 170 104 285 259 285c153 0 243 -102 243 -266zM424 272c0 120 -35 179 -122 179
c-34 0 -66 -11 -85 -28c-21 -33 -37 -92 -37 -170c0 -111 36 -182 127 -182c38 0 68 11 85 25c18 34 32 99 32 176z" />
    <glyph glyph-name="ocircumflex" unicode="&#xf4;" horiz-adv-x="604" 
d="M103 629c48 64 105 134 161 196h85c37 -43 130 -151 160 -194l-28 -35l-17 -2l-160 130l-157 -130l-16 2zM553 272c0 -162 -92 -285 -249 -285c-154 0 -253 94 -253 266c0 170 104 285 259 285c153 0 243 -102 243 -266zM424 272c0 120 -35 179 -122 179
c-34 0 -66 -11 -85 -28c-21 -33 -37 -92 -37 -170c0 -111 36 -182 127 -182c38 0 68 11 85 25c18 34 32 99 32 176z" />
    <glyph glyph-name="odieresis" unicode="&#xf6;" horiz-adv-x="604" 
d="M264 720c0 -37 -42 -83 -75 -83c-41 0 -86 34 -86 69c0 46 44 89 81 89c34 0 80 -35 80 -75zM508 720c0 -37 -42 -83 -74 -83c-42 0 -87 34 -87 69c0 46 44 89 81 89c34 0 80 -35 80 -75zM553 272c0 -162 -92 -285 -249 -285c-154 0 -253 94 -253 266
c0 170 104 285 259 285c153 0 243 -102 243 -266zM424 272c0 120 -35 179 -122 179c-34 0 -66 -11 -85 -28c-21 -33 -37 -92 -37 -170c0 -111 36 -182 127 -182c38 0 68 11 85 25c18 34 32 99 32 176z" />
    <glyph glyph-name="odotbelow" unicode="&#x1ecd;" horiz-adv-x="604" 
d="M553 272c0 -162 -92 -285 -249 -285c-154 0 -253 94 -253 266c0 170 104 285 259 285c153 0 243 -102 243 -266zM424 272c0 120 -35 179 -122 179c-34 0 -66 -11 -85 -28c-21 -33 -37 -92 -37 -170c0 -111 36 -182 127 -182c38 0 68 11 85 25c18 34 32 99 32 176z
M312 -85c32 0 80 -41 80 -80s-48 -85 -83 -85c-36 0 -85 39 -85 78s52 87 88 87z" />
    <glyph glyph-name="ograve" unicode="&#xf2;" horiz-adv-x="604" 
d="M456 641l-20 -40l-15 -4l-257 123l-9 29c13 28 40 64 60 84c81 -58 171 -130 241 -192zM553 272c0 -162 -92 -285 -249 -285c-154 0 -253 94 -253 266c0 170 104 285 259 285c153 0 243 -102 243 -266zM424 272c0 120 -35 179 -122 179c-34 0 -66 -11 -85 -28
c-21 -33 -37 -92 -37 -170c0 -111 36 -182 127 -182c38 0 68 11 85 25c18 34 32 99 32 176z" />
    <glyph glyph-name="ohungarumlaut" unicode="&#x151;" horiz-adv-x="604" 
d="M76 644c55 62 115 125 178 185c22 -17 51 -46 66 -69l-6 -33l-195 -126l-16 4zM324 644c56 63 115 125 179 185c21 -17 50 -46 65 -69l-6 -33l-195 -126l-16 4zM553 272c0 -162 -92 -285 -249 -285c-154 0 -253 94 -253 266c0 170 104 285 259 285
c153 0 243 -102 243 -266zM424 272c0 120 -35 179 -122 179c-34 0 -66 -11 -85 -28c-21 -33 -37 -92 -37 -170c0 -111 36 -182 127 -182c38 0 68 11 85 25c18 34 32 99 32 176z" />
    <glyph glyph-name="omacron" unicode="&#x14d;" horiz-adv-x="604" 
d="M504 758v-86l-381 -4l-15 15l9 78zM553 272c0 -162 -92 -285 -249 -285c-154 0 -253 94 -253 266c0 170 104 285 259 285c153 0 243 -102 243 -266zM424 272c0 120 -35 179 -122 179c-34 0 -66 -11 -85 -28c-21 -33 -37 -92 -37 -170c0 -111 36 -182 127 -182
c38 0 68 11 85 25c18 34 32 99 32 176z" />
    <glyph glyph-name="oogonek" unicode="&#x1eb;" horiz-adv-x="604" 
d="M553 272c0 -100 -35 -185 -99 -236c-92 -82 -119 -129 -119 -168c0 -15 5 -26 15 -32c34 5 68 18 94 27l18 -45c-27 -30 -71 -56 -121 -61c-65 1 -106 34 -106 89c0 47 27 93 85 141h-16c-154 0 -253 94 -253 266c0 170 104 285 259 285c153 0 243 -102 243 -266z
M424 272c0 120 -35 179 -122 179c-34 0 -66 -11 -85 -28c-21 -33 -37 -92 -37 -170c0 -111 36 -182 127 -182c38 0 68 11 85 25c18 34 32 99 32 176z" />
    <glyph glyph-name="oslash" unicode="&#xf8;" horiz-adv-x="604" 
d="M84 -23l-36 1l-27 37l71 76c-27 42 -41 96 -41 162c0 170 104 285 259 285c63 0 115 -17 155 -49l55 59l36 -1l27 -37l-71 -75c27 -43 41 -98 41 -163c0 -162 -92 -285 -249 -285c-66 0 -122 17 -164 50zM180 253c0 -23 2 -44 5 -63l207 222c-19 26 -49 39 -90 39
c-34 0 -66 -11 -85 -28c-21 -33 -37 -92 -37 -170zM424 272c0 24 -1 45 -4 64l-207 -221c21 -28 51 -44 94 -44c38 0 68 11 85 25c18 34 32 99 32 176z" />
    <glyph glyph-name="oslashacute" unicode="&#x1ff;" horiz-adv-x="604" 
d="M151 667c70 61 161 133 242 191c20 -20 47 -56 60 -83l-10 -30l-257 -123l-15 4zM84 -23l-36 1l-27 37l71 76c-27 42 -41 96 -41 162c0 170 104 285 259 285c63 0 115 -17 155 -49l55 59l36 -1l27 -37l-71 -75c27 -43 41 -98 41 -163c0 -162 -92 -285 -249 -285
c-66 0 -122 17 -164 50zM180 253c0 -23 2 -44 5 -63l207 222c-19 26 -49 39 -90 39c-34 0 -66 -11 -85 -28c-21 -33 -37 -92 -37 -170zM424 272c0 24 -1 45 -4 64l-207 -221c21 -28 51 -44 94 -44c38 0 68 11 85 25c18 34 32 99 32 176z" />
    <glyph glyph-name="otilde" unicode="&#xf5;" horiz-adv-x="604" 
d="M95 657c26 42 89 129 110 129c43 0 139 -31 199 -53l77 73l37 -28v-26c-33 -51 -84 -128 -117 -128c-40 0 -133 43 -201 67l-57 -64l-17 1zM553 272c0 -162 -92 -285 -249 -285c-154 0 -253 94 -253 266c0 170 104 285 259 285c153 0 243 -102 243 -266zM424 272
c0 120 -35 179 -122 179c-34 0 -66 -11 -85 -28c-21 -33 -37 -92 -37 -170c0 -111 36 -182 127 -182c38 0 68 11 85 25c18 34 32 99 32 176z" />
    <glyph glyph-name="oe" unicode="&#x153;" horiz-adv-x="937" 
d="M886 87c-50 -38 -129 -86 -215 -100c-80 4 -145 38 -185 100c-39 -62 -102 -100 -189 -100c-150 0 -246 94 -246 266c0 170 101 285 252 285c89 0 153 -36 191 -101c42 64 108 101 185 101c116 0 201 -71 201 -213c0 -17 -1 -33 -3 -52l-23 -23l-303 -11
c5 -91 70 -142 150 -150c44 6 117 26 161 43zM662 457c-29 0 -55 -10 -76 -25c-19 -32 -35 -88 -36 -139l208 17c1 9 2 21 2 32c0 75 -32 115 -98 115zM424 272c0 120 -35 179 -122 179c-34 0 -66 -11 -85 -28c-21 -33 -37 -92 -37 -170c0 -111 36 -182 127 -182
c38 0 68 11 85 25c18 34 32 99 32 176z" />
    <glyph glyph-name="p" unicode="p" horiz-adv-x="650" 
d="M17 -185l84 26c3 12 7 119 7 153v294c0 50 -1 130 -9 139c-8 10 -53 20 -79 27l10 50l201 34v-88c51 39 119 74 169 88c116 -6 200 -103 200 -260c0 -186 -94 -291 -255 -291c-37 0 -77 7 -114 17c0 -65 3 -145 12 -157c9 -13 60 -22 102 -32l-11 -50h-306zM342 71
c37 0 69 10 90 26c18 27 38 78 38 158c0 106 -38 180 -121 180c-35 0 -83 -19 -118 -41v-291c33 -19 70 -32 111 -32z" />
    <glyph glyph-name="thorn" unicode="&#xfe;" horiz-adv-x="640" 
d="M221 1c0 -62 3 -142 12 -154c9 -13 60 -22 102 -32l-11 -50h-306l-11 50l84 26c3 12 7 119 7 153v445c0 49 -1 214 -9 223c-8 10 -53 20 -79 27l10 50l201 34v-323c57 42 121 75 169 88c116 -6 200 -103 200 -260c0 -186 -94 -291 -255 -291c-35 0 -72 6 -114 17v-3z
M221 103c33 -19 70 -32 111 -32c37 0 69 10 90 26c18 27 38 78 38 158c0 106 -38 180 -121 180c-35 0 -83 -19 -118 -41v-291z" />
    <glyph glyph-name="q" unicode="q" horiz-adv-x="647" 
d="M331 -185l80 26c4 20 8 81 8 134v87c-43 -34 -116 -75 -172 -75c-105 17 -196 102 -196 259c0 174 119 292 272 292c80 0 160 -20 219 -43v-520c0 -44 2 -120 9 -127c3 -10 49 -24 79 -33l-11 -50h-278zM180 261c0 -103 39 -164 109 -190c34 3 100 34 130 56v304
c-26 12 -56 20 -96 20c-50 0 -85 -10 -107 -28c-21 -41 -36 -94 -36 -162z" />
    <glyph glyph-name="r" unicode="r" horiz-adv-x="506" 
d="M36 50l84 26c2 12 7 119 7 153v59c0 50 -2 130 -9 139c-8 10 -53 20 -80 27l11 50l200 34v-92c43 34 108 84 150 92c32 -9 70 -37 89 -61c-16 -26 -41 -63 -62 -86l-24 -1l-67 30c-11 0 -66 -24 -86 -38v-153c0 -50 4 -135 12 -147c10 -13 61 -22 103 -32l-11 -50h-306z
" />
    <glyph glyph-name="racute" unicode="&#x155;" horiz-adv-x="506" 
d="M102 641c70 62 160 134 241 192c20 -20 47 -56 60 -84l-9 -29l-257 -123l-15 4zM36 50l84 26c2 12 7 119 7 153v59c0 50 -2 130 -9 139c-8 10 -53 20 -80 27l11 50l200 34v-92c43 34 108 84 150 92c32 -9 70 -37 89 -61c-16 -26 -41 -63 -62 -86l-24 -1l-67 30
c-11 0 -66 -24 -86 -38v-153c0 -50 4 -135 12 -147c10 -13 61 -22 103 -32l-11 -50h-306z" />
    <glyph glyph-name="rcaron" unicode="&#x159;" horiz-adv-x="506" 
d="M456 801c-48 -65 -105 -134 -162 -196l-84 -1c-38 43 -130 151 -161 195l29 35l16 2l160 -131l157 131l17 -2zM36 50l84 26c2 12 7 119 7 153v59c0 50 -2 130 -9 139c-8 10 -53 20 -80 27l11 50l200 34v-92c43 34 108 84 150 92c32 -9 70 -37 89 -61
c-16 -26 -41 -63 -62 -86l-24 -1l-67 30c-11 0 -66 -24 -86 -38v-153c0 -50 4 -135 12 -147c10 -13 61 -22 103 -32l-11 -50h-306z" />
    <glyph glyph-name="rcommaaccent" unicode="&#x157;" horiz-adv-x="506" 
d="M36 50l84 26c2 12 7 119 7 153v59c0 50 -2 130 -9 139c-8 10 -53 20 -80 27l11 50l200 34v-92c43 34 108 84 150 92c32 -9 70 -37 89 -61c-16 -26 -41 -63 -62 -86l-24 -1l-67 30c-11 0 -66 -24 -86 -38v-153c0 -50 4 -135 12 -147c10 -13 61 -22 103 -32l-11 -50h-306z
M202 -81c37 0 84 -38 84 -79c-1 -67 -66 -166 -113 -221l-42 29c18 36 36 76 46 112c-32 10 -59 38 -59 67c0 47 46 92 84 92z" />
    <glyph glyph-name="rdotbelow" unicode="&#x1e5b;" horiz-adv-x="506" 
d="M36 50l84 26c2 12 7 119 7 153v59c0 50 -2 130 -9 139c-8 10 -53 20 -80 27l11 50l200 34v-92c43 34 108 84 150 92c32 -9 70 -37 89 -61c-16 -26 -41 -63 -62 -86l-24 -1l-67 30c-11 0 -66 -24 -86 -38v-153c0 -50 4 -135 12 -147c10 -13 61 -22 103 -32l-11 -50h-306z
M205 -85c33 0 81 -41 81 -80s-48 -85 -83 -85c-36 0 -85 39 -85 78s52 87 87 87z" />
    <glyph glyph-name="s" unicode="s" horiz-adv-x="506" 
d="M244 -13c-86 4 -156 27 -203 50l-4 10c7 37 19 73 34 104h34l108 -94c14 -2 28 -2 40 -2c30 0 59 7 75 20c9 10 14 23 14 39c0 123 -294 82 -294 257c0 94 95 167 238 167c66 -4 121 -22 160 -43l13 -36c-12 -30 -27 -57 -44 -86l-31 1c-26 26 -60 60 -91 88
c-8 2 -23 3 -34 3c-29 0 -56 -7 -71 -22c-10 -11 -16 -25 -16 -44c0 -109 293 -78 293 -251c0 -96 -86 -157 -221 -161z" />
    <glyph glyph-name="sacute" unicode="&#x15b;" horiz-adv-x="506" 
d="M113 641c70 62 160 134 241 192c20 -20 47 -56 60 -84l-9 -29l-257 -123l-15 4zM244 -13c-86 4 -156 27 -203 50l-4 10c7 37 19 73 34 104h34l108 -94c14 -2 28 -2 40 -2c30 0 59 7 75 20c9 10 14 23 14 39c0 123 -294 82 -294 257c0 94 95 167 238 167
c66 -4 121 -22 160 -43l13 -36c-12 -30 -27 -57 -44 -86l-31 1c-26 26 -60 60 -91 88c-8 2 -23 3 -34 3c-29 0 -56 -7 -71 -22c-10 -11 -16 -25 -16 -44c0 -109 293 -78 293 -251c0 -96 -86 -157 -221 -161z" />
    <glyph glyph-name="scaron" unicode="&#x161;" horiz-adv-x="507" 
d="M467 801c-48 -65 -105 -134 -162 -196l-84 -1c-38 43 -130 151 -161 195l29 35l16 2l160 -131l157 131l17 -2zM244 -13c-86 4 -156 27 -203 50l-4 10c7 37 19 73 34 104h34l108 -94c14 -2 28 -2 40 -2c30 0 59 7 75 20c9 10 14 23 14 39c0 123 -294 82 -294 257
c0 94 95 167 238 167c66 -4 121 -22 160 -43l13 -36c-12 -30 -27 -57 -44 -86l-31 1c-26 26 -60 60 -91 88c-8 2 -23 3 -34 3c-29 0 -56 -7 -71 -22c-10 -11 -16 -25 -16 -44c0 -109 293 -78 293 -251c0 -96 -86 -157 -221 -161z" />
    <glyph glyph-name="scedilla" unicode="&#x15f;" horiz-adv-x="506" 
d="M400 -151c0 -67 -45 -109 -140 -110c-51 1 -88 10 -116 25l17 52c29 -7 54 -10 79 -10c17 0 33 1 46 6c5 8 8 16 8 27c0 22 -16 34 -52 34c-15 0 -29 -2 -40 -5l-23 20l32 102c-71 7 -129 27 -170 47l-4 10c7 37 19 73 34 104h34l108 -94c14 -2 28 -2 40 -2
c30 0 59 7 75 20c9 10 14 23 14 39c0 123 -294 82 -294 257c0 94 95 167 238 167c66 -4 121 -22 160 -43l13 -36c-12 -30 -27 -57 -44 -86l-31 1c-26 26 -60 60 -91 88c-8 2 -23 3 -34 3c-29 0 -56 -7 -71 -22c-10 -11 -16 -25 -16 -44c0 -109 293 -78 293 -251
c0 -86 -70 -145 -182 -158l-18 -59c9 2 19 3 30 3c64 0 105 -32 105 -85z" />
    <glyph glyph-name="scircumflex" unicode="&#x15d;" horiz-adv-x="507" 
d="M60 629c48 64 105 134 162 196h85c37 -43 129 -151 160 -194l-29 -35l-16 -2l-160 130l-157 -130l-17 2zM244 -13c-86 4 -156 27 -203 50l-4 10c7 37 19 73 34 104h34l108 -94c14 -2 28 -2 40 -2c30 0 59 7 75 20c9 10 14 23 14 39c0 123 -294 82 -294 257
c0 94 95 167 238 167c66 -4 121 -22 160 -43l13 -36c-12 -30 -27 -57 -44 -86l-31 1c-26 26 -60 60 -91 88c-8 2 -23 3 -34 3c-29 0 -56 -7 -71 -22c-10 -11 -16 -25 -16 -44c0 -109 293 -78 293 -251c0 -96 -86 -157 -221 -161z" />
    <glyph glyph-name="scommaaccent" unicode="&#x219;" horiz-adv-x="506" 
d="M244 -13c-86 4 -156 27 -203 50l-4 10c7 37 19 73 34 104h34l108 -94c14 -2 28 -2 40 -2c30 0 59 7 75 20c9 10 14 23 14 39c0 123 -294 82 -294 257c0 94 95 167 238 167c66 -4 121 -22 160 -43l13 -36c-12 -30 -27 -57 -44 -86l-31 1c-26 26 -60 60 -91 88
c-8 2 -23 3 -34 3c-29 0 -56 -7 -71 -22c-10 -11 -16 -25 -16 -44c0 -109 293 -78 293 -251c0 -96 -86 -157 -221 -161zM254 -81c37 0 84 -38 84 -79c-1 -67 -66 -166 -113 -221l-42 29c18 36 36 76 46 112c-32 10 -59 38 -59 67c0 47 46 92 84 92z" />
    <glyph glyph-name="sdotbelow" unicode="&#x1e63;" horiz-adv-x="506" 
d="M244 -13c-86 4 -156 27 -203 50l-4 10c7 37 19 73 34 104h34l108 -94c14 -2 28 -2 40 -2c30 0 59 7 75 20c9 10 14 23 14 39c0 123 -294 82 -294 257c0 94 95 167 238 167c66 -4 121 -22 160 -43l13 -36c-12 -30 -27 -57 -44 -86l-31 1c-26 26 -60 60 -91 88
c-8 2 -23 3 -34 3c-29 0 -56 -7 -71 -22c-10 -11 -16 -25 -16 -44c0 -109 293 -78 293 -251c0 -96 -86 -157 -221 -161zM257 -85c33 0 81 -41 81 -80s-48 -85 -83 -85c-36 0 -85 39 -85 78s52 87 87 87z" />
    <glyph glyph-name="germandbls" unicode="&#xdf;" horiz-adv-x="661" 
d="M26 50l84 26c2 12 7 119 7 153v194l-76 4l-3 44l79 23v16c0 122 128 251 220 263c148 -18 221 -101 221 -193c0 -51 -33 -108 -96 -178c113 -73 170 -143 170 -236c0 -98 -77 -175 -189 -179c-53 2 -103 14 -131 31l-6 10c3 28 17 86 30 106h28l59 -71c8 -4 17 -6 25 -6
c33 12 58 43 58 96c0 85 -59 132 -152 194l1 27c61 71 94 113 94 171c0 61 -49 119 -141 141l-6 -2c-39 -24 -63 -89 -63 -177v-472l-20 -35h-182z" />
    <glyph glyph-name="t" unicode="t" horiz-adv-x="437" 
d="M89 208v243l-75 3l-3 44l78 23l23 130l85 17l21 -12v-137l169 6l15 -15l-11 -62l-173 3v-240c0 -78 21 -123 70 -123c29 0 79 20 112 34l24 -45c-43 -39 -113 -81 -175 -92c-116 14 -160 82 -160 223z" />
    <glyph glyph-name="tbar" unicode="&#x167;" horiz-adv-x="437" 
d="M89 208v67h-61l-15 16s5 43 5 44h71v116l-75 3l-3 44l78 23l23 130l85 17l21 -12v-137l169 6l15 -15l-11 -62l-173 3v-116l160 1l16 -15s-8 -44 -8 -45h-168v-65c0 -78 21 -123 70 -123c29 0 79 20 112 34l24 -45c-43 -39 -113 -81 -175 -92c-116 14 -160 82 -160 223z
" />
    <glyph glyph-name="tcaron" unicode="&#x165;" horiz-adv-x="437" 
d="M348 825c43 0 83 -36 83 -83c0 -50 -51 -127 -88 -172l-44 18c10 32 23 75 27 105l-63 39c4 50 41 93 85 93zM89 208v243l-75 3l-3 44l78 23l23 130l85 17l21 -12v-137l169 6l15 -15l-11 -62l-173 3v-240c0 -78 21 -123 70 -123c29 0 79 20 112 34l24 -45
c-43 -39 -113 -81 -175 -92c-116 14 -160 82 -160 223z" />
    <glyph glyph-name="tcedilla" unicode="&#x163;" horiz-adv-x="437" 
d="M89 208v243l-75 3l-3 44l78 23l23 130l85 17l21 -12v-137l169 6l15 -15l-11 -62l-173 3v-240c0 -78 21 -123 70 -123c29 0 79 20 112 34l24 -45c-36 -33 -91 -68 -144 -85l-19 -61c9 2 19 3 30 3c64 0 105 -32 105 -85c0 -67 -45 -109 -140 -110c-51 1 -88 10 -116 25
l17 52c29 -7 54 -10 79 -10c17 0 33 1 46 6c5 8 8 16 8 27c0 22 -16 34 -52 34c-15 0 -29 -2 -40 -5l-23 20l33 105c-85 24 -119 92 -119 215z" />
    <glyph glyph-name="tcommaaccent" unicode="&#x21b;" horiz-adv-x="437" 
d="M89 208v243l-75 3l-3 44l78 23l23 130l85 17l21 -12v-137l169 6l15 -15l-11 -62l-173 3v-240c0 -78 21 -123 70 -123c29 0 79 20 112 34l24 -45c-43 -39 -113 -81 -175 -92c-116 14 -160 82 -160 223zM246 -81c37 0 84 -38 84 -79c-1 -67 -66 -166 -113 -221l-42 29
c18 36 36 76 47 112c-32 10 -60 38 -60 67c0 47 46 92 84 92z" />
    <glyph glyph-name="tdotbelow" unicode="&#x1e6d;" horiz-adv-x="437" 
d="M89 208v243l-75 3l-3 44l78 23l23 130l85 17l21 -12v-137l169 6l15 -15l-11 -62l-173 3v-240c0 -78 21 -123 70 -123c29 0 79 20 112 34l24 -45c-43 -39 -113 -81 -175 -92c-116 14 -160 82 -160 223zM250 -85c32 0 80 -41 80 -80s-48 -85 -83 -85c-36 0 -85 39 -85 78
s52 87 88 87z" />
    <glyph glyph-name="u" unicode="u" horiz-adv-x="681" 
d="M563 538v-333c0 -43 2 -105 11 -124c3 -8 32 -16 73 -31l-11 -50h-153c-4 8 -35 56 -37 66c-48 -34 -132 -81 -199 -81c-93 17 -143 78 -143 177v126c0 50 -1 130 -9 139c-8 10 -53 20 -79 27l10 50l201 34v-341c0 -65 13 -109 76 -125c36 0 108 30 137 52v167
c0 50 -2 127 -9 136c-8 10 -53 20 -79 27l10 50z" />
    <glyph glyph-name="uacute" unicode="&#xfa;" horiz-adv-x="681" 
d="M180 641c70 62 161 134 242 192c20 -20 47 -56 60 -84l-9 -29l-257 -123l-16 4zM563 538v-333c0 -43 2 -105 11 -124c3 -8 32 -16 73 -31l-11 -50h-153c-4 8 -35 56 -37 66c-48 -34 -132 -81 -199 -81c-93 17 -143 78 -143 177v126c0 50 -1 130 -9 139
c-8 10 -53 20 -79 27l10 50l201 34v-341c0 -65 13 -109 76 -125c36 0 108 30 137 52v167c0 50 -2 127 -9 136c-8 10 -53 20 -79 27l10 50z" />
    <glyph glyph-name="ubreve" unicode="&#x16d;" horiz-adv-x="681" 
d="M333 710c66 0 111 31 130 98l34 -5l10 -16c-6 -120 -86 -179 -180 -179c-97 0 -166 67 -169 193l46 6c17 -64 59 -97 129 -97zM563 538v-333c0 -43 2 -105 11 -124c3 -8 32 -16 73 -31l-11 -50h-153c-4 8 -35 56 -37 66c-48 -34 -132 -81 -199 -81
c-93 17 -143 78 -143 177v126c0 50 -1 130 -9 139c-8 10 -53 20 -79 27l10 50l201 34v-341c0 -65 13 -109 76 -125c36 0 108 30 137 52v167c0 50 -2 127 -9 136c-8 10 -53 20 -79 27l10 50z" />
    <glyph glyph-name="ucaron" unicode="&#x1d4;" horiz-adv-x="681" 
d="M534 801c-48 -65 -105 -134 -161 -196l-85 -1c-37 43 -130 151 -160 195l28 35l17 2l160 -131l157 131l16 -2zM563 538v-333c0 -43 2 -105 11 -124c3 -8 32 -16 73 -31l-11 -50h-153c-4 8 -35 56 -37 66c-48 -34 -132 -81 -199 -81c-93 17 -143 78 -143 177v126
c0 50 -1 130 -9 139c-8 10 -53 20 -79 27l10 50l201 34v-341c0 -65 13 -109 76 -125c36 0 108 30 137 52v167c0 50 -2 127 -9 136c-8 10 -53 20 -79 27l10 50z" />
    <glyph glyph-name="ucircumflex" unicode="&#xfb;" horiz-adv-x="681" 
d="M128 629c48 64 105 134 162 196h84c37 -43 130 -151 161 -194l-29 -35l-17 -2l-159 130l-157 -130l-17 2zM563 538v-333c0 -43 2 -105 11 -124c3 -8 32 -16 73 -31l-11 -50h-153c-4 8 -35 56 -37 66c-48 -34 -132 -81 -199 -81c-93 17 -143 78 -143 177v126
c0 50 -1 130 -9 139c-8 10 -53 20 -79 27l10 50l201 34v-341c0 -65 13 -109 76 -125c36 0 108 30 137 52v167c0 50 -2 127 -9 136c-8 10 -53 20 -79 27l10 50z" />
    <glyph glyph-name="udieresis" unicode="&#xfc;" horiz-adv-x="681" 
d="M289 720c0 -37 -42 -83 -74 -83c-41 0 -86 34 -86 69c0 46 43 89 80 89c34 0 80 -35 80 -75zM534 720c0 -37 -43 -83 -75 -83c-42 0 -87 34 -87 69c0 46 45 89 81 89c34 0 81 -35 81 -75zM563 538v-333c0 -43 2 -105 11 -124c3 -8 32 -16 73 -31l-11 -50h-153
c-4 8 -35 56 -37 66c-48 -34 -132 -81 -199 -81c-93 17 -143 78 -143 177v126c0 50 -1 130 -9 139c-8 10 -53 20 -79 27l10 50l201 34v-341c0 -65 13 -109 76 -125c36 0 108 30 137 52v167c0 50 -2 127 -9 136c-8 10 -53 20 -79 27l10 50z" />
    <glyph glyph-name="udieresisacute" unicode="&#x1d8;" horiz-adv-x="681" 
d="M171 909c78 49 180 106 268 150c17 -24 38 -63 47 -92l-13 -28l-275 -80l-14 7zM289 720c0 -37 -42 -83 -74 -83c-41 0 -86 34 -86 69c0 46 43 89 80 89c34 0 80 -35 80 -75zM534 720c0 -37 -43 -83 -75 -83c-42 0 -87 34 -87 69c0 46 45 89 81 89c34 0 81 -35 81 -75z
M563 538v-333c0 -43 2 -105 11 -124c3 -8 32 -16 73 -31l-11 -50h-153c-4 8 -35 56 -37 66c-48 -34 -132 -81 -199 -81c-93 17 -143 78 -143 177v126c0 50 -1 130 -9 139c-8 10 -53 20 -79 27l10 50l201 34v-341c0 -65 13 -109 76 -125c36 0 108 30 137 52v167
c0 50 -2 127 -9 136c-8 10 -53 20 -79 27l10 50z" />
    <glyph glyph-name="udieresiscaron" unicode="&#x1da;" horiz-adv-x="681" 
d="M534 1052c-48 -65 -105 -134 -162 -196h-84c-37 42 -130 150 -161 194l29 35l17 2l159 -130l157 130l17 -2zM289 720c0 -37 -42 -83 -74 -83c-41 0 -86 34 -86 69c0 46 43 89 80 89c34 0 80 -35 80 -75zM534 720c0 -37 -43 -83 -75 -83c-42 0 -87 34 -87 69
c0 46 45 89 81 89c34 0 81 -35 81 -75zM563 538v-333c0 -43 2 -105 11 -124c3 -8 32 -16 73 -31l-11 -50h-153c-4 8 -35 56 -37 66c-48 -34 -132 -81 -199 -81c-93 17 -143 78 -143 177v126c0 50 -1 130 -9 139c-8 10 -53 20 -79 27l10 50l201 34v-341
c0 -65 13 -109 76 -125c36 0 108 30 137 52v167c0 50 -2 127 -9 136c-8 10 -53 20 -79 27l10 50z" />
    <glyph glyph-name="udieresisgrave" unicode="&#x1dc;" horiz-adv-x="681" 
d="M486 909l-13 -43l-15 -7l-274 80l-13 28c8 29 30 68 46 92c89 -44 190 -101 269 -150zM289 720c0 -37 -42 -83 -74 -83c-41 0 -86 34 -86 69c0 46 43 89 80 89c34 0 80 -35 80 -75zM534 720c0 -37 -43 -83 -75 -83c-42 0 -87 34 -87 69c0 46 45 89 81 89
c34 0 81 -35 81 -75zM563 538v-333c0 -43 2 -105 11 -124c3 -8 32 -16 73 -31l-11 -50h-153c-4 8 -35 56 -37 66c-48 -34 -132 -81 -199 -81c-93 17 -143 78 -143 177v126c0 50 -1 130 -9 139c-8 10 -53 20 -79 27l10 50l201 34v-341c0 -65 13 -109 76 -125
c36 0 108 30 137 52v167c0 50 -2 127 -9 136c-8 10 -53 20 -79 27l10 50z" />
    <glyph glyph-name="udieresismacron" unicode="&#x1d6;" horiz-adv-x="681" 
d="M529 981v-87l-380 -3l-15 15l9 78zM289 720c0 -37 -42 -83 -74 -83c-41 0 -86 34 -86 69c0 46 43 89 80 89c34 0 80 -35 80 -75zM534 720c0 -37 -43 -83 -75 -83c-42 0 -87 34 -87 69c0 46 45 89 81 89c34 0 81 -35 81 -75zM563 538v-333c0 -43 2 -105 11 -124
c3 -8 32 -16 73 -31l-11 -50h-153c-4 8 -35 56 -37 66c-48 -34 -132 -81 -199 -81c-93 17 -143 78 -143 177v126c0 50 -1 130 -9 139c-8 10 -53 20 -79 27l10 50l201 34v-341c0 -65 13 -109 76 -125c36 0 108 30 137 52v167c0 50 -2 127 -9 136c-8 10 -53 20 -79 27l10 50z
" />
    <glyph glyph-name="udotbelow" unicode="&#x1ee5;" horiz-adv-x="681" 
d="M563 538v-333c0 -43 2 -105 11 -124c3 -8 32 -16 73 -31l-11 -50h-153c-4 8 -35 56 -37 66c-48 -34 -132 -81 -199 -81c-93 17 -143 78 -143 177v126c0 50 -1 130 -9 139c-8 10 -53 20 -79 27l10 50l201 34v-341c0 -65 13 -109 76 -125c36 0 108 30 137 52v167
c0 50 -2 127 -9 136c-8 10 -53 20 -79 27l10 50zM342 -85c33 0 81 -41 81 -80s-48 -85 -83 -85c-36 0 -85 39 -85 78s52 87 87 87z" />
    <glyph glyph-name="ugrave" unicode="&#xf9;" horiz-adv-x="681" 
d="M482 641l-20 -40l-15 -4l-257 123l-10 29c13 28 40 64 60 84c81 -58 172 -130 242 -192zM563 538v-333c0 -43 2 -105 11 -124c3 -8 32 -16 73 -31l-11 -50h-153c-4 8 -35 56 -37 66c-48 -34 -132 -81 -199 -81c-93 17 -143 78 -143 177v126c0 50 -1 130 -9 139
c-8 10 -53 20 -79 27l10 50l201 34v-341c0 -65 13 -109 76 -125c36 0 108 30 137 52v167c0 50 -2 127 -9 136c-8 10 -53 20 -79 27l10 50z" />
    <glyph glyph-name="uhungarumlaut" unicode="&#x171;" horiz-adv-x="681" 
d="M95 644c54 62 114 125 178 185c21 -17 50 -46 65 -69l-5 -33l-195 -126l-17 4zM343 644c55 63 114 125 178 185c21 -17 50 -46 65 -69l-5 -33l-195 -126l-17 4zM563 538v-333c0 -43 2 -105 11 -124c3 -8 32 -16 73 -31l-11 -50h-153c-4 8 -35 56 -37 66
c-48 -34 -132 -81 -199 -81c-93 17 -143 78 -143 177v126c0 50 -1 130 -9 139c-8 10 -53 20 -79 27l10 50l201 34v-341c0 -65 13 -109 76 -125c36 0 108 30 137 52v167c0 50 -2 127 -9 136c-8 10 -53 20 -79 27l10 50z" />
    <glyph glyph-name="umacron" unicode="&#x16b;" horiz-adv-x="681" 
d="M529 758v-86l-380 -4l-15 15l9 78zM563 538v-333c0 -43 2 -105 11 -124c3 -8 32 -16 73 -31l-11 -50h-153c-4 8 -35 56 -37 66c-48 -34 -132 -81 -199 -81c-93 17 -143 78 -143 177v126c0 50 -1 130 -9 139c-8 10 -53 20 -79 27l10 50l201 34v-341c0 -65 13 -109 76 -125
c36 0 108 30 137 52v167c0 50 -2 127 -9 136c-8 10 -53 20 -79 27l10 50z" />
    <glyph glyph-name="uogonek" unicode="&#x173;" horiz-adv-x="681" 
d="M636 0c-75 -53 -115 -95 -115 -135c0 -14 6 -24 18 -29c32 5 65 16 89 24l18 -45c-26 -27 -69 -52 -118 -58c-65 1 -106 33 -106 86c0 59 43 113 113 157h-52c-4 8 -35 56 -37 66c-48 -34 -132 -81 -199 -81c-93 17 -143 78 -143 177v126c0 50 -1 130 -9 139
c-8 10 -53 20 -79 27l10 50l201 34v-341c0 -65 13 -109 76 -125c36 0 108 30 137 52v167c0 50 -2 127 -9 136c-8 10 -53 20 -79 27l10 50l201 34v-333c0 -43 2 -105 11 -124c3 -8 32 -16 73 -31z" />
    <glyph glyph-name="uring" unicode="&#x16f;" horiz-adv-x="681" 
d="M332 608c-59 0 -109 46 -109 107c0 55 50 108 109 108s107 -53 107 -108c0 -61 -48 -107 -107 -107zM332 675c22 0 41 17 41 40c0 21 -19 40 -41 40c-23 0 -41 -19 -41 -40c0 -23 18 -40 41 -40zM563 538v-333c0 -43 2 -105 11 -124c3 -8 32 -16 73 -31l-11 -50h-153
c-4 8 -35 56 -37 66c-48 -34 -132 -81 -199 -81c-93 17 -143 78 -143 177v126c0 50 -1 130 -9 139c-8 10 -53 20 -79 27l10 50l201 34v-341c0 -65 13 -109 76 -125c36 0 108 30 137 52v167c0 50 -2 127 -9 136c-8 10 -53 20 -79 27l10 50z" />
    <glyph glyph-name="utilde" unicode="&#x169;" horiz-adv-x="681" 
d="M120 657c27 42 89 129 110 129c43 0 140 -31 199 -53l77 73l37 -28v-26c-32 -51 -83 -128 -117 -128c-40 0 -133 43 -200 67l-58 -64l-17 1zM563 538v-333c0 -43 2 -105 11 -124c3 -8 32 -16 73 -31l-11 -50h-153c-4 8 -35 56 -37 66c-48 -34 -132 -81 -199 -81
c-93 17 -143 78 -143 177v126c0 50 -1 130 -9 139c-8 10 -53 20 -79 27l10 50l201 34v-341c0 -65 13 -109 76 -125c36 0 108 30 137 52v167c0 50 -2 127 -9 136c-8 10 -53 20 -79 27l10 50z" />
    <glyph glyph-name="v" unicode="v" horiz-adv-x="619" 
d="M374 6c-32 -10 -83 -18 -131 -19c-59 144 -127 307 -184 446l-84 23l11 50l181 32c43 -125 112 -308 177 -457l112 360l-98 34l11 50h240l10 -50l-66 -30z" />
    <glyph glyph-name="w" unicode="w" horiz-adv-x="976" 
d="M739 6c-31 -10 -82 -18 -130 -19c-41 110 -85 231 -127 342l-118 -323c-31 -10 -82 -18 -130 -19c-55 143 -120 308 -175 446l-84 23l11 50l181 32c41 -124 107 -307 168 -456l100 350l-84 24l11 50l181 32c41 -125 107 -305 166 -454l105 357l-99 34l10 50h240l11 -50
l-67 -30z" />
    <glyph glyph-name="wacute" unicode="&#x1e83;" horiz-adv-x="976" 
d="M331 641c70 62 160 134 242 192c19 -20 46 -56 59 -84l-9 -29l-257 -123l-15 4zM739 6c-31 -10 -82 -18 -130 -19c-41 110 -85 231 -127 342l-118 -323c-31 -10 -82 -18 -130 -19c-55 143 -120 308 -175 446l-84 23l11 50l181 32c41 -124 107 -307 168 -456l100 350
l-84 24l11 50l181 32c41 -125 107 -305 166 -454l105 357l-99 34l10 50h240l11 -50l-67 -30z" />
    <glyph glyph-name="wcircumflex" unicode="&#x175;" horiz-adv-x="976" 
d="M279 629c48 64 105 134 161 196h85c37 -43 130 -151 160 -194l-28 -35l-17 -2l-160 130l-157 -130l-16 2zM739 6c-31 -10 -82 -18 -130 -19c-41 110 -85 231 -127 342l-118 -323c-31 -10 -82 -18 -130 -19c-55 143 -120 308 -175 446l-84 23l11 50l181 32
c41 -124 107 -307 168 -456l100 350l-84 24l11 50l181 32c41 -125 107 -305 166 -454l105 357l-99 34l10 50h240l11 -50l-67 -30z" />
    <glyph glyph-name="wdieresis" unicode="&#x1e85;" horiz-adv-x="976" 
d="M440 720c0 -37 -43 -83 -75 -83c-41 0 -86 34 -86 69c0 46 44 89 81 89c34 0 80 -35 80 -75zM684 720c0 -37 -42 -83 -75 -83c-41 0 -86 34 -86 69c0 46 44 89 81 89c34 0 80 -35 80 -75zM739 6c-31 -10 -82 -18 -130 -19c-41 110 -85 231 -127 342l-118 -323
c-31 -10 -82 -18 -130 -19c-55 143 -120 308 -175 446l-84 23l11 50l181 32c41 -124 107 -307 168 -456l100 350l-84 24l11 50l181 32c41 -125 107 -305 166 -454l105 357l-99 34l10 50h240l11 -50l-67 -30z" />
    <glyph glyph-name="wgrave" unicode="&#x1e81;" horiz-adv-x="976" 
d="M632 641l-20 -40l-15 -4l-257 123l-9 29c13 28 40 64 60 84c81 -58 171 -130 241 -192zM739 6c-31 -10 -82 -18 -130 -19c-41 110 -85 231 -127 342l-118 -323c-31 -10 -82 -18 -130 -19c-55 143 -120 308 -175 446l-84 23l11 50l181 32c41 -124 107 -307 168 -456
l100 350l-84 24l11 50l181 32c41 -125 107 -305 166 -454l105 357l-99 34l10 50h240l11 -50l-67 -30z" />
    <glyph glyph-name="x" unicode="x" horiz-adv-x="596" 
d="M567 0c-37 0 -121 -4 -151 -5c-36 54 -91 132 -147 211l-106 -131l82 -25l-10 -50h-193l-11 50l203 203c-59 78 -115 152 -147 192c-14 9 -56 22 -68 30l10 50c38 0 123 4 154 5c35 -55 90 -133 145 -209l105 129l-83 25l12 50h193l10 -50l-202 -202
c58 -80 114 -153 146 -193c12 -8 55 -21 69 -30z" />
    <glyph glyph-name="y" unicode="y" horiz-adv-x="608" 
d="M258 -159c-47 -45 -114 -75 -198 -89c-17 20 -39 71 -46 102l20 21c8 3 58 6 68 9c68 5 114 15 137 28c19 24 36 54 53 88h-62c-20 54 -150 379 -171 433l-84 23l11 50l181 32c42 -124 105 -302 163 -449c22 65 102 288 116 351l-99 35l10 50h241l10 -50l-67 -30
l-177 -437c-31 -77 -67 -131 -106 -167z" />
    <glyph glyph-name="yacute" unicode="&#xfd;" horiz-adv-x="608" 
d="M150 641c70 62 161 134 242 192c20 -20 47 -56 60 -84l-9 -29l-257 -123l-15 4zM258 -159c-47 -45 -114 -75 -198 -89c-17 20 -39 71 -46 102l20 21c8 3 58 6 68 9c68 5 114 15 137 28c19 24 36 54 53 88h-62c-20 54 -150 379 -171 433l-84 23l11 50l181 32
c42 -124 105 -302 163 -449c22 65 102 288 116 351l-99 35l10 50h241l10 -50l-67 -30l-177 -437c-31 -77 -67 -131 -106 -167z" />
    <glyph glyph-name="ycircumflex" unicode="&#x177;" horiz-adv-x="608" 
d="M98 629c48 64 105 134 162 196h84c37 -43 130 -151 161 -194l-29 -35l-17 -2l-159 130l-157 -130l-17 2zM258 -159c-47 -45 -114 -75 -198 -89c-17 20 -39 71 -46 102l20 21c8 3 58 6 68 9c68 5 114 15 137 28c19 24 36 54 53 88h-62c-20 54 -150 379 -171 433l-84 23
l11 50l181 32c42 -124 105 -302 163 -449c22 65 102 288 116 351l-99 35l10 50h241l10 -50l-67 -30l-177 -437c-31 -77 -67 -131 -106 -167z" />
    <glyph glyph-name="ydieresis" unicode="&#xff;" horiz-adv-x="608" 
d="M259 720c0 -37 -42 -83 -74 -83c-41 0 -86 34 -86 69c0 46 43 89 80 89c34 0 80 -35 80 -75zM504 720c0 -37 -43 -83 -75 -83c-42 0 -87 34 -87 69c0 46 45 89 81 89c34 0 81 -35 81 -75zM258 -159c-47 -45 -114 -75 -198 -89c-17 20 -39 71 -46 102l20 21c8 3 58 6 68 9
c68 5 114 15 137 28c19 24 36 54 53 88h-62c-20 54 -150 379 -171 433l-84 23l11 50l181 32c42 -124 105 -302 163 -449c22 65 102 288 116 351l-99 35l10 50h241l10 -50l-67 -30l-177 -437c-31 -77 -67 -131 -106 -167z" />
    <glyph glyph-name="ygrave" unicode="&#x1ef3;" horiz-adv-x="608" 
d="M452 641l-20 -40l-15 -4l-257 123l-10 29c14 28 40 64 60 84c81 -58 172 -130 242 -192zM258 -159c-47 -45 -114 -75 -198 -89c-17 20 -39 71 -46 102l20 21c8 3 58 6 68 9c68 5 114 15 137 28c19 24 36 54 53 88h-62c-20 54 -150 379 -171 433l-84 23l11 50l181 32
c42 -124 105 -302 163 -449c22 65 102 288 116 351l-99 35l10 50h241l10 -50l-67 -30l-177 -437c-31 -77 -67 -131 -106 -167z" />
    <glyph glyph-name="ymacron" unicode="&#x1233;" horiz-adv-x="608" 
d="M499 758v-86l-380 -4l-15 15l9 78zM258 -159c-47 -45 -114 -75 -198 -89c-17 20 -39 71 -46 102l20 21c8 3 58 6 68 9c68 5 114 15 137 28c19 24 36 54 53 88h-62c-20 54 -150 379 -171 433l-84 23l11 50l181 32c42 -124 105 -302 163 -449c22 65 102 288 116 351l-99 35
l10 50h241l10 -50l-67 -30l-177 -437c-31 -77 -67 -131 -106 -167z" />
    <glyph glyph-name="ytilde" unicode="&#x1ef9;" horiz-adv-x="608" 
d="M90 657c27 42 89 129 110 129c43 0 140 -31 200 -53l76 73l37 -28v-26c-32 -51 -83 -128 -117 -128c-40 0 -133 43 -200 67l-58 -64l-17 1zM258 -159c-47 -45 -114 -75 -198 -89c-17 20 -39 71 -46 102l20 21c8 3 58 6 68 9c68 5 114 15 137 28c19 24 36 54 53 88h-62
c-20 54 -150 379 -171 433l-84 23l11 50l181 32c42 -124 105 -302 163 -449c22 65 102 288 116 351l-99 35l10 50h241l10 -50l-67 -30l-177 -437c-31 -77 -67 -131 -106 -167z" />
    <glyph glyph-name="z" unicode="z" horiz-adv-x="531" 
d="M352 417h-45c-36 0 -160 -1 -181 -2l-15 -82c-16 -2 -35 -2 -51 0c-9 48 -19 113 -24 163l26 34c62 -5 153 -5 264 -5h137c10 -27 18 -56 23 -83l-320 -334h129c43 0 83 1 113 6l23 75l50 -6c1 -58 1 -120 0 -183h-417c-9 17 -19 46 -24 69z" />
    <glyph glyph-name="zacute" unicode="&#x17a;" horiz-adv-x="531" 
d="M113 641c70 61 161 134 242 192c20 -21 47 -56 60 -84l-10 -30l-257 -123l-15 5zM352 417h-45c-36 0 -160 -1 -181 -2l-15 -82c-16 -2 -35 -2 -51 0c-9 48 -19 113 -24 163l26 34c62 -5 153 -5 264 -5h137c10 -27 18 -56 23 -83l-320 -334h129c43 0 83 1 113 6l23 75
l50 -6c1 -58 1 -120 0 -183h-417c-9 17 -19 46 -24 69z" />
    <glyph glyph-name="zcaron" unicode="&#x17e;" horiz-adv-x="531" 
d="M467 800c-48 -64 -105 -134 -161 -196h-85c-37 43 -130 151 -160 194l28 35l17 2l160 -130l157 130l16 -2zM352 417h-45c-36 0 -160 -1 -181 -2l-15 -82c-16 -2 -35 -2 -51 0c-9 48 -19 113 -24 163l26 34c62 -5 153 -5 264 -5h137c10 -27 18 -56 23 -83l-320 -334h129
c43 0 83 1 113 6l23 75l50 -6c1 -58 1 -120 0 -183h-417c-9 17 -19 46 -24 69z" />
    <glyph glyph-name="zdotaccent" unicode="&#x17c;" horiz-adv-x="531" 
d="M267 798c33 0 81 -41 81 -80s-48 -85 -83 -85c-36 0 -85 39 -85 78s52 87 87 87zM352 417h-45c-36 0 -160 -1 -181 -2l-15 -82c-16 -2 -35 -2 -51 0c-9 48 -19 113 -24 163l26 34c62 -5 153 -5 264 -5h137c10 -27 18 -56 23 -83l-320 -334h129c43 0 83 1 113 6l23 75
l50 -6c1 -58 1 -120 0 -183h-417c-9 17 -19 46 -24 69z" />
    <glyph glyph-name="zdotbelow" unicode="&#x1e93;" horiz-adv-x="531" 
d="M352 417h-45c-36 0 -160 -1 -181 -2l-15 -82c-16 -2 -35 -2 -51 0c-9 48 -19 113 -24 163l26 34c62 -5 153 -5 264 -5h137c10 -27 18 -56 23 -83l-320 -334h129c43 0 83 1 113 6l23 75l50 -6c1 -58 1 -120 0 -183h-417c-9 17 -19 46 -24 69zM277 -85c33 0 81 -41 81 -80
s-48 -85 -84 -85s-85 39 -85 78s53 87 88 87z" />
    <glyph glyph-name="fi" unicode="&#xfb01;" horiz-adv-x="710" 
d="M26 50l84 26c2 12 7 119 7 153v220l-76 4l-3 44l79 22v17c0 138 155 222 241 237c67 -7 156 -42 200 -77c-2 -41 -28 -75 -62 -92h-24c-54 44 -120 75 -196 86l11 -5c-39 -12 -52 -122 -52 -167l230 3c35 1 64 3 95 12l26 -16v-307c0 -44 3 -120 9 -127
c3 -10 49 -24 79 -33l-11 -50h-264l-11 50l68 26c4 20 7 81 7 134v78c0 54 0 141 -9 152c-6 6 -35 7 -70 8l-145 2v-221c0 -50 4 -135 12 -147c8 -11 41 -24 70 -32l-11 -50h-273z" />
    <glyph glyph-name="fl" unicode="&#xfb02;" horiz-adv-x="700" 
d="M387 50l68 26c3 20 7 81 7 134v292c0 42 -1 105 -6 127c-49 30 -113 53 -172 59l3 -3c-37 -12 -53 -106 -53 -146l1 -47l143 5l15 -15l-11 -61l-143 3v-195c0 -50 4 -135 12 -147c10 -12 47 -24 77 -32l-11 -50h-280l-11 50l84 26c2 12 7 94 7 153v194l-76 4l-3 44l79 23
v30c0 138 155 234 241 249c48 -3 107 -21 153 -41l74 12v-534c0 -44 3 -120 9 -127c3 -10 49 -24 79 -33l-11 -50h-264z" />
    <glyph glyph-name="a.smcp" horiz-adv-x="673" 
d="M247 50l-11 -50h-221l-10 50l68 22c59 146 111 281 160 412l23 76c42 7 116 13 156 14c6 -28 16 -59 30 -94c48 -131 106 -283 158 -409l68 -21l-10 -50h-267l-10 50l83 21c-10 26 -23 62 -38 104l-227 -3c-14 -41 -26 -76 -35 -100zM222 240l181 -1
c-35 96 -73 201 -94 254c-19 -52 -54 -157 -87 -253z" />
    <glyph glyph-name="aacute.smcp" horiz-adv-x="673" 
d="M182 676c70 62 160 134 241 192c20 -20 47 -56 60 -84l-9 -29l-257 -123l-15 4zM247 50l-11 -50h-221l-10 50l68 22c59 146 111 281 160 412l23 76c42 7 116 13 156 14c6 -28 16 -59 30 -94c48 -131 106 -283 158 -409l68 -21l-10 -50h-267l-10 50l83 21
c-10 26 -23 62 -38 104l-227 -3c-14 -41 -26 -76 -35 -100zM222 240l181 -1c-35 96 -73 201 -94 254c-19 -52 -54 -157 -87 -253z" />
    <glyph glyph-name="abreve.smcp" horiz-adv-x="673" 
d="M334 745c66 0 111 31 130 98l34 -5l11 -16c-6 -120 -87 -179 -180 -179c-97 0 -167 67 -170 193l46 6c17 -64 59 -97 129 -97zM247 50l-11 -50h-221l-10 50l68 22c59 146 111 281 160 412l23 76c42 7 116 13 156 14c6 -28 16 -59 30 -94c48 -131 106 -283 158 -409
l68 -21l-10 -50h-267l-10 50l83 21c-10 26 -23 62 -38 104l-227 -3c-14 -41 -26 -76 -35 -100zM222 240l181 -1c-35 96 -73 201 -94 254c-19 -52 -54 -157 -87 -253z" />
    <glyph glyph-name="acaron.smcp" horiz-adv-x="673" 
d="M536 836c-48 -65 -105 -134 -162 -196l-84 -1c-38 43 -130 151 -161 195l29 35l17 2l159 -131l157 131l17 -2zM247 50l-11 -50h-221l-10 50l68 22c59 146 111 281 160 412l23 76c42 7 116 13 156 14c6 -28 16 -59 30 -94c48 -131 106 -283 158 -409l68 -21l-10 -50h-267
l-10 50l83 21c-10 26 -23 62 -38 104l-227 -3c-14 -41 -26 -76 -35 -100zM222 240l181 -1c-35 96 -73 201 -94 254c-19 -52 -54 -157 -87 -253z" />
    <glyph glyph-name="acircumflex.smcp" horiz-adv-x="673" 
d="M129 664c48 64 105 134 162 196h85c37 -43 129 -151 160 -194l-29 -35l-16 -2l-160 130l-157 -130l-17 2zM247 50l-11 -50h-221l-10 50l68 22c59 146 111 281 160 412l23 76c42 7 116 13 156 14c6 -28 16 -59 30 -94c48 -131 106 -283 158 -409l68 -21l-10 -50h-267
l-10 50l83 21c-10 26 -23 62 -38 104l-227 -3c-14 -41 -26 -76 -35 -100zM222 240l181 -1c-35 96 -73 201 -94 254c-19 -52 -54 -157 -87 -253z" />
    <glyph glyph-name="adieresis.smcp" horiz-adv-x="673" 
d="M291 755c0 -37 -43 -83 -75 -83c-41 0 -86 34 -86 69c0 46 44 89 80 89c34 0 81 -35 81 -75zM535 755c0 -37 -43 -83 -75 -83c-41 0 -86 34 -86 69c0 46 44 89 81 89c34 0 80 -35 80 -75zM247 50l-11 -50h-221l-10 50l68 22c59 146 111 281 160 412l23 76
c42 7 116 13 156 14c6 -28 16 -59 30 -94c48 -131 106 -283 158 -409l68 -21l-10 -50h-267l-10 50l83 21c-10 26 -23 62 -38 104l-227 -3c-14 -41 -26 -76 -35 -100zM222 240l181 -1c-35 96 -73 201 -94 254c-19 -52 -54 -157 -87 -253z" />
    <glyph glyph-name="adotbelow.smcp" horiz-adv-x="673" 
d="M247 50l-11 -50h-221l-10 50l68 22c59 146 111 281 160 412l23 76c42 7 116 13 156 14c6 -28 16 -59 30 -94c48 -131 106 -283 158 -409l68 -21l-10 -50h-267l-10 50l83 21c-10 26 -23 62 -38 104l-227 -3c-14 -41 -26 -76 -35 -100zM222 240l181 -1
c-35 96 -73 201 -94 254c-19 -52 -54 -157 -87 -253zM320 -85c33 0 81 -41 81 -80s-48 -85 -84 -85s-84 39 -84 78s52 87 87 87z" />
    <glyph glyph-name="agrave.smcp" horiz-adv-x="673" 
d="M483 676l-20 -40l-15 -4l-257 123l-9 29c13 28 40 64 59 84c82 -58 172 -130 242 -192zM247 50l-11 -50h-221l-10 50l68 22c59 146 111 281 160 412l23 76c42 7 116 13 156 14c6 -28 16 -59 30 -94c48 -131 106 -283 158 -409l68 -21l-10 -50h-267l-10 50l83 21
c-10 26 -23 62 -38 104l-227 -3c-14 -41 -26 -76 -35 -100zM222 240l181 -1c-35 96 -73 201 -94 254c-19 -52 -54 -157 -87 -253z" />
    <glyph glyph-name="amacron.smcp" horiz-adv-x="673" 
d="M530 793v-86l-380 -4l-15 15l9 78zM247 50l-11 -50h-221l-10 50l68 22c59 146 111 281 160 412l23 76c42 7 116 13 156 14c6 -28 16 -59 30 -94c48 -131 106 -283 158 -409l68 -21l-10 -50h-267l-10 50l83 21c-10 26 -23 62 -38 104l-227 -3c-14 -41 -26 -76 -35 -100z
M222 240l181 -1c-35 96 -73 201 -94 254c-19 -52 -54 -157 -87 -253z" />
    <glyph glyph-name="aogonek.smcp" horiz-adv-x="673" 
d="M658 0c-75 -53 -115 -95 -115 -135c0 -14 5 -24 18 -29c32 5 64 16 89 24l18 -45c-26 -27 -69 -52 -119 -58c-65 1 -105 33 -105 86c0 59 43 113 113 157h-166l-10 50l83 21c-10 26 -23 62 -38 104l-227 -3c-14 -41 -26 -76 -35 -100l83 -22l-11 -50h-221l-10 50l68 22
c59 146 111 281 160 412l23 76c42 7 116 13 156 14c6 -28 16 -59 30 -94c48 -131 106 -283 158 -409l68 -21zM222 240l181 -1c-35 96 -73 201 -94 254c-19 -52 -54 -157 -87 -253z" />
    <glyph glyph-name="aring.smcp" horiz-adv-x="673" 
d="M333 643c-59 0 -109 46 -109 107c0 55 50 108 109 108c60 0 108 -53 108 -108c0 -61 -48 -107 -108 -107zM333 710c23 0 41 17 41 40c0 21 -18 40 -41 40s-41 -19 -41 -40c0 -23 18 -40 41 -40zM247 50l-11 -50h-221l-10 50l68 22c59 146 111 281 160 412l23 76
c42 7 116 13 156 14c6 -28 16 -59 30 -94c48 -131 106 -283 158 -409l68 -21l-10 -50h-267l-10 50l83 21c-10 26 -23 62 -38 104l-227 -3c-14 -41 -26 -76 -35 -100zM222 240l181 -1c-35 96 -73 201 -94 254c-19 -52 -54 -157 -87 -253z" />
    <glyph glyph-name="aringacute.smcp" horiz-adv-x="673" 
d="M171 943c79 49 180 106 269 150c17 -24 38 -63 47 -92l-14 -28l-274 -80l-15 7zM333 643c-59 0 -109 46 -109 107c0 55 50 108 109 108c60 0 108 -53 108 -108c0 -61 -48 -107 -108 -107zM333 710c23 0 41 17 41 40c0 21 -18 40 -41 40s-41 -19 -41 -40
c0 -23 18 -40 41 -40zM247 50l-11 -50h-221l-10 50l68 22c59 146 111 281 160 412l23 76c42 7 116 13 156 14c6 -28 16 -59 30 -94c48 -131 106 -283 158 -409l68 -21l-10 -50h-267l-10 50l83 21c-10 26 -23 62 -38 104l-227 -3c-14 -41 -26 -76 -35 -100zM222 240l181 -1
c-35 96 -73 201 -94 254c-19 -52 -54 -157 -87 -253z" />
    <glyph glyph-name="atilde.smcp" horiz-adv-x="673" 
d="M121 692c27 42 90 129 110 129c44 0 140 -31 200 -53l76 73l37 -28v-26c-32 -51 -83 -128 -117 -128c-39 0 -133 43 -200 67l-57 -64l-17 1zM247 50l-11 -50h-221l-10 50l68 22c59 146 111 281 160 412l23 76c42 7 116 13 156 14c6 -28 16 -59 30 -94
c48 -131 106 -283 158 -409l68 -21l-10 -50h-267l-10 50l83 21c-10 26 -23 62 -38 104l-227 -3c-14 -41 -26 -76 -35 -100zM222 240l181 -1c-35 96 -73 201 -94 254c-19 -52 -54 -157 -87 -253z" />
    <glyph glyph-name="ae.smcp" horiz-adv-x="917" 
d="M588 560c98 0 177 2 242 7c7 -10 19 -26 23 -34c-2 -39 -12 -101 -18 -142c-20 -1 -59 -1 -80 1l-20 105c-25 2 -62 3 -93 3s-70 -1 -84 -4c-3 -22 -4 -82 -4 -151v-44l181 8l15 -19c0 -1 -11 -58 -11 -59l-185 6v-39c0 -48 0 -117 8 -128c7 -10 62 -10 94 -10
c29 0 60 1 85 4l26 106c23 0 69 -3 88 -6c2 -52 1 -96 0 -164h-502l-10 50l83 26c4 42 5 84 5 137v23l-167 -3c-39 -65 -76 -126 -98 -163l72 -20l-11 -50h-221l-10 50l71 23c102 157 206 322 303 487h218zM419 492c-18 -30 -64 -107 -114 -190l126 -2v192h-12z" />
    <glyph glyph-name="aeacute.smcp" horiz-adv-x="917" 
d="M429 676c70 62 160 134 242 192c20 -20 46 -56 59 -84l-9 -29l-257 -123l-15 4zM588 560c98 0 177 2 242 7c7 -10 19 -26 23 -34c-2 -39 -12 -101 -18 -142c-20 -1 -59 -1 -80 1l-20 105c-25 2 -62 3 -93 3s-70 -1 -84 -4c-3 -22 -4 -82 -4 -151v-44l181 8l15 -19
c0 -1 -11 -58 -11 -59l-185 6v-39c0 -48 0 -117 8 -128c7 -10 62 -10 94 -10c29 0 60 1 85 4l26 106c23 0 69 -3 88 -6c2 -52 1 -96 0 -164h-502l-10 50l83 26c4 42 5 84 5 137v23l-167 -3c-39 -65 -76 -126 -98 -163l72 -20l-11 -50h-221l-10 50l71 23
c102 157 206 322 303 487h218zM419 492c-18 -30 -64 -107 -114 -190l126 -2v192h-12z" />
    <glyph glyph-name="b.smcp" horiz-adv-x="653" 
d="M64 50l80 26c4 40 8 70 8 134v146c0 46 -2 114 -10 126c-8 9 -49 19 -78 28l11 50h130c28 0 119 5 158 5c134 0 217 -48 217 -144c0 -66 -51 -107 -103 -129c79 -18 132 -66 132 -140c0 -107 -101 -159 -216 -159c-53 0 -127 7 -182 7h-137zM277 494
c-2 -39 -2 -110 -2 -182l124 -4c30 17 54 56 54 102c0 32 -10 55 -22 69c-18 15 -46 22 -80 22c-27 0 -53 -2 -74 -7zM278 76c9 -12 55 -18 91 -18c27 0 55 3 76 11c20 14 37 43 37 82c0 55 -34 90 -104 91h-103c0 -84 -2 -158 3 -166z" />
    <glyph glyph-name="c.smcp" horiz-adv-x="634" 
d="M364 66c43 0 73 7 91 17c5 29 12 64 21 113c20 1 64 -1 84 -3c3 -34 7 -93 7 -125l-13 -23c-46 -31 -118 -56 -212 -56c-177 0 -288 112 -288 283c0 180 132 298 304 298c82 0 147 -19 204 -47l13 -23c-7 -42 -17 -101 -26 -142c-16 -1 -61 -1 -81 2
c-7 47 -16 93 -21 115c-20 11 -55 18 -93 18c-44 0 -83 -10 -116 -31c-36 -37 -57 -104 -57 -182c0 -124 61 -214 183 -214z" />
    <glyph glyph-name="cacute.smcp" horiz-adv-x="634" 
d="M195 676c70 62 160 134 241 192c20 -20 47 -56 60 -84l-9 -29l-257 -123l-15 4zM364 66c43 0 73 7 91 17c5 29 12 64 21 113c20 1 64 -1 84 -3c3 -34 7 -93 7 -125l-13 -23c-46 -31 -118 -56 -212 -56c-177 0 -288 112 -288 283c0 180 132 298 304 298
c82 0 147 -19 204 -47l13 -23c-7 -42 -17 -101 -26 -142c-16 -1 -61 -1 -81 2c-7 47 -16 93 -21 115c-20 11 -55 18 -93 18c-44 0 -83 -10 -116 -31c-36 -37 -57 -104 -57 -182c0 -124 61 -214 183 -214z" />
    <glyph glyph-name="ccaron.smcp" horiz-adv-x="634" 
d="M549 836c-48 -65 -105 -134 -162 -196l-85 -1c-37 43 -129 151 -160 195l29 35l16 2l160 -131l157 131l17 -2zM364 66c43 0 73 7 91 17c5 29 12 64 21 113c20 1 64 -1 84 -3c3 -34 7 -93 7 -125l-13 -23c-46 -31 -118 -56 -212 -56c-177 0 -288 112 -288 283
c0 180 132 298 304 298c82 0 147 -19 204 -47l13 -23c-7 -42 -17 -101 -26 -142c-16 -1 -61 -1 -81 2c-7 47 -16 93 -21 115c-20 11 -55 18 -93 18c-44 0 -83 -10 -116 -31c-36 -37 -57 -104 -57 -182c0 -124 61 -214 183 -214z" />
    <glyph glyph-name="ccedilla.smcp" horiz-adv-x="634" 
d="M364 66c43 0 73 7 91 17c5 29 12 64 21 113c20 1 64 -1 84 -3c3 -34 7 -93 7 -125l-13 -23c-40 -27 -99 -49 -174 -55l-18 -59c9 2 19 3 30 3c64 0 105 -32 105 -85c0 -67 -45 -109 -140 -110c-51 1 -88 10 -116 25l17 52c29 -7 54 -10 79 -10c17 0 33 1 46 6
c5 8 8 16 8 27c0 22 -16 34 -52 34c-15 0 -29 -2 -40 -5l-23 20l32 102c-157 14 -254 123 -254 282c0 180 132 298 304 298c82 0 147 -19 204 -47l13 -23c-7 -42 -17 -101 -26 -142c-16 -1 -61 -1 -81 2c-7 47 -16 93 -21 115c-20 11 -55 18 -93 18c-44 0 -83 -10 -116 -31
c-36 -37 -57 -104 -57 -182c0 -124 61 -214 183 -214z" />
    <glyph glyph-name="ccircumflex.smcp" horiz-adv-x="634" 
d="M142 664c48 64 105 134 162 196h85c37 -43 129 -151 160 -194l-29 -35l-16 -2l-160 130l-157 -130l-17 2zM364 66c43 0 73 7 91 17c5 29 12 64 21 113c20 1 64 -1 84 -3c3 -34 7 -93 7 -125l-13 -23c-46 -31 -118 -56 -212 -56c-177 0 -288 112 -288 283
c0 180 132 298 304 298c82 0 147 -19 204 -47l13 -23c-7 -42 -17 -101 -26 -142c-16 -1 -61 -1 -81 2c-7 47 -16 93 -21 115c-20 11 -55 18 -93 18c-44 0 -83 -10 -116 -31c-36 -37 -57 -104 -57 -182c0 -124 61 -214 183 -214z" />
    <glyph glyph-name="cdotaccent.smcp" horiz-adv-x="634" 
d="M349 833c32 0 80 -41 80 -79c0 -39 -48 -86 -83 -86c-36 0 -85 40 -85 79s52 86 88 86zM364 66c43 0 73 7 91 17c5 29 12 64 21 113c20 1 64 -1 84 -3c3 -34 7 -93 7 -125l-13 -23c-46 -31 -118 -56 -212 -56c-177 0 -288 112 -288 283c0 180 132 298 304 298
c82 0 147 -19 204 -47l13 -23c-7 -42 -17 -101 -26 -142c-16 -1 -61 -1 -81 2c-7 47 -16 93 -21 115c-20 11 -55 18 -93 18c-44 0 -83 -10 -116 -31c-36 -37 -57 -104 -57 -182c0 -124 61 -214 183 -214z" />
    <glyph glyph-name="d.smcp" horiz-adv-x="730" 
d="M64 50l80 26c5 45 8 82 8 134v146c0 45 -3 116 -10 125c-7 10 -47 19 -78 29l11 50h127c29 0 120 5 161 5c221 0 313 -126 313 -281c0 -187 -122 -289 -298 -289c-55 0 -123 5 -183 5h-121zM275 206c0 -49 0 -110 6 -122c8 -9 49 -14 91 -15c32 0 64 5 85 13
c60 30 92 111 92 202s-30 148 -72 183c-32 17 -72 24 -118 24c-31 0 -57 -2 -81 -6c-1 -18 -3 -86 -3 -135v-144z" />
    <glyph glyph-name="dcaron.smcp" horiz-adv-x="730" 
d="M573 836c-48 -65 -105 -134 -161 -196l-85 -1c-37 43 -130 151 -160 195l28 35l17 2l160 -131l157 131l16 -2zM64 50l80 26c5 45 8 82 8 134v146c0 45 -3 116 -10 125c-7 10 -47 19 -78 29l11 50h127c29 0 120 5 161 5c221 0 313 -126 313 -281
c0 -187 -122 -289 -298 -289c-55 0 -123 5 -183 5h-121zM275 206c0 -49 0 -110 6 -122c8 -9 49 -14 91 -15c32 0 64 5 85 13c60 30 92 111 92 202s-30 148 -72 183c-32 17 -72 24 -118 24c-31 0 -57 -2 -81 -6c-1 -18 -3 -86 -3 -135v-144z" />
    <glyph glyph-name="ddotbelow.smcp" horiz-adv-x="730" 
d="M64 50l80 26c5 45 8 82 8 134v146c0 45 -3 116 -10 125c-7 10 -47 19 -78 29l11 50h127c29 0 120 5 161 5c221 0 313 -126 313 -281c0 -187 -122 -289 -298 -289c-55 0 -123 5 -183 5h-121zM275 206c0 -49 0 -110 6 -122c8 -9 49 -14 91 -15c32 0 64 5 85 13
c60 30 92 111 92 202s-30 148 -72 183c-32 17 -72 24 -118 24c-31 0 -57 -2 -81 -6c-1 -18 -3 -86 -3 -135v-144zM387 -85c33 0 81 -41 81 -80s-48 -85 -84 -85s-84 39 -84 78s52 87 87 87z" />
    <glyph glyph-name="dcroat.smcp" horiz-adv-x="730" 
d="M64 50l80 26c5 45 8 82 8 134v40h-90l-15 16l8 43h97v47c0 45 -3 116 -10 125c-7 10 -47 19 -78 29l11 50h127c29 0 120 5 161 5c221 0 313 -126 313 -281c0 -187 -122 -289 -298 -289c-55 0 -123 5 -183 5h-121zM275 206c0 -49 0 -110 6 -122c8 -9 49 -14 91 -15
c32 0 64 5 85 13c60 30 92 111 92 202s-30 148 -72 183c-32 17 -72 24 -118 24c-31 0 -57 -2 -81 -6c-1 -18 -3 -86 -3 -135v-41h155l15 -14c0 -1 -8 -44 -8 -45h-162v-44z" />
    <glyph glyph-name="e.smcp" horiz-adv-x="639" 
d="M309 560c98 0 177 2 242 7c7 -10 19 -26 23 -34c-2 -39 -11 -101 -18 -142c-20 -1 -59 -1 -80 1l-20 105c-25 2 -61 3 -93 3c-31 0 -70 -1 -84 -4c-3 -22 -4 -78 -4 -145v-41l181 8l15 -19c0 -1 -10 -58 -11 -59l-185 6v-42c0 -50 0 -123 8 -134c7 -10 62 -10 95 -10
c28 0 59 1 85 4l26 106c22 0 68 -3 87 -6c2 -52 1 -96 0 -164h-502l-10 50l83 26c4 44 5 90 5 147v133c0 40 -1 117 -9 127c-8 9 -48 18 -79 27l11 50h234z" />
    <glyph glyph-name="eacute.smcp" horiz-adv-x="639" 
d="M188 676c70 62 160 134 241 192c20 -20 47 -56 60 -84l-9 -29l-257 -123l-15 4zM309 560c98 0 177 2 242 7c7 -10 19 -26 23 -34c-2 -39 -11 -101 -18 -142c-20 -1 -59 -1 -80 1l-20 105c-25 2 -61 3 -93 3c-31 0 -70 -1 -84 -4c-3 -22 -4 -78 -4 -145v-41l181 8l15 -19
c0 -1 -10 -58 -11 -59l-185 6v-42c0 -50 0 -123 8 -134c7 -10 62 -10 95 -10c28 0 59 1 85 4l26 106c22 0 68 -3 87 -6c2 -52 1 -96 0 -164h-502l-10 50l83 26c4 44 5 90 5 147v133c0 40 -1 117 -9 127c-8 9 -48 18 -79 27l11 50h234z" />
    <glyph glyph-name="ebreve.smcp" horiz-adv-x="639" 
d="M340 745c66 0 111 31 130 98l34 -5l11 -16c-6 -120 -87 -179 -180 -179c-97 0 -167 67 -170 193l46 6c17 -64 59 -97 129 -97zM309 560c98 0 177 2 242 7c7 -10 19 -26 23 -34c-2 -39 -11 -101 -18 -142c-20 -1 -59 -1 -80 1l-20 105c-25 2 -61 3 -93 3
c-31 0 -70 -1 -84 -4c-3 -22 -4 -78 -4 -145v-41l181 8l15 -19c0 -1 -10 -58 -11 -59l-185 6v-42c0 -50 0 -123 8 -134c7 -10 62 -10 95 -10c28 0 59 1 85 4l26 106c22 0 68 -3 87 -6c2 -52 1 -96 0 -164h-502l-10 50l83 26c4 44 5 90 5 147v133c0 40 -1 117 -9 127
c-8 9 -48 18 -79 27l11 50h234z" />
    <glyph glyph-name="ecaron.smcp" horiz-adv-x="639" 
d="M542 836c-48 -65 -105 -134 -162 -196l-85 -1c-37 43 -129 151 -160 195l29 35l16 2l160 -131l157 131l17 -2zM309 560c98 0 177 2 242 7c7 -10 19 -26 23 -34c-2 -39 -11 -101 -18 -142c-20 -1 -59 -1 -80 1l-20 105c-25 2 -61 3 -93 3c-31 0 -70 -1 -84 -4
c-3 -22 -4 -78 -4 -145v-41l181 8l15 -19c0 -1 -10 -58 -11 -59l-185 6v-42c0 -50 0 -123 8 -134c7 -10 62 -10 95 -10c28 0 59 1 85 4l26 106c22 0 68 -3 87 -6c2 -52 1 -96 0 -164h-502l-10 50l83 26c4 44 5 90 5 147v133c0 40 -1 117 -9 127c-8 9 -48 18 -79 27l11 50
h234z" />
    <glyph glyph-name="ecircumflex.smcp" horiz-adv-x="639" 
d="M135 664c48 64 105 134 162 196h85c37 -43 129 -151 160 -194l-29 -35l-16 -2l-160 130l-157 -130l-17 2zM309 560c98 0 177 2 242 7c7 -10 19 -26 23 -34c-2 -39 -11 -101 -18 -142c-20 -1 -59 -1 -80 1l-20 105c-25 2 -61 3 -93 3c-31 0 -70 -1 -84 -4
c-3 -22 -4 -78 -4 -145v-41l181 8l15 -19c0 -1 -10 -58 -11 -59l-185 6v-42c0 -50 0 -123 8 -134c7 -10 62 -10 95 -10c28 0 59 1 85 4l26 106c22 0 68 -3 87 -6c2 -52 1 -96 0 -164h-502l-10 50l83 26c4 44 5 90 5 147v133c0 40 -1 117 -9 127c-8 9 -48 18 -79 27l11 50
h234z" />
    <glyph glyph-name="edieresis.smcp" horiz-adv-x="639" 
d="M296 755c0 -37 -42 -83 -74 -83c-41 0 -86 34 -86 69c0 46 44 89 80 89c34 0 80 -35 80 -75zM541 755c0 -37 -43 -83 -75 -83c-42 0 -86 34 -86 69c0 46 44 89 81 89c34 0 80 -35 80 -75zM309 560c98 0 177 2 242 7c7 -10 19 -26 23 -34c-2 -39 -11 -101 -18 -142
c-20 -1 -59 -1 -80 1l-20 105c-25 2 -61 3 -93 3c-31 0 -70 -1 -84 -4c-3 -22 -4 -78 -4 -145v-41l181 8l15 -19c0 -1 -10 -58 -11 -59l-185 6v-42c0 -50 0 -123 8 -134c7 -10 62 -10 95 -10c28 0 59 1 85 4l26 106c22 0 68 -3 87 -6c2 -52 1 -96 0 -164h-502l-10 50l83 26
c4 44 5 90 5 147v133c0 40 -1 117 -9 127c-8 9 -48 18 -79 27l11 50h234z" />
    <glyph glyph-name="edotaccent.smcp" horiz-adv-x="639" 
d="M342 833c32 0 80 -41 80 -79c0 -39 -48 -86 -83 -86c-36 0 -85 40 -85 79s52 86 88 86zM309 560c98 0 177 2 242 7c7 -10 19 -26 23 -34c-2 -39 -11 -101 -18 -142c-20 -1 -59 -1 -80 1l-20 105c-25 2 -61 3 -93 3c-31 0 -70 -1 -84 -4c-3 -22 -4 -78 -4 -145v-41l181 8
l15 -19c0 -1 -10 -58 -11 -59l-185 6v-42c0 -50 0 -123 8 -134c7 -10 62 -10 95 -10c28 0 59 1 85 4l26 106c22 0 68 -3 87 -6c2 -52 1 -96 0 -164h-502l-10 50l83 26c4 44 5 90 5 147v133c0 40 -1 117 -9 127c-8 9 -48 18 -79 27l11 50h234z" />
    <glyph glyph-name="edotbelow.smcp" horiz-adv-x="639" 
d="M309 560c98 0 177 2 242 7c7 -10 19 -26 23 -34c-2 -39 -11 -101 -18 -142c-20 -1 -59 -1 -80 1l-20 105c-25 2 -61 3 -93 3c-31 0 -70 -1 -84 -4c-3 -22 -4 -78 -4 -145v-41l181 8l15 -19c0 -1 -10 -58 -11 -59l-185 6v-42c0 -50 0 -123 8 -134c7 -10 62 -10 95 -10
c28 0 59 1 85 4l26 106c22 0 68 -3 87 -6c2 -52 1 -96 0 -164h-502l-10 50l83 26c4 44 5 90 5 147v133c0 40 -1 117 -9 127c-8 9 -48 18 -79 27l11 50h234zM357 -85c33 0 81 -41 81 -80s-48 -85 -84 -85s-84 39 -84 78s52 87 87 87z" />
    <glyph glyph-name="egrave.smcp" horiz-adv-x="639" 
d="M489 676l-20 -40l-15 -4l-257 123l-9 29c13 28 39 64 59 84c82 -58 172 -130 242 -192zM309 560c98 0 177 2 242 7c7 -10 19 -26 23 -34c-2 -39 -11 -101 -18 -142c-20 -1 -59 -1 -80 1l-20 105c-25 2 -61 3 -93 3c-31 0 -70 -1 -84 -4c-3 -22 -4 -78 -4 -145v-41l181 8
l15 -19c0 -1 -10 -58 -11 -59l-185 6v-42c0 -50 0 -123 8 -134c7 -10 62 -10 95 -10c28 0 59 1 85 4l26 106c22 0 68 -3 87 -6c2 -52 1 -96 0 -164h-502l-10 50l83 26c4 44 5 90 5 147v133c0 40 -1 117 -9 127c-8 9 -48 18 -79 27l11 50h234z" />
    <glyph glyph-name="emacron.smcp" horiz-adv-x="639" 
d="M536 793v-86l-380 -4l-15 15l9 78zM309 560c98 0 177 2 242 7c7 -10 19 -26 23 -34c-2 -39 -11 -101 -18 -142c-20 -1 -59 -1 -80 1l-20 105c-25 2 -61 3 -93 3c-31 0 -70 -1 -84 -4c-3 -22 -4 -78 -4 -145v-41l181 8l15 -19c0 -1 -10 -58 -11 -59l-185 6v-42
c0 -50 0 -123 8 -134c7 -10 62 -10 95 -10c28 0 59 1 85 4l26 106c22 0 68 -3 87 -6c2 -52 1 -96 0 -164h-502l-10 50l83 26c4 44 5 90 5 147v133c0 40 -1 117 -9 127c-8 9 -48 18 -79 27l11 50h234z" />
    <glyph glyph-name="eogonek.smcp" horiz-adv-x="639" 
d="M576 0c-75 -53 -115 -95 -115 -135c0 -14 5 -24 18 -29c32 5 64 16 89 24l18 -45c-26 -27 -69 -52 -119 -58c-65 1 -105 33 -105 86c0 59 43 113 113 157h-401l-10 50l83 26c4 44 5 90 5 147v133c0 40 -1 117 -9 127c-8 9 -48 18 -79 27l11 50h234c98 0 177 2 242 7
c7 -10 19 -26 23 -34c-2 -39 -11 -101 -18 -142c-20 -1 -59 -1 -80 1l-20 105c-25 2 -61 3 -93 3c-31 0 -70 -1 -84 -4c-3 -22 -4 -78 -4 -145v-41l181 8l15 -19c0 -1 -10 -58 -11 -59l-185 6v-42c0 -50 0 -123 8 -134c7 -10 62 -10 95 -10c28 0 59 1 85 4l26 106
c22 0 68 -3 87 -6c2 -52 1 -96 0 -164z" />
    <glyph glyph-name="etilde.smcp" horiz-adv-x="639" 
d="M127 692c27 42 90 129 110 129c44 0 140 -31 200 -53l76 73l37 -28v-26c-32 -51 -83 -128 -117 -128c-40 0 -133 43 -200 67l-57 -64l-17 1zM309 560c98 0 177 2 242 7c7 -10 19 -26 23 -34c-2 -39 -11 -101 -18 -142c-20 -1 -59 -1 -80 1l-20 105c-25 2 -61 3 -93 3
c-31 0 -70 -1 -84 -4c-3 -22 -4 -78 -4 -145v-41l181 8l15 -19c0 -1 -10 -58 -11 -59l-185 6v-42c0 -50 0 -123 8 -134c7 -10 62 -10 95 -10c28 0 59 1 85 4l26 106c22 0 68 -3 87 -6c2 -52 1 -96 0 -164h-502l-10 50l83 26c4 44 5 90 5 147v133c0 40 -1 117 -9 127
c-8 9 -48 18 -79 27l11 50h234z" />
    <glyph glyph-name="eth.smcp" horiz-adv-x="730" 
d="M64 50l80 26c5 45 8 82 8 134v40h-90l-15 16l8 43h97v47c0 45 -3 116 -10 125c-7 10 -47 19 -78 29l11 50h127c29 0 120 5 161 5c221 0 313 -126 313 -281c0 -187 -122 -289 -298 -289c-55 0 -123 5 -183 5h-121zM275 206c0 -49 0 -110 6 -122c8 -9 49 -14 91 -15
c32 0 64 5 85 13c60 30 92 111 92 202s-30 148 -72 183c-32 17 -72 24 -118 24c-31 0 -57 -2 -81 -6c-1 -18 -3 -86 -3 -135v-41h155l15 -14c0 -1 -8 -44 -8 -45h-162v-44z" />
    <glyph glyph-name="f.smcp" horiz-adv-x="600" 
d="M64 50l81 26c3 12 7 119 7 153v127c0 40 -1 118 -9 126c-9 9 -49 19 -79 28l11 50h234c98 0 177 2 242 7c7 -10 19 -26 23 -34c-2 -39 -13 -101 -19 -142c-19 -1 -59 -1 -79 1l-20 105c-25 2 -61 3 -93 3c-31 0 -70 -1 -84 -4c-3 -22 -4 -78 -4 -145v-58l191 7l15 -19
c0 -1 -10 -57 -11 -58l-195 6c0 -51 3 -136 12 -147c9 -13 60 -22 102 -32l-11 -50h-303z" />
    <glyph glyph-name="g.smcp" horiz-adv-x="683" 
d="M372 66c36 0 64 6 87 16c0 57 1 98 -4 108c-4 9 -49 18 -80 27l12 50h260l10 -50l-72 -21c-3 -38 -4 -85 -4 -129v-12c-50 -36 -136 -66 -225 -66c-185 0 -302 108 -302 284c0 186 141 298 320 298c83 0 149 -21 202 -48l14 -23c-8 -44 -20 -106 -26 -136
c-20 -1 -63 0 -81 2c-9 47 -17 88 -22 107c-26 14 -60 20 -101 20c-48 0 -89 -12 -122 -34c-35 -41 -57 -104 -57 -178c0 -137 76 -215 191 -215z" />
    <glyph glyph-name="gacute.smcp" horiz-adv-x="683" 
d="M199 676c70 62 160 134 241 192c20 -20 47 -56 60 -84l-9 -29l-257 -123l-15 4zM372 66c36 0 64 6 87 16c0 57 1 98 -4 108c-4 9 -49 18 -80 27l12 50h260l10 -50l-72 -21c-3 -38 -4 -85 -4 -129v-12c-50 -36 -136 -66 -225 -66c-185 0 -302 108 -302 284
c0 186 141 298 320 298c83 0 149 -21 202 -48l14 -23c-8 -44 -20 -106 -26 -136c-20 -1 -63 0 -81 2c-9 47 -17 88 -22 107c-26 14 -60 20 -101 20c-48 0 -89 -12 -122 -34c-35 -41 -57 -104 -57 -178c0 -137 76 -215 191 -215z" />
    <glyph glyph-name="gbreve.smcp" horiz-adv-x="683" 
d="M351 745c66 0 111 31 130 98l34 -5l11 -16c-6 -120 -87 -179 -180 -179c-97 0 -167 67 -170 193l46 6c17 -64 59 -97 129 -97zM372 66c36 0 64 6 87 16c0 57 1 98 -4 108c-4 9 -49 18 -80 27l12 50h260l10 -50l-72 -21c-3 -38 -4 -85 -4 -129v-12
c-50 -36 -136 -66 -225 -66c-185 0 -302 108 -302 284c0 186 141 298 320 298c83 0 149 -21 202 -48l14 -23c-8 -44 -20 -106 -26 -136c-20 -1 -63 0 -81 2c-9 47 -17 88 -22 107c-26 14 -60 20 -101 20c-48 0 -89 -12 -122 -34c-35 -41 -57 -104 -57 -178
c0 -137 76 -215 191 -215z" />
    <glyph glyph-name="gcaron.smcp" horiz-adv-x="683" 
d="M553 836c-48 -65 -105 -134 -162 -196l-84 -1c-37 43 -130 151 -161 195l29 35l17 2l159 -131l157 131l17 -2zM372 66c36 0 64 6 87 16c0 57 1 98 -4 108c-4 9 -49 18 -80 27l12 50h260l10 -50l-72 -21c-3 -38 -4 -85 -4 -129v-12c-50 -36 -136 -66 -225 -66
c-185 0 -302 108 -302 284c0 186 141 298 320 298c83 0 149 -21 202 -48l14 -23c-8 -44 -20 -106 -26 -136c-20 -1 -63 0 -81 2c-9 47 -17 88 -22 107c-26 14 -60 20 -101 20c-48 0 -89 -12 -122 -34c-35 -41 -57 -104 -57 -178c0 -137 76 -215 191 -215z" />
    <glyph glyph-name="gcircumflex.smcp" horiz-adv-x="683" 
d="M146 664c48 64 106 134 162 196h85c37 -43 129 -151 160 -194l-29 -35l-16 -2l-160 130l-157 -130l-17 2zM372 66c36 0 64 6 87 16c0 57 1 98 -4 108c-4 9 -49 18 -80 27l12 50h260l10 -50l-72 -21c-3 -38 -4 -85 -4 -129v-12c-50 -36 -136 -66 -225 -66
c-185 0 -302 108 -302 284c0 186 141 298 320 298c83 0 149 -21 202 -48l14 -23c-8 -44 -20 -106 -26 -136c-20 -1 -63 0 -81 2c-9 47 -17 88 -22 107c-26 14 -60 20 -101 20c-48 0 -89 -12 -122 -34c-35 -41 -57 -104 -57 -178c0 -137 76 -215 191 -215z" />
    <glyph glyph-name="gcommaaccent.smcp" horiz-adv-x="683" 
d="M372 66c36 0 64 6 87 16c0 57 1 98 -4 108c-4 9 -49 18 -80 27l12 50h260l10 -50l-72 -21c-3 -38 -4 -85 -4 -129v-12c-50 -36 -136 -66 -225 -66c-185 0 -302 108 -302 284c0 186 141 298 320 298c83 0 149 -21 202 -48l14 -23c-8 -44 -20 -106 -26 -136
c-20 -1 -63 0 -81 2c-9 47 -17 88 -22 107c-26 14 -60 20 -101 20c-48 0 -89 -12 -122 -34c-35 -41 -57 -104 -57 -178c0 -137 76 -215 191 -215zM355 -79c36 0 83 -39 83 -80c0 -66 -66 -166 -112 -221l-43 29c19 36 37 76 47 112c-32 11 -59 39 -59 67c0 48 45 93 84 93z
" />
    <glyph glyph-name="gdotaccent.smcp" horiz-adv-x="683" 
d="M353 833c32 0 81 -41 81 -79c0 -39 -49 -86 -84 -86c-36 0 -85 40 -85 79s52 86 88 86zM372 66c36 0 64 6 87 16c0 57 1 98 -4 108c-4 9 -49 18 -80 27l12 50h260l10 -50l-72 -21c-3 -38 -4 -85 -4 -129v-12c-50 -36 -136 -66 -225 -66c-185 0 -302 108 -302 284
c0 186 141 298 320 298c83 0 149 -21 202 -48l14 -23c-8 -44 -20 -106 -26 -136c-20 -1 -63 0 -81 2c-9 47 -17 88 -22 107c-26 14 -60 20 -101 20c-48 0 -89 -12 -122 -34c-35 -41 -57 -104 -57 -178c0 -137 76 -215 191 -215z" />
    <glyph glyph-name="h.smcp" horiz-adv-x="820" 
d="M64 50l83 26c2 21 5 82 5 134v140c0 45 -1 122 -7 130c-7 9 -50 21 -81 30l11 50h277l11 -50l-83 -26c-3 -21 -5 -82 -5 -134v-38l270 -3v41c0 45 -1 122 -7 130c-7 9 -50 21 -81 30l11 50h277l11 -50l-83 -26c-3 -21 -5 -82 -5 -134v-140c0 -45 0 -122 7 -130
c7 -9 50 -21 81 -30l-11 -50h-278l-10 50l83 26c2 21 5 82 5 134v32l-270 -4v-28c0 -45 0 -122 7 -130c7 -9 50 -21 81 -30l-11 -50h-278z" />
    <glyph glyph-name="hbar.smcp" horiz-adv-x="820" 
d="M64 50l83 26c2 21 5 81 5 134v153h-86l-15 16s9 50 9 51h91c-1 25 -3 46 -6 50c-7 9 -50 21 -81 30l11 50h277l11 -50l-83 -26c-1 -10 -3 -30 -4 -54h268c-1 25 -3 46 -6 50c-7 9 -50 21 -81 30l11 50h277l11 -50l-83 -26c-1 -10 -3 -30 -4 -54h83l16 -15s-9 -51 -10 -52
h-90v-153c0 -44 0 -122 7 -130c7 -9 50 -21 81 -30l-11 -50h-278l-10 50l83 26c2 21 5 81 5 134v16l-270 -4v-12c0 -44 0 -122 7 -130c7 -9 50 -21 81 -30l-11 -50h-278zM275 296l270 -3v70h-270v-67z" />
    <glyph glyph-name="hcircumflex.smcp" horiz-adv-x="820" 
d="M209 664c48 64 105 134 162 196h84c37 -43 130 -151 161 -194l-29 -35l-17 -2l-159 130l-158 -130l-16 2zM64 50l83 26c2 21 5 82 5 134v140c0 45 -1 122 -7 130c-7 9 -50 21 -81 30l11 50h277l11 -50l-83 -26c-3 -21 -5 -82 -5 -134v-38l270 -3v41c0 45 -1 122 -7 130
c-7 9 -50 21 -81 30l11 50h277l11 -50l-83 -26c-3 -21 -5 -82 -5 -134v-140c0 -45 0 -122 7 -130c7 -9 50 -21 81 -30l-11 -50h-278l-10 50l83 26c2 21 5 82 5 134v32l-270 -4v-28c0 -45 0 -122 7 -130c7 -9 50 -21 81 -30l-11 -50h-278z" />
    <glyph glyph-name="hdotbelow.smcp" horiz-adv-x="820" 
d="M64 50l83 26c2 21 5 82 5 134v140c0 45 -1 122 -7 130c-7 9 -50 21 -81 30l11 50h277l11 -50l-83 -26c-3 -21 -5 -82 -5 -134v-38l270 -3v41c0 45 -1 122 -7 130c-7 9 -50 21 -81 30l11 50h277l11 -50l-83 -26c-3 -21 -5 -82 -5 -134v-140c0 -45 0 -122 7 -130
c7 -9 50 -21 81 -30l-11 -50h-278l-10 50l83 26c2 21 5 82 5 134v32l-270 -4v-28c0 -45 0 -122 7 -130c7 -9 50 -21 81 -30l-11 -50h-278zM416 -85c33 0 81 -41 81 -80s-48 -85 -83 -85c-36 0 -85 39 -85 78s52 87 87 87z" />
    <glyph glyph-name="i.smcp" horiz-adv-x="427" 
d="M64 50l83 26c2 21 5 82 5 134v140c0 45 -1 122 -7 130c-7 9 -50 21 -81 30l11 50h277l11 -50l-83 -26c-3 -21 -5 -82 -5 -134v-140c0 -45 0 -122 7 -130c7 -9 50 -21 81 -30l-11 -50h-278z" />
    <glyph glyph-name="iacute.smcp" horiz-adv-x="427" 
d="M90 659c50 69 113 149 174 217c24 -15 57 -42 77 -67l-2 -31l-205 -154l-17 1zM64 50l83 26c2 21 5 82 5 134v140c0 45 -1 122 -7 130c-7 9 -50 21 -81 30l11 50h277l11 -50l-83 -26c-3 -21 -5 -82 -5 -134v-140c0 -45 0 -122 7 -130c7 -9 50 -21 81 -30l-11 -50h-278z
" />
    <glyph glyph-name="ibreve.smcp" horiz-adv-x="427" 
d="M217 751c56 0 89 34 105 100l34 -5l10 -15c-3 -121 -71 -182 -155 -182s-143 68 -147 193l47 6c18 -62 47 -97 106 -97zM64 50l83 26c2 21 5 82 5 134v140c0 45 -1 122 -7 130c-7 9 -50 21 -81 30l11 50h277l11 -50l-83 -26c-3 -21 -5 -82 -5 -134v-140
c0 -45 0 -122 7 -130c7 -9 50 -21 81 -30l-11 -50h-278z" />
    <glyph glyph-name="icaron.smcp" horiz-adv-x="427" 
d="M382 841c-37 -68 -81 -143 -127 -211h-85c-31 47 -102 162 -126 209l33 31h17l121 -131l119 130h16zM64 50l83 26c2 21 5 82 5 134v140c0 45 -1 122 -7 130c-7 9 -50 21 -81 30l11 50h277l11 -50l-83 -26c-3 -21 -5 -82 -5 -134v-140c0 -45 0 -122 7 -130
c7 -9 50 -21 81 -30l-11 -50h-278z" />
    <glyph glyph-name="icircumflex.smcp" horiz-adv-x="427" 
d="M47 659c37 68 81 143 127 211h85c31 -47 102 -162 126 -209l-33 -31h-17l-121 131l-119 -130h-16zM64 50l83 26c2 21 5 82 5 134v140c0 45 -1 122 -7 130c-7 9 -50 21 -81 30l11 50h277l11 -50l-83 -26c-3 -21 -5 -82 -5 -134v-140c0 -45 0 -122 7 -130
c7 -9 50 -21 81 -30l-11 -50h-278z" />
    <glyph glyph-name="idieresis.smcp" horiz-adv-x="427" 
d="M110 676c-38 0 -80 31 -80 64c0 43 41 84 76 84c32 0 76 -33 76 -70c0 -35 -41 -78 -72 -78zM330 676c-39 0 -82 31 -82 64c0 43 42 84 77 84c33 0 76 -33 76 -70c0 -35 -40 -78 -71 -78zM64 50l83 26c2 21 5 82 5 134v140c0 45 -1 122 -7 130c-7 9 -50 21 -81 30l11 50
h277l11 -50l-83 -26c-3 -21 -5 -82 -5 -134v-140c0 -45 0 -122 7 -130c7 -9 50 -21 81 -30l-11 -50h-278z" />
    <glyph glyph-name="idotbelow.smcp" horiz-adv-x="427" 
d="M64 50l83 26c2 21 5 82 5 134v140c0 45 -1 122 -7 130c-7 9 -50 21 -81 30l11 50h277l11 -50l-83 -26c-3 -21 -5 -82 -5 -134v-140c0 -45 0 -122 7 -130c7 -9 50 -21 81 -30l-11 -50h-278zM218 -85c33 0 81 -41 81 -80s-48 -85 -83 -85c-36 0 -85 39 -85 78s52 87 87 87z
" />
    <glyph glyph-name="igrave.smcp" horiz-adv-x="427" 
d="M341 659l-28 -34l-17 -1l-204 154l-2 31c20 25 53 52 77 67c61 -68 123 -148 174 -217zM64 50l83 26c2 21 5 82 5 134v140c0 45 -1 122 -7 130c-7 9 -50 21 -81 30l11 50h277l11 -50l-83 -26c-3 -21 -5 -82 -5 -134v-140c0 -45 0 -122 7 -130c7 -9 50 -21 81 -30l-11 -50
h-278z" />
    <glyph glyph-name="imacron.smcp" horiz-adv-x="427" 
d="M371 794v-87l-297 -3l-15 15l9 78zM64 50l83 26c2 21 5 82 5 134v140c0 45 -1 122 -7 130c-7 9 -50 21 -81 30l11 50h277l11 -50l-83 -26c-3 -21 -5 -82 -5 -134v-140c0 -45 0 -122 7 -130c7 -9 50 -21 81 -30l-11 -50h-278z" />
    <glyph glyph-name="iogonek.smcp" horiz-adv-x="427" 
d="M64 50l83 26c2 21 5 82 5 134v140c0 45 -1 122 -7 130c-7 9 -50 21 -81 30l11 50h277l11 -50l-83 -26c-3 -21 -5 -82 -5 -134v-140c0 -45 0 -122 7 -130c7 -9 50 -21 81 -30l-11 -50c-76 -53 -115 -95 -115 -135c0 -14 5 -24 18 -29c32 5 64 16 88 24l18 -45
c-25 -27 -68 -52 -118 -58c-65 1 -106 33 -106 86c0 59 43 113 114 157h-177z" />
    <glyph glyph-name="itilde.smcp" horiz-adv-x="427" 
d="M33 691c21 48 78 130 96 130c33 0 98 -27 169 -52l61 70l38 -24l1 -27c-28 -58 -73 -129 -103 -129s-93 35 -166 65l-45 -61h-17zM64 50l83 26c2 21 5 82 5 134v140c0 45 -1 122 -7 130c-7 9 -50 21 -81 30l11 50h277l11 -50l-83 -26c-3 -21 -5 -82 -5 -134v-140
c0 -45 0 -122 7 -130c7 -9 50 -21 81 -30l-11 -50h-278z" />
    <glyph glyph-name="dotlessi.smcp" horiz-adv-x="427" 
d="M64 50l83 26c2 21 5 82 5 134v140c0 45 -1 122 -7 130c-7 9 -50 21 -81 30l11 50h277l11 -50l-83 -26c-3 -21 -5 -82 -5 -134v-140c0 -45 0 -122 7 -130c7 -9 50 -21 81 -30l-11 -50h-278z" />
    <glyph glyph-name="j.smcp" horiz-adv-x="398" 
d="M146 -15c5 22 7 46 7 87c0 61 -5 137 -5 186v92c0 45 0 122 -7 130c-7 9 -50 21 -81 30l11 50h278l10 -50l-83 -26c-2 -21 -5 -82 -5 -134v-246c0 -135 -49 -184 -175 -276h-25c-22 21 -43 60 -52 90z" />
    <glyph glyph-name="jcircumflex.smcp" horiz-adv-x="398" 
d="M39 659c37 68 81 143 127 211h85c31 -47 102 -162 126 -209l-33 -31h-17l-121 131l-119 -130h-16zM146 -15c5 22 7 46 7 87c0 61 -5 137 -5 186v92c0 45 0 122 -7 130c-7 9 -50 21 -81 30l11 50h278l10 -50l-83 -26c-2 -21 -5 -82 -5 -134v-246
c0 -135 -49 -184 -175 -276h-25c-22 21 -43 60 -52 90z" />
    <glyph glyph-name="k.smcp" horiz-adv-x="706" 
d="M64 50l83 26c2 21 5 82 5 134v140c0 45 -1 122 -7 130c-7 9 -50 21 -81 30l11 50h277l11 -50l-83 -26c-3 -21 -5 -82 -5 -134v-47l123 -3c38 63 69 120 107 187l-64 23l10 50h221l10 -50l-65 -22c-45 -59 -85 -114 -138 -187c55 -92 104 -164 151 -234l62 -17l-10 -50
c-52 0 -103 -1 -166 -3c-38 68 -81 147 -134 235h-107v-22c0 -45 0 -122 7 -130c7 -9 50 -21 81 -30l-11 -50h-278z" />
    <glyph glyph-name="kcommaaccent.smcp" horiz-adv-x="706" 
d="M64 50l83 26c2 21 5 82 5 134v140c0 45 -1 122 -7 130c-7 9 -50 21 -81 30l11 50h277l11 -50l-83 -26c-3 -21 -5 -82 -5 -134v-47l123 -3c38 63 69 120 107 187l-64 23l10 50h221l10 -50l-65 -22c-45 -59 -85 -114 -138 -187c55 -92 104 -164 151 -234l62 -17l-10 -50
c-52 0 -103 -1 -166 -3c-38 68 -81 147 -134 235h-107v-22c0 -45 0 -122 7 -130c7 -9 50 -21 81 -30l-11 -50h-278zM393 -81c36 0 83 -38 83 -79c0 -67 -66 -166 -112 -221l-43 29c19 36 36 76 47 112c-32 10 -59 38 -59 67c0 47 45 92 84 92z" />
    <glyph glyph-name="l.smcp" horiz-adv-x="621" 
d="M64 50l83 26c3 35 5 75 5 134v140c0 45 -1 122 -7 130c-7 9 -50 21 -81 30l11 50h277l11 -50l-83 -26c-3 -21 -5 -82 -5 -134v-146c0 -53 0 -120 8 -131c7 -10 60 -11 95 -11c29 0 62 0 85 3l26 119c23 1 66 -2 87 -5c2 -57 2 -118 0 -179h-502z" />
    <glyph glyph-name="lacute.smcp" horiz-adv-x="621" 
d="M118 653c51 69 114 150 174 218c25 -15 57 -43 77 -68l-2 -31l-204 -154l-17 1zM64 50l83 26c3 35 5 75 5 134v140c0 45 -1 122 -7 130c-7 9 -50 21 -81 30l11 50h277l11 -50l-83 -26c-3 -21 -5 -82 -5 -134v-146c0 -53 0 -120 8 -131c7 -10 60 -11 95 -11
c29 0 62 0 85 3l26 119c23 1 66 -2 87 -5c2 -57 2 -118 0 -179h-502z" />
    <glyph glyph-name="lcaron.smcp" horiz-adv-x="621" 
d="M502 572c43 0 84 -36 84 -83c0 -58 -54 -149 -96 -201l-44 18c12 41 29 96 34 134l-62 39c4 50 41 93 84 93zM64 50l83 26c3 35 5 75 5 134v140c0 45 -1 122 -7 130c-7 9 -50 21 -81 30l11 50h277l11 -50l-83 -26c-3 -21 -5 -82 -5 -134v-146c0 -53 0 -120 8 -131
c7 -10 60 -11 95 -11c29 0 62 0 85 3l26 119c23 1 66 -2 87 -5c2 -57 2 -118 0 -179h-502z" />
    <glyph glyph-name="lcommaaccent.smcp" horiz-adv-x="621" 
d="M64 50l83 26c3 35 5 75 5 134v140c0 45 -1 122 -7 130c-7 9 -50 21 -81 30l11 50h277l11 -50l-83 -26c-3 -21 -5 -82 -5 -134v-146c0 -53 0 -120 8 -131c7 -10 60 -11 95 -11c29 0 62 0 85 3l26 119c23 1 66 -2 87 -5c2 -57 2 -118 0 -179h-502zM344 -81
c37 0 84 -38 84 -79c-1 -67 -66 -166 -113 -221l-42 29c18 36 36 76 47 112c-33 10 -60 38 -60 67c0 47 46 92 84 92z" />
    <glyph glyph-name="ldot.smcp" horiz-adv-x="621" 
d="M64 50l83 26c3 35 5 75 5 134v140c0 45 -1 122 -7 130c-7 9 -50 21 -81 30l11 50h277l11 -50l-83 -26c-3 -21 -5 -82 -5 -134v-146c0 -53 0 -120 8 -131c7 -10 60 -11 95 -11c29 0 62 0 85 3l26 119c23 1 66 -2 87 -5c2 -57 2 -118 0 -179h-502zM528 433
c35 0 83 -38 83 -79c0 -38 -43 -86 -77 -86c-43 0 -90 35 -90 73c0 47 45 92 84 92z" />
    <glyph glyph-name="lslash.smcp" horiz-adv-x="621" 
d="M64 50l83 26c3 30 4 63 5 108l-56 -30l-20 7l-26 58l102 54v77c0 45 -1 122 -7 130c-7 9 -50 21 -81 30l11 50h277l11 -50l-83 -26c-3 -21 -5 -82 -5 -134v-12l109 58l21 -6l24 -58l-154 -82v-46c0 -53 0 -120 8 -131c7 -10 60 -11 95 -11c29 0 62 0 85 3l26 119
c23 1 66 -2 87 -5c2 -57 2 -118 0 -179h-502z" />
    <glyph glyph-name="m.smcp" horiz-adv-x="910" 
d="M300 50l-10 -50h-246l-10 50l83 27c5 40 14 141 18 225c6 108 10 164 3 176c-6 10 -49 23 -78 32l11 50h241c30 -78 84 -218 147 -364c60 146 119 288 146 364h233l10 -51l-81 -26l13 -269c3 -71 6 -121 14 -134c6 -10 52 -21 82 -30l-11 -50h-271l-10 50l82 26
c1 50 -6 225 -16 387l-161 -390c-33 -3 -66 -3 -99 0c-34 78 -103 247 -167 391l-8 -189c-4 -104 -9 -176 -3 -191c7 -15 51 -23 88 -34z" />
    <glyph glyph-name="n.smcp" horiz-adv-x="758" 
d="M631 6l-94 -9l-76 97c-67 85 -145 186 -234 296c3 -170 3 -300 11 -311c9 -11 57 -20 94 -29l-10 -50h-248l-10 50l81 26c4 29 8 97 8 206c0 116 -2 186 -11 198c-12 11 -46 22 -72 30l11 50c55 0 121 1 172 3c56 -87 178 -244 301 -397c-1 182 0 303 -13 315
c-10 10 -57 20 -90 29l11 50h247l10 -50l-80 -27c-9 -48 -8 -235 -8 -477z" />
    <glyph glyph-name="nacute.smcp" horiz-adv-x="758" 
d="M248 676c70 62 161 134 242 192c20 -20 46 -56 60 -84l-10 -29l-257 -123l-15 4zM631 6l-94 -9l-76 97c-67 85 -145 186 -234 296c3 -170 3 -300 11 -311c9 -11 57 -20 94 -29l-10 -50h-248l-10 50l81 26c4 29 8 97 8 206c0 116 -2 186 -11 198c-12 11 -46 22 -72 30
l11 50c55 0 121 1 172 3c56 -87 178 -244 301 -397c-1 182 0 303 -13 315c-10 10 -57 20 -90 29l11 50h247l10 -50l-80 -27c-9 -48 -8 -235 -8 -477z" />
    <glyph glyph-name="ncaron.smcp" horiz-adv-x="758" 
d="M602 836c-48 -65 -105 -134 -161 -196l-85 -1c-37 43 -130 151 -161 195l29 35l17 2l159 -131l158 131l16 -2zM631 6l-94 -9l-76 97c-67 85 -145 186 -234 296c3 -170 3 -300 11 -311c9 -11 57 -20 94 -29l-10 -50h-248l-10 50l81 26c4 29 8 97 8 206
c0 116 -2 186 -11 198c-12 11 -46 22 -72 30l11 50c55 0 121 1 172 3c56 -87 178 -244 301 -397c-1 182 0 303 -13 315c-10 10 -57 20 -90 29l11 50h247l10 -50l-80 -27c-9 -48 -8 -235 -8 -477z" />
    <glyph glyph-name="ncommaaccent.smcp" horiz-adv-x="758" 
d="M631 6l-94 -9l-76 97c-67 85 -145 186 -234 296c3 -170 3 -300 11 -311c9 -11 57 -20 94 -29l-10 -50h-248l-10 50l81 26c4 29 8 97 8 206c0 116 -2 186 -11 198c-12 11 -46 22 -72 30l11 50c55 0 121 1 172 3c56 -87 178 -244 301 -397c-1 182 0 303 -13 315
c-10 10 -57 20 -90 29l11 50h247l10 -50l-80 -27c-9 -48 -8 -235 -8 -477zM394 -81c36 0 83 -38 83 -79c-1 -67 -66 -166 -113 -221l-42 29c18 36 36 76 47 112c-32 10 -60 38 -60 67c0 47 46 92 85 92z" />
    <glyph glyph-name="ndotaccent.smcp" horiz-adv-x="758" 
d="M402 833c33 0 81 -41 81 -79c0 -39 -48 -86 -84 -86s-84 40 -84 79s52 86 87 86zM631 6l-94 -9l-76 97c-67 85 -145 186 -234 296c3 -170 3 -300 11 -311c9 -11 57 -20 94 -29l-10 -50h-248l-10 50l81 26c4 29 8 97 8 206c0 116 -2 186 -11 198c-12 11 -46 22 -72 30
l11 50c55 0 121 1 172 3c56 -87 178 -244 301 -397c-1 182 0 303 -13 315c-10 10 -57 20 -90 29l11 50h247l10 -50l-80 -27c-9 -48 -8 -235 -8 -477z" />
    <glyph glyph-name="ntilde.smcp" horiz-adv-x="758" 
d="M188 692c26 42 89 129 110 129c43 0 139 -31 199 -53l77 73l37 -28v-26c-33 -51 -84 -128 -117 -128c-40 0 -133 43 -200 67l-58 -64l-17 1zM631 6l-94 -9l-76 97c-67 85 -145 186 -234 296c3 -170 3 -300 11 -311c9 -11 57 -20 94 -29l-10 -50h-248l-10 50l81 26
c4 29 8 97 8 206c0 116 -2 186 -11 198c-12 11 -46 22 -72 30l11 50c55 0 121 1 172 3c56 -87 178 -244 301 -397c-1 182 0 303 -13 315c-10 10 -57 20 -90 29l11 50h247l10 -50l-80 -27c-9 -48 -8 -235 -8 -477z" />
    <glyph glyph-name="o.smcp" horiz-adv-x="683" 
d="M336 -11c-167 0 -282 108 -282 280c0 181 121 302 301 302c163 0 274 -109 274 -284s-114 -298 -293 -298zM345 69c52 0 88 15 110 33c23 29 48 92 48 175c0 137 -51 214 -162 214c-42 0 -79 -13 -106 -35c-29 -31 -54 -96 -54 -173c0 -128 54 -214 164 -214z" />
    <glyph glyph-name="oacute.smcp" horiz-adv-x="683" 
d="M198 676c69 62 160 134 241 192c20 -20 47 -56 60 -84l-9 -29l-257 -123l-15 4zM336 -11c-167 0 -282 108 -282 280c0 181 121 302 301 302c163 0 274 -109 274 -284s-114 -298 -293 -298zM345 69c52 0 88 15 110 33c23 29 48 92 48 175c0 137 -51 214 -162 214
c-42 0 -79 -13 -106 -35c-29 -31 -54 -96 -54 -173c0 -128 54 -214 164 -214z" />
    <glyph glyph-name="obreve.smcp" horiz-adv-x="683" 
d="M350 745c66 0 111 31 130 98l34 -5l11 -16c-6 -120 -87 -179 -181 -179c-97 0 -166 67 -169 193l46 6c17 -64 59 -97 129 -97zM336 -11c-167 0 -282 108 -282 280c0 181 121 302 301 302c163 0 274 -109 274 -284s-114 -298 -293 -298zM345 69c52 0 88 15 110 33
c23 29 48 92 48 175c0 137 -51 214 -162 214c-42 0 -79 -13 -106 -35c-29 -31 -54 -96 -54 -173c0 -128 54 -214 164 -214z" />
    <glyph glyph-name="ocaron.smcp" horiz-adv-x="683" 
d="M552 836c-48 -65 -105 -134 -162 -196l-85 -1c-37 43 -129 151 -160 195l29 35l16 2l160 -131l157 131l17 -2zM336 -11c-167 0 -282 108 -282 280c0 181 121 302 301 302c163 0 274 -109 274 -284s-114 -298 -293 -298zM345 69c52 0 88 15 110 33c23 29 48 92 48 175
c0 137 -51 214 -162 214c-42 0 -79 -13 -106 -35c-29 -31 -54 -96 -54 -173c0 -128 54 -214 164 -214z" />
    <glyph glyph-name="ocircumflex.smcp" horiz-adv-x="683" 
d="M145 664c48 64 105 134 162 196h84c38 -43 130 -151 161 -194l-29 -35l-17 -2l-159 130l-157 -130l-17 2zM336 -11c-167 0 -282 108 -282 280c0 181 121 302 301 302c163 0 274 -109 274 -284s-114 -298 -293 -298zM345 69c52 0 88 15 110 33c23 29 48 92 48 175
c0 137 -51 214 -162 214c-42 0 -79 -13 -106 -35c-29 -31 -54 -96 -54 -173c0 -128 54 -214 164 -214z" />
    <glyph glyph-name="odieresis.smcp" horiz-adv-x="683" 
d="M306 755c0 -37 -42 -83 -74 -83c-41 0 -86 34 -86 69c0 46 44 89 80 89c34 0 80 -35 80 -75zM551 755c0 -37 -43 -83 -75 -83c-42 0 -87 34 -87 69c0 46 45 89 81 89c34 0 81 -35 81 -75zM336 -11c-167 0 -282 108 -282 280c0 181 121 302 301 302
c163 0 274 -109 274 -284s-114 -298 -293 -298zM345 69c52 0 88 15 110 33c23 29 48 92 48 175c0 137 -51 214 -162 214c-42 0 -79 -13 -106 -35c-29 -31 -54 -96 -54 -173c0 -128 54 -214 164 -214z" />
    <glyph glyph-name="odotbelow.smcp" horiz-adv-x="683" 
d="M336 -11c-167 0 -282 108 -282 280c0 181 121 302 301 302c163 0 274 -109 274 -284s-114 -298 -293 -298zM345 69c52 0 88 15 110 33c23 29 48 92 48 175c0 137 -51 214 -162 214c-42 0 -79 -13 -106 -35c-29 -31 -54 -96 -54 -173c0 -128 54 -214 164 -214zM356 -85
c33 0 81 -41 81 -79c0 -39 -48 -86 -83 -86c-36 0 -85 40 -85 79s52 86 87 86z" />
    <glyph glyph-name="ograve.smcp" horiz-adv-x="683" 
d="M499 676l-20 -40l-15 -4l-257 123l-9 29c13 28 39 64 59 84c82 -58 172 -130 242 -192zM336 -11c-167 0 -282 108 -282 280c0 181 121 302 301 302c163 0 274 -109 274 -284s-114 -298 -293 -298zM345 69c52 0 88 15 110 33c23 29 48 92 48 175c0 137 -51 214 -162 214
c-42 0 -79 -13 -106 -35c-29 -31 -54 -96 -54 -173c0 -128 54 -214 164 -214z" />
    <glyph glyph-name="ohungarumlaut.smcp" horiz-adv-x="683" 
d="M114 679c55 62 115 125 179 185c21 -17 50 -46 65 -69l-6 -33l-195 -126l-16 4zM363 679c55 63 114 125 178 185c21 -17 50 -46 65 -69l-5 -33l-195 -126l-17 4zM336 -11c-167 0 -282 108 -282 280c0 181 121 302 301 302c163 0 274 -109 274 -284s-114 -298 -293 -298z
M345 69c52 0 88 15 110 33c23 29 48 92 48 175c0 137 -51 214 -162 214c-42 0 -79 -13 -106 -35c-29 -31 -54 -96 -54 -173c0 -128 54 -214 164 -214z" />
    <glyph glyph-name="omacron.smcp" horiz-adv-x="683" 
d="M546 793v-86l-380 -4l-15 15l9 78zM336 -11c-167 0 -282 108 -282 280c0 181 121 302 301 302c163 0 274 -109 274 -284s-114 -298 -293 -298zM345 69c52 0 88 15 110 33c23 29 48 92 48 175c0 137 -51 214 -162 214c-42 0 -79 -13 -106 -35c-29 -31 -54 -96 -54 -173
c0 -128 54 -214 164 -214z" />
    <glyph glyph-name="oogonek.smcp" horiz-adv-x="683" 
d="M336 -11c-167 0 -282 108 -282 280c0 181 121 302 301 302c163 0 274 -109 274 -284c0 -104 -40 -189 -110 -242c-102 -89 -134 -136 -134 -177c0 -15 5 -26 15 -32c34 5 68 18 94 27l18 -45c-27 -30 -70 -56 -121 -61c-65 1 -106 34 -106 89c0 48 29 95 93 145
c-14 -1 -28 -2 -42 -2zM345 69c52 0 88 15 110 33c23 29 48 92 48 175c0 137 -51 214 -162 214c-42 0 -79 -13 -106 -35c-29 -31 -54 -96 -54 -173c0 -128 54 -214 164 -214z" />
    <glyph glyph-name="oslash.smcp" horiz-adv-x="683" 
d="M32 31l70 69c-31 45 -48 103 -48 169c0 181 121 302 301 302c66 0 124 -18 169 -51l60 59l36 -1l35 -48l-72 -72c30 -45 46 -103 46 -171c0 -175 -114 -298 -293 -298c-68 0 -128 18 -174 51l-59 -59l-36 1zM181 283c0 -34 4 -66 11 -93l261 259c-26 28 -63 42 -112 42
c-42 0 -79 -13 -106 -35c-29 -31 -54 -96 -54 -173zM345 69c52 0 88 15 110 33c23 29 48 92 48 175c0 34 -4 65 -10 92l-258 -257c26 -28 63 -43 110 -43z" />
    <glyph glyph-name="oslashacute.smcp" horiz-adv-x="683" 
d="M193 676c70 62 160 134 242 192c20 -20 46 -56 59 -84l-9 -29l-257 -123l-15 4zM32 31l70 69c-31 45 -48 103 -48 169c0 181 121 302 301 302c66 0 124 -18 169 -51l60 59l36 -1l35 -48l-72 -72c30 -45 46 -103 46 -171c0 -175 -114 -298 -293 -298
c-68 0 -128 18 -174 51l-59 -59l-36 1zM181 283c0 -34 4 -66 11 -93l261 259c-26 28 -63 42 -112 42c-42 0 -79 -13 -106 -35c-29 -31 -54 -96 -54 -173zM345 69c52 0 88 15 110 33c23 29 48 92 48 175c0 34 -4 65 -10 92l-258 -257c26 -28 63 -43 110 -43z" />
    <glyph glyph-name="otilde.smcp" horiz-adv-x="683" 
d="M137 692c27 42 89 129 110 129c43 0 140 -31 200 -53l76 73l37 -28v-26c-32 -51 -83 -128 -117 -128c-40 0 -133 43 -200 67l-58 -64l-17 1zM336 -11c-167 0 -282 108 -282 280c0 181 121 302 301 302c163 0 274 -109 274 -284s-114 -298 -293 -298zM345 69
c52 0 88 15 110 33c23 29 48 92 48 175c0 137 -51 214 -162 214c-42 0 -79 -13 -106 -35c-29 -31 -54 -96 -54 -173c0 -128 54 -214 164 -214z" />
    <glyph glyph-name="oe.smcp" horiz-adv-x="926" 
d="M365 570c41 0 79 -3 112 -12h116c101 0 182 3 249 7c7 -9 18 -25 22 -33c-6 -39 -19 -106 -25 -137c-17 -1 -55 0 -73 3l-20 97c-25 3 -62 4 -95 4c-31 0 -59 -2 -83 -2c-2 -22 -6 -96 -6 -148v-43l181 8l15 -19c-3 -17 -8 -42 -11 -60l-185 6v-37c0 -48 -1 -119 8 -131
c11 -11 60 -13 95 -13c32 0 68 2 93 6l25 98c19 2 62 0 79 -4c2 -52 2 -106 0 -160h-404c-32 -8 -69 -12 -106 -12c-177 0 -298 106 -298 275c0 184 126 307 311 307zM181 273c0 -127 60 -205 180 -205c28 0 54 2 77 8c2 25 3 88 3 134v145c0 42 1 107 -5 126
c-22 7 -48 10 -78 10c-50 0 -100 -13 -127 -31c-30 -41 -50 -105 -50 -187z" />
    <glyph glyph-name="p.smcp" horiz-adv-x="624" 
d="M67 49l79 25c2 17 6 89 6 136v146c0 44 -2 116 -10 125c-10 11 -50 20 -78 29l11 50h136c33 0 120 5 161 5c141 0 228 -61 228 -181c0 -129 -93 -203 -238 -203c-36 0 -62 2 -87 6c0 -42 1 -100 9 -110c11 -12 62 -19 99 -28l-11 -49h-294zM474 380c0 47 -16 79 -35 97
c-20 13 -47 20 -82 20c-28 0 -59 -4 -80 -9c-2 -38 -2 -74 -2 -137v-92c24 -4 54 -6 76 -6c32 0 64 3 86 13c19 17 37 58 37 114z" />
    <glyph glyph-name="thorn.smcp" horiz-adv-x="624" 
d="M67 49l80 27c2 20 5 81 5 134v140c0 44 -1 122 -7 130c-7 9 -50 21 -81 30l11 50h298l10 -50l-103 -24c-1 -10 -2 -28 -3 -51c28 1 60 3 85 3c158 0 238 -47 238 -151c0 -103 -88 -161 -243 -161c-33 0 -59 2 -80 5c1 -26 4 -48 8 -53c8 -11 64 -20 98 -29l-10 -49h-295z
M275 203c25 -4 56 -6 79 -6c34 0 67 4 88 15c17 13 32 37 32 70c0 31 -14 56 -29 69c-20 13 -51 18 -88 18c-30 0 -58 -3 -82 -8v-158z" />
    <glyph glyph-name="q.smcp" horiz-adv-x="681" 
d="M336 -11c-167 0 -282 108 -282 280c0 181 121 302 301 302c163 0 274 -109 274 -284c0 -139 -72 -245 -190 -283c65 -27 136 -51 186 -63c25 1 51 2 76 4l20 -62c-25 -22 -88 -51 -136 -54c-89 34 -172 90 -246 160h-3zM345 69c52 0 88 15 110 33c23 29 48 92 48 175
c0 137 -51 214 -162 214c-42 0 -79 -13 -106 -35c-29 -31 -54 -96 -54 -173c0 -128 54 -214 164 -214z" />
    <glyph glyph-name="r.smcp" horiz-adv-x="683" 
d="M64 50l82 26c4 30 6 80 6 134v146c0 44 -1 116 -9 126c-6 10 -49 18 -79 28l11 50h135c30 0 123 5 165 5c141 0 225 -51 225 -156c0 -73 -53 -121 -104 -146c39 -71 80 -141 114 -196l61 -17l-10 -50c-50 0 -94 -1 -156 -3c-39 79 -75 147 -119 230h-111v-23
c0 -46 0 -117 7 -124c8 -9 46 -21 74 -30l-11 -50h-271zM275 350v-53l145 -4c29 18 55 57 55 110c0 36 -11 60 -27 78c-19 14 -54 20 -94 20c-25 0 -55 -2 -77 -7c-2 -31 -2 -75 -2 -144z" />
    <glyph glyph-name="racute.smcp" horiz-adv-x="683" 
d="M200 676c70 62 161 134 242 192c20 -20 47 -56 60 -84l-10 -29l-257 -123l-15 4zM64 50l82 26c4 30 6 80 6 134v146c0 44 -1 116 -9 126c-6 10 -49 18 -79 28l11 50h135c30 0 123 5 165 5c141 0 225 -51 225 -156c0 -73 -53 -121 -104 -146c39 -71 80 -141 114 -196
l61 -17l-10 -50c-50 0 -94 -1 -156 -3c-39 79 -75 147 -119 230h-111v-23c0 -46 0 -117 7 -124c8 -9 46 -21 74 -30l-11 -50h-271zM275 350v-53l145 -4c29 18 55 57 55 110c0 36 -11 60 -27 78c-19 14 -54 20 -94 20c-25 0 -55 -2 -77 -7c-2 -31 -2 -75 -2 -144z" />
    <glyph glyph-name="rcaron.smcp" horiz-adv-x="683" 
d="M554 836c-48 -65 -105 -134 -161 -196l-85 -1c-37 43 -130 151 -160 195l28 35l17 2l160 -131l157 131l16 -2zM64 50l82 26c4 30 6 80 6 134v146c0 44 -1 116 -9 126c-6 10 -49 18 -79 28l11 50h135c30 0 123 5 165 5c141 0 225 -51 225 -156c0 -73 -53 -121 -104 -146
c39 -71 80 -141 114 -196l61 -17l-10 -50c-50 0 -94 -1 -156 -3c-39 79 -75 147 -119 230h-111v-23c0 -46 0 -117 7 -124c8 -9 46 -21 74 -30l-11 -50h-271zM275 350v-53l145 -4c29 18 55 57 55 110c0 36 -11 60 -27 78c-19 14 -54 20 -94 20c-25 0 -55 -2 -77 -7
c-2 -31 -2 -75 -2 -144z" />
    <glyph glyph-name="rcommaaccent.smcp" horiz-adv-x="683" 
d="M64 50l82 26c4 30 6 80 6 134v146c0 44 -1 116 -9 126c-6 10 -49 18 -79 28l11 50h135c30 0 123 5 165 5c141 0 225 -51 225 -156c0 -73 -53 -121 -104 -146c39 -71 80 -141 114 -196l61 -17l-10 -50c-50 0 -94 -1 -156 -3c-39 79 -75 147 -119 230h-111v-23
c0 -46 0 -117 7 -124c8 -9 46 -21 74 -30l-11 -50h-271zM275 350v-53l145 -4c29 18 55 57 55 110c0 36 -11 60 -27 78c-19 14 -54 20 -94 20c-25 0 -55 -2 -77 -7c-2 -31 -2 -75 -2 -144zM386 -81c37 0 84 -38 84 -79c-1 -67 -66 -166 -113 -221l-42 29c18 36 36 76 46 112
c-32 10 -59 38 -59 67c0 47 46 92 84 92z" />
    <glyph glyph-name="rdotbelow.smcp" horiz-adv-x="683" 
d="M64 50l82 26c4 30 6 80 6 134v146c0 44 -1 116 -9 126c-6 10 -49 18 -79 28l11 50h135c30 0 123 5 165 5c141 0 225 -51 225 -156c0 -73 -53 -121 -104 -146c39 -71 80 -141 114 -196l61 -17l-10 -50c-50 0 -94 -1 -156 -3c-39 79 -75 147 -119 230h-111v-23
c0 -46 0 -117 7 -124c8 -9 46 -21 74 -30l-11 -50h-271zM275 350v-53l145 -4c29 18 55 57 55 110c0 36 -11 60 -27 78c-19 14 -54 20 -94 20c-25 0 -55 -2 -77 -7c-2 -31 -2 -75 -2 -144zM388 -85c32 0 80 -41 80 -80s-48 -85 -83 -85c-36 0 -85 39 -85 78s52 87 88 87z" />
    <glyph glyph-name="s.smcp" horiz-adv-x="578" 
d="M310 572c75 0 140 -17 184 -43l13 -23c-5 -35 -17 -98 -22 -122c-18 -1 -63 -1 -81 2c-6 44 -13 77 -18 101c-20 12 -49 19 -83 19c-35 0 -67 -8 -86 -24c-10 -14 -18 -32 -18 -56c0 -132 315 -81 315 -277c0 -97 -90 -161 -227 -161c-90 0 -166 26 -209 48l-3 7
c0 13 3 117 3 128c20 4 68 5 86 4c7 -42 13 -70 18 -98c23 -13 63 -23 103 -23c38 0 64 4 85 16c11 13 19 32 19 61c0 124 -311 74 -311 269c0 102 102 172 232 172z" />
    <glyph glyph-name="sacute.smcp" horiz-adv-x="578" 
d="M149 676c70 62 160 134 242 192c20 -20 46 -56 59 -84l-9 -29l-257 -123l-15 4zM310 572c75 0 140 -17 184 -43l13 -23c-5 -35 -17 -98 -22 -122c-18 -1 -63 -1 -81 2c-6 44 -13 77 -18 101c-20 12 -49 19 -83 19c-35 0 -67 -8 -86 -24c-10 -14 -18 -32 -18 -56
c0 -132 315 -81 315 -277c0 -97 -90 -161 -227 -161c-90 0 -166 26 -209 48l-3 7c0 13 3 117 3 128c20 4 68 5 86 4c7 -42 13 -70 18 -98c23 -13 63 -23 103 -23c38 0 64 4 85 16c11 13 19 32 19 61c0 124 -311 74 -311 269c0 102 102 172 232 172z" />
    <glyph glyph-name="scaron.smcp" horiz-adv-x="578" 
d="M503 836c-48 -65 -105 -134 -161 -196l-85 -1c-37 43 -130 151 -161 195l29 35l17 2l159 -131l158 131l16 -2zM310 572c75 0 140 -17 184 -43l13 -23c-5 -35 -17 -98 -22 -122c-18 -1 -63 -1 -81 2c-6 44 -13 77 -18 101c-20 12 -49 19 -83 19c-35 0 -67 -8 -86 -24
c-10 -14 -18 -32 -18 -56c0 -132 315 -81 315 -277c0 -97 -90 -161 -227 -161c-90 0 -166 26 -209 48l-3 7c0 13 3 117 3 128c20 4 68 5 86 4c7 -42 13 -70 18 -98c23 -13 63 -23 103 -23c38 0 64 4 85 16c11 13 19 32 19 61c0 124 -311 74 -311 269c0 102 102 172 232 172z
" />
    <glyph glyph-name="scedilla.smcp" horiz-adv-x="578" 
d="M310 572c75 0 140 -17 184 -43l13 -23c-5 -35 -17 -98 -22 -122c-18 -1 -63 -1 -81 2c-6 44 -13 77 -18 101c-20 12 -49 19 -83 19c-35 0 -67 -8 -86 -24c-10 -14 -18 -32 -18 -56c0 -132 315 -81 315 -277c0 -89 -77 -151 -197 -160l-17 -58c9 2 19 3 29 3
c65 0 106 -32 106 -85c0 -67 -45 -109 -140 -110c-51 1 -88 10 -116 25l17 52c29 -7 54 -10 79 -10c17 0 32 1 45 6c6 8 8 16 8 27c0 22 -15 34 -51 34c-15 0 -30 -2 -41 -5l-22 20l31 102c-71 6 -131 28 -167 46l-3 7c0 13 3 117 3 128c20 4 68 5 86 4c7 -42 13 -70 18 -98
c23 -13 63 -23 103 -23c38 0 64 4 85 16c11 13 19 32 19 61c0 124 -311 74 -311 269c0 102 102 172 232 172z" />
    </font>
</defs>
</svg>
